<?xml version="1.0" standalone="no"?>
<!DOCTYPE svg PUBLIC "-//W3C//DTD SVG 1.1//EN" "http://www.w3.org/Graphics/SVG/1.1/DTD/svg11.dtd" >
<svg xmlns="http://www.w3.org/2000/svg" xmlns:xlink="http://www.w3.org/1999/xlink" version="1.1">
<metadata>
Created by FontForge 20170924 at Thu Sep 22 15:56:55 2016
 By www-data
(c) 2014 The Monotype Corporation. All Rights Reserved.
</metadata>
<defs>
<font id="ArialNova-Bold" horiz-adv-x="682" >
  <font-face 
    font-family="Arial Nova"
    font-weight="700"
    font-stretch="normal"
    units-per-em="2048"
    panose-1="2 11 8 4 2 2 2 2 2 4"
    ascent="1638"
    descent="-410"
    x-height="1061"
    cap-height="1466"
    bbox="-940 -445 3234 1923"
    underline-thickness="102"
    underline-position="-358"
    unicode-range="U+0020-FEFF"
  />
<missing-glyph horiz-adv-x="1024" 
d="M129 0v1536h768v-1536h-768zM256 1409v-1280h512v1280h-512z" />
    <glyph glyph-name="f_i.liga" unicode="fi" horiz-adv-x="1241" 
d="M573 1276q-42 0 -66 -14t-35 -48t-11 -96v-57h205v-223h-205v-838h-281v838h-155v223h155v65q0 108 25.5 186.5t101 128.5t217.5 50q52 0 122.5 -10t111.5 -21l-53 -209q-34 12 -70 18.5t-62 6.5zM821 1206v260h281v-260h-281zM821 0v1061h281v-1061h-281z" />
    <glyph glyph-name="f_l.liga" unicode="fl" horiz-adv-x="1241" 
d="M573 1276q-42 0 -66 -14t-35 -48t-11 -96v-57h205v-223h-205v-838h-281v838h-155v223h155v65q0 108 25.5 186.5t101 128.5t217.5 50q52 0 122.5 -10t111.5 -21l-53 -209q-34 12 -70 18.5t-62 6.5zM821 0v1466h281v-1466h-281z" />
    <glyph glyph-name="uniFDFC" unicode="&#xfdfc;" horiz-adv-x="2237" arabic-form="isolated" 
d="M1847 849h279q0 -311 -110.5 -467t-385.5 -156q-226 0 -331 116t-105 374v753h281v-755q0 -142 39.5 -199t140.5 -57q107 0 148.5 91t43.5 300zM672 578v891h284v-884q0 -242 -123.5 -376t-316.5 -134q-259 0 -363 130t-104 474h281q0 -204 33.5 -288.5t146.5 -84.5
q80 0 121 69t41 203zM1202 17l166 168l164 -168l-164 -162zM838 17l159 168l166 -168l-166 -162zM2175 111q6 -25 11 -58.5t5 -82.5q0 -181 -101.5 -259.5t-299 -110t-524.5 -31.5v231q312 0 433 20t166.5 60t45.5 119q0 34 -4 62.5t-9 49.5h277z" />
    <glyph glyph-name=".notdef" horiz-adv-x="1024" 
d="M129 0v1536h768v-1536h-768zM256 1409v-1280h512v1280h-512z" />
    <glyph glyph-name=".null" horiz-adv-x="0" 
 />
    <glyph glyph-name="glyph2" horiz-adv-x="512" 
 />
    <glyph glyph-name="uniFEFF" unicode="&#xfeff;" horiz-adv-x="0" 
 />
    <glyph glyph-name="uniFEFF" horiz-adv-x="0" 
 />
    <glyph glyph-name="space" unicode=" " horiz-adv-x="512" 
 />
    <glyph glyph-name="exclam" unicode="!" 
d="M422 379h-162l-72 742v345h306v-345zM197 0v288h288v-288h-288z" />
    <glyph glyph-name="quotedbl" unicode="&#x22;" horiz-adv-x="971" 
d="M349 944h-206l-53 275v247h307v-247zM833 944h-206l-53 275v247h307v-247z" />
    <glyph glyph-name="numbersign" unicode="#" horiz-adv-x="1139" 
d="M385 1491h225l-78 -387h224l78 387h225l-78 -387h136v-224h-181l-59 -294h240v-224h-285l-78 -387h-225l78 387h-224l-78 -387h-225l78 387h-136v224h181l59 294h-240v224h285zM711 880h-224l-59 -294h224z" />
    <glyph glyph-name="dollar" unicode="$" horiz-adv-x="1163" 
d="M1032 1124l-254 -33q-9 55 -39 94t-93 55v-377q163 -54 256.5 -117.5t133 -146t39.5 -199.5q0 -97 -46 -186.5t-142.5 -153t-240.5 -78.5v-187h-146v185q-186 16 -293 128t-137 304l261 28q17 -82 53.5 -142t115.5 -81v411q-203 68 -296.5 178t-93.5 266
q0 103 43.5 189.5t131 143t215.5 68.5v127h146v-128q171 -17 264.5 -108t121.5 -240zM500 910v334q-73 -15 -105.5 -59t-32.5 -99q0 -54 32 -100t106 -76zM646 583v-368q92 17 134.5 66t42.5 114t-39 108.5t-138 79.5z" />
    <glyph glyph-name="percent" unicode="%" horiz-adv-x="1782" 
d="M68 1080q0 197 88.5 304t256.5 107q171 0 257.5 -103.5t86.5 -301.5q0 -200 -86.5 -302t-253.5 -102q-172 0 -260.5 101.5t-88.5 296.5zM402 -25l792 1516h191l-784 -1516h-199zM412 1309q-60 0 -84 -56t-24 -166q0 -115 24.5 -168.5t84.5 -53.5t84 52.5t24 169.5
q0 113 -24 167.5t-85 54.5zM1025 373q0 197 88.5 304t256.5 107q171 0 257.5 -103.5t86.5 -301.5q0 -200 -86.5 -302t-253.5 -102q-172 0 -260.5 101.5t-88.5 296.5zM1369 602q-60 0 -84 -56t-24 -166q0 -115 24.5 -168.5t84.5 -53.5t84 52.5t24 169.5q0 113 -24 167.5
t-85 54.5z" />
    <glyph glyph-name="ampersand" unicode="&#x26;" horiz-adv-x="1468" 
d="M1077 705l254 -58q-21 -84 -54.5 -169.5t-72.5 -131.5q38 -37 114.5 -91t117.5 -75l-170 -219q-118 58 -240 170q-88 -83 -190.5 -120.5t-235.5 -37.5q-162 0 -280 57.5t-179 155.5t-61 216q0 137 81.5 250.5t248.5 196.5q-70 80 -108 162.5t-38 162.5q0 91 52 163.5
t145 113t213 40.5q113 0 205 -36t146.5 -111t54.5 -187q0 -68 -28 -124.5t-87.5 -111t-159.5 -117.5l211 -267q39 70 61 168zM832 1163q0 35 -18.5 64.5t-53 47t-81.5 17.5q-60 0 -100 -31.5t-40 -78.5q0 -24 14.5 -55t40.5 -65l66 -84q85 47 128.5 92.5t43.5 92.5zM368 412
q0 -58 26.5 -104.5t76.5 -73.5t117 -27q69 0 130 25.5t130 84.5l-293 352q-91 -48 -139 -113.5t-48 -143.5z" />
    <glyph glyph-name="quotesingle" unicode="'" horiz-adv-x="487" 
d="M349 944h-206l-53 275v247h307v-247z" />
    <glyph glyph-name="parenleft" unicode="(" 
d="M376 525q0 -468 236 -955h-192q-154 233 -234 479t-80 484q0 506 314 958h192q-91 -199 -142 -353.5t-72.5 -298.5t-21.5 -314z" />
    <glyph glyph-name="parenright" unicode=")" 
d="M576 527q0 -247 -78.5 -488.5t-235.5 -468.5h-192q91 198 141.5 352.5t72.5 299.5t22 315q0 229 -57.5 465t-178.5 489h192q152 -229 233 -478t81 -486z" />
    <glyph glyph-name="asterisk" unicode="*" horiz-adv-x="797" 
d="M457 1223q109 51 251 110l55 -182q-182 -37 -259 -49q109 -114 176 -201l-152 -102q-77 112 -135 223q-64 -114 -139 -229l-152 116q41 49 82.5 90.5t105.5 102.5q-25 2 -125.5 26t-130.5 37l57 176q65 -27 137 -62t102 -54q-25 149 -25 266h178q0 -46 -5 -103t-21 -165z
" />
    <glyph glyph-name="plus" unicode="+" horiz-adv-x="1196" 
d="M1110 852v-258h-383v-383h-258v383h-383v258h383v383h258v-383h383z" />
    <glyph glyph-name="comma" unicode="," horiz-adv-x="568" 
d="M175 -328l-57 122q85 27 121.5 76t39.5 130h-139v288h288v-219q0 -112 -21.5 -184t-76 -123t-155.5 -90z" />
    <glyph glyph-name="hyphen" unicode="-" horiz-adv-x="741" 
d="M95 391v281h551v-281h-551z" />
    <glyph glyph-name="period" unicode="." horiz-adv-x="568" 
d="M140 0v288h288v-288h-288z" />
    <glyph glyph-name="slash" unicode="/" horiz-adv-x="569" 
d="M-2 -49l358 1515h211l-362 -1515h-207z" />
    <glyph glyph-name="zero" unicode="0" horiz-adv-x="1163" 
d="M85 725q0 383 126 565.5t369 182.5q252 0 375 -184.5t123 -564.5q0 -392 -128.5 -570.5t-367.5 -178.5q-243 0 -370 177.5t-127 572.5zM380 703q0 -184 21 -292t64.5 -155t114.5 -47q75 0 119 49.5t64 161t20 303.5q0 200 -20 311.5t-62.5 158t-114.5 46.5
q-73 0 -117 -42.5t-66.5 -158.5t-22.5 -335z" />
    <glyph glyph-name="one" unicode="1" horiz-adv-x="1163" 
d="M538 0v1059q-75 -72 -176.5 -128t-205.5 -85v254q159 61 273 149t166 224h229v-1473h-286z" />
    <glyph glyph-name="two" unicode="2" horiz-adv-x="1163" 
d="M63 0q18 174 121 316q64 89 143.5 172t198.5 197q67 65 128 125q99 100 99 234q0 93 -46.5 144t-130.5 51q-95 0 -142.5 -56.5t-56.5 -170.5v-2l-290 28q19 221 151.5 328t345.5 107q142 0 247.5 -54.5t161 -148t55.5 -208.5q0 -95 -32.5 -181.5t-105.5 -179.5t-196 -203
q-184 -165 -225 -236h559v-262h-985z" />
    <glyph glyph-name="three" unicode="3" horiz-adv-x="1163" 
d="M1066 436q0 -144 -60.5 -248t-172.5 -158.5t-265 -54.5q-131 0 -236 47t-172 140t-85 227l282 33q13 -105 67 -159t142 -54q62 0 108.5 32t71.5 87t25 121q0 63 -27 112.5t-77 77.5t-117 28h-133l31 215q147 0 214.5 48.5t67.5 141.5q0 73 -46 116.5t-124 43.5
q-80 0 -132 -52.5t-63 -142.5l-270 46q40 192 161 287.5t311 95.5q135 0 237 -48.5t157 -134t55 -194.5q0 -101 -57 -182.5t-176 -127.5q134 -27 208.5 -119.5t74.5 -223.5z" />
    <glyph glyph-name="four" unicode="4" horiz-adv-x="1163" 
d="M1105 543v-248h-182v-295h-281v295h-602v246l647 929h236v-927h182zM642 543v489l-338 -489h338z" />
    <glyph glyph-name="five" unicode="5" horiz-adv-x="1163" 
d="M478 1184l-43 -250q84 47 194 47q138 0 239 -63.5t153.5 -174t52.5 -250.5q0 -139 -58 -257.5t-171.5 -189.5t-272.5 -71q-131 0 -236 48.5t-171.5 140t-84.5 217.5l288 28q12 -93 67.5 -146.5t139.5 -53.5q61 0 107 34t71.5 99t25.5 153q0 129 -54.5 195.5t-157.5 66.5
q-133 0 -217 -107l-1 -1l-233 33l143 764h750v-262h-531z" />
    <glyph glyph-name="six" unicode="6" horiz-adv-x="1163" 
d="M614 1239q-208 0 -221 -410q95 121 268 121q120 0 216 -62t150 -171t54 -246q0 -141 -60 -253.5t-170 -177.5t-256 -65q-241 0 -369 185t-128 553q0 246 61.5 415.5t181 257t291.5 87.5q112 0 201.5 -45t146.5 -127.5t72 -192.5l-278 -29q-15 79 -53.5 119.5t-106.5 40.5
zM596 735q-86 0 -139.5 -59.5t-53.5 -178.5q0 -138 53.5 -213t144.5 -75q86 0 139 68t53 194q0 264 -197 264z" />
    <glyph glyph-name="seven" unicode="7" horiz-adv-x="1163" 
d="M723 683q-138 -340 -141 -683h-287q7 310 124 618.5t320 565.5h-641v262h973v-203q-205 -208 -348 -560z" />
    <glyph glyph-name="eight" unicode="8" horiz-adv-x="1163" 
d="M1073 418q0 -128 -61.5 -229t-172 -157.5t-250.5 -56.5q-141 0 -255 54t-179 152.5t-65 226.5q0 138 63 235t183 148q-101 43 -153.5 120.5t-52.5 182.5q0 109 53.5 195.5t154.5 135t239 48.5q134 0 235.5 -48t156.5 -134t55 -197q0 -102 -52 -180.5t-149 -122.5
q122 -49 186 -144t64 -229zM577 1247q-80 0 -128.5 -48.5t-48.5 -126.5q0 -84 49 -130.5t128 -46.5q49 0 89 20.5t64 61.5t24 98q0 79 -48.5 125.5t-128.5 46.5zM578 670q-93 0 -146.5 -65.5t-53.5 -180.5q0 -66 26 -116.5t73 -78.5t106 -28q99 0 150.5 60.5t51.5 160.5
q0 70 -24.5 126.5t-71 89t-111.5 32.5z" />
    <glyph glyph-name="nine" unicode="9" horiz-adv-x="1163" 
d="M559 209q208 0 221 410q-95 -121 -268 -121q-120 0 -216 62t-150 171t-54 246q0 141 60 253.5t170 177.5t256 65q241 0 369 -185t128 -553q0 -246 -61.5 -415.5t-181 -257t-291.5 -87.5q-112 0 -201.5 45t-146.5 127.5t-72 192.5l278 29q15 -79 53.5 -119.5t106.5 -40.5z
M577 713q86 0 139.5 59.5t53.5 178.5q0 93 -25.5 158t-69 97.5t-98.5 32.5q-90 0 -143.5 -68t-53.5 -194q0 -264 197 -264z" />
    <glyph glyph-name="colon" unicode=":" horiz-adv-x="606" 
d="M155 773v288h288v-288h-288zM155 0v288h288v-288h-288z" />
    <glyph glyph-name="semicolon" unicode=";" horiz-adv-x="606" 
d="M155 773v288h288v-288h-288zM190 -328l-57 122q85 27 121.5 76t39.5 130h-139v288h288v-219q0 -112 -21.5 -184t-76 -123t-155.5 -90z" />
    <glyph glyph-name="less" unicode="&#x3c;" horiz-adv-x="1196" 
d="M1100 449v-283l-1004 436v244l1004 436v-287l-701 -268z" />
    <glyph glyph-name="equal" unicode="=" horiz-adv-x="1196" 
d="M86 817v258h1024v-258h-1024zM86 373v258h1024v-258h-1024z" />
    <glyph glyph-name="greater" unicode="&#x3e;" horiz-adv-x="1196" 
d="M1100 600l-1004 -434v285l701 270l-701 276v285l1004 -438v-244z" />
    <glyph glyph-name="question" unicode="?" horiz-adv-x="1115" 
d="M395 409q0 131 14 183q17 64 61.5 131t115.5 123q83 65 119.5 117.5t36.5 103.5q0 59 -25.5 102t-69 65t-94.5 22q-90 0 -145.5 -59.5t-73.5 -176.5l-262 32q11 132 73.5 230t166 151t235.5 53q135 0 243.5 -52t170.5 -148.5t62 -224.5q0 -71 -20.5 -126t-71.5 -114
t-149 -141q-61 -51 -88 -88t-35 -76t-8 -110v-27h-256v30zM379 0v288h288v-288h-288z" />
    <glyph glyph-name="at" unicode="@" horiz-adv-x="1997" 
d="M1015 -430q-278 0 -494.5 107.5t-338.5 314t-122 492.5q0 289 127.5 518.5t357.5 359t528 129.5q239 0 436 -93.5t312.5 -268t115.5 -407.5q0 -189 -82.5 -355.5t-221.5 -266.5t-300 -100q-97 0 -148 42.5t-56 118.5q-52 -78 -131.5 -119.5t-158.5 -41.5
q-106 0 -188 54.5t-127.5 150.5t-45.5 215q0 187 69 338.5t186.5 238t257.5 86.5q84 0 149.5 -35.5t102.5 -99.5l25 111h250l-145 -694q-19 -90 -19 -108q0 -26 16.5 -39.5t35.5 -13.5q72 0 154.5 65.5t138.5 181.5t56 259q0 190 -86 327.5t-241 209.5t-359 72
q-271 0 -457 -109.5t-278 -298t-92 -424.5q0 -216 89 -384.5t267 -264.5t435 -96q203 0 364.5 49t265.5 126l109 -145q-133 -99 -315 -150.5t-442 -51.5zM1015 879q-91 0 -154 -71.5t-94 -175t-31 -195.5q0 -108 42.5 -170.5t121.5 -62.5q84 0 149.5 67t102.5 184
q36 117 36 206q0 111 -43 164.5t-130 53.5z" />
    <glyph glyph-name="A" unicode="A" horiz-adv-x="1460" 
d="M1133 0l-127 332h-566l-121 -332h-315l571 1466h293l588 -1466h-323zM651 911l-121 -331h381l-123 331q-24 64 -42.5 131t-24.5 109h-8q-18 -120 -62 -240z" />
    <glyph glyph-name="B" unicode="B" horiz-adv-x="1410" 
d="M1249 1083q0 -110 -56 -185.5t-151 -117.5q135 -39 206.5 -132.5t71.5 -221.5q0 -221 -149.5 -323.5t-370.5 -102.5h-646v1466h648q200 0 323.5 -90.5t123.5 -292.5zM961 1050q0 99 -61.5 133.5t-157.5 34.5h-293v-335h297q106 0 160.5 42t54.5 125zM1014 435
q0 96 -61.5 148t-210.5 52h-293v-387h300q71 0 128.5 12.5t97 54t39.5 120.5z" />
    <glyph glyph-name="C" unicode="C" horiz-adv-x="1485" 
d="M770 1237q-121 0 -206 -64t-128 -176.5t-43 -257.5q0 -155 44 -270t128 -177.5t201 -62.5q82 0 152 36t119.5 103t72.5 158l293 -69q-34 -145 -118.5 -253.5t-214.5 -168.5t-296 -60q-216 0 -370 92t-235 265.5t-81 412.5q0 229 83.5 397.5t238.5 258.5t364 90
q240 0 395 -108.5t217 -321.5l-292 -70q-73 246 -324 246z" />
    <glyph glyph-name="D" unicode="D" horiz-adv-x="1471" 
d="M1383 722q0 -336 -160.5 -529t-495.5 -193h-573v1466h576q653 0 653 -744zM1077 731q0 181 -41 287t-126.5 153t-227.5 47h-233v-970h237q147 0 231.5 45.5t122 150t37.5 287.5z" />
    <glyph glyph-name="E" unicode="E" horiz-adv-x="1253" 
d="M449 1218v-335h616v-248h-616v-387h706v-248h-1001v1466h966v-248h-671z" />
    <glyph glyph-name="F" unicode="F" horiz-adv-x="1221" 
d="M446 1218v-363h615v-247h-615v-608h-294v1466h985v-248h-691z" />
    <glyph glyph-name="G" unicode="G" horiz-adv-x="1557" 
d="M802 1237q-191 0 -299.5 -123t-108.5 -364q0 -162 46.5 -279t137.5 -179.5t221 -62.5q93 0 183.5 28t155.5 81v201h-342v248h637v-584q-67 -64 -168 -116t-221.5 -82t-243.5 -30q-224 0 -384.5 95.5t-244 267.5t-83.5 399t89 397.5t251 263.5t374 93q251 0 402 -108
t211 -322l-295 -55q-32 113 -112 172t-206 59z" />
    <glyph glyph-name="H" unicode="H" horiz-adv-x="1477" 
d="M1028 901v565h295v-1466h-295v653h-579v-653h-295v1466h295v-565h579z" />
    <glyph glyph-name="I" unicode="I" horiz-adv-x="603" 
d="M154 0v1466h295v-1466h-295z" />
    <glyph glyph-name="J" unicode="J" horiz-adv-x="1117" 
d="M485 -25q-222 0 -335 119t-118 361l279 37q4 -141 49 -202t136 -61q67 0 106 26.5t56.5 87t17.5 163.5v960h295v-959q0 -259 -113.5 -395.5t-372.5 -136.5z" />
    <glyph glyph-name="K" unicode="K" horiz-adv-x="1452" 
d="M1038 1466h368l-531 -582l572 -884h-368l-409 677l-221 -235v-442h-295v1466h295v-651z" />
    <glyph glyph-name="L" unicode="L" horiz-adv-x="1158" 
d="M1104 248v-248h-950v1466h295v-1218h655z" />
    <glyph glyph-name="M" unicode="M" horiz-adv-x="1784" 
d="M1185 1466h445v-1466h-275v1155l-319 -1155h-284l-323 1155v-1155h-275v1466h443l298 -1038z" />
    <glyph glyph-name="N" unicode="N" horiz-adv-x="1469" 
d="M1040 1466h275v-1466h-297l-589 956v-956h-275v1466h287l599 -979v979z" />
    <glyph glyph-name="O" unicode="O" horiz-adv-x="1608" 
d="M88 725q0 232 87.5 404.5t249.5 267t378 94.5q217 0 379 -94t250 -266t88 -400q0 -222 -86.5 -393.5t-247.5 -267t-379 -95.5t-381 94.5t-250.5 265t-87.5 390.5zM803 1237q-126 0 -218.5 -64.5t-141.5 -178.5t-49 -261t48 -261t141 -178.5t222 -64.5q127 0 219.5 64
t141 179t48.5 265q0 144 -48.5 257.5t-141 178t-221.5 64.5z" />
    <glyph glyph-name="P" unicode="P" horiz-adv-x="1287" 
d="M1219 1015q0 -237 -134 -350t-413 -113h-223v-552h-295v1466h518q283 0 415 -114t132 -337zM913 1010q0 100 -60 154t-186 54h-218v-418h218q133 0 189.5 53.5t56.5 156.5z" />
    <glyph glyph-name="Q" unicode="Q" horiz-adv-x="1608" 
d="M88 725q0 232 87.5 405.5t249.5 267t378 93.5q217 0 379 -94t250 -266t88 -400q0 -165 -48.5 -303.5t-139.5 -238.5q58 -44 116 -75.5t125 -52.5l-110 -208q-80 24 -168 76t-161 114q-145 -68 -327 -68q-218 0 -381 94.5t-250.5 265t-87.5 390.5zM803 1237
q-126 0 -218.5 -64.5t-141.5 -178.5t-49 -261t48 -261t141 -178.5t222 -64.5q58 0 112 14q-35 23 -85 48.5t-95 42.5l82 180q135 -47 281 -151q56 68 85 163t29 211q0 144 -48.5 257.5t-141 178t-221.5 64.5z" />
    <glyph glyph-name="R" unicode="R" horiz-adv-x="1380" 
d="M1276 1055q0 -155 -78.5 -255t-241.5 -147v-4q38 -14 69 -40t65 -76.5t77 -138.5l193 -394h-324l-140 293q-74 155 -124 217q-33 41 -65.5 62.5t-82 30.5t-134.5 9h-41v-612h-295v1466h608q246 0 380 -106t134 -305zM971 1037q0 96 -57.5 139t-178.5 43h-286v-373h251
q134 0 202.5 43t68.5 148z" />
    <glyph glyph-name="S" unicode="S" horiz-adv-x="1323" 
d="M631 1247q-94 0 -157.5 -38t-63.5 -107q0 -46 29 -78.5t99 -59.5t199 -57q194 -45 302.5 -108.5t152 -152t43.5 -219.5q0 -152 -79.5 -253.5t-209.5 -150t-285 -48.5q-249 0 -403 127t-188 365l295 36q26 -144 98.5 -212t205.5 -68q80 0 141.5 22.5t95.5 63.5t34 97
q0 64 -24.5 100t-96 65.5t-223.5 65.5q-179 43 -283 106t-147.5 145t-43.5 192q0 120 61.5 213t179.5 145.5t282 52.5q236 0 375.5 -108.5t173.5 -315.5l-295 -33q-14 114 -79 163.5t-189 49.5z" />
    <glyph glyph-name="T" unicode="T" horiz-adv-x="1243" 
d="M769 1218v-1218h-295v1218h-424v248h1143v-248h-424z" />
    <glyph glyph-name="U" unicode="U" horiz-adv-x="1462" 
d="M739 229q113 0 173.5 37t84.5 115.5t24 215.5v869h295v-862q0 -224 -54 -361t-178 -202.5t-338 -65.5q-225 0 -356.5 69t-187.5 205.5t-56 352.5v864h295v-873q0 -131 30.5 -210.5t95.5 -116.5t172 -37z" />
    <glyph glyph-name="V" unicode="V" horiz-adv-x="1352" 
d="M684 366h4q32 140 68 247l279 853h313l-519 -1466h-308l-517 1466h322l288 -851q40 -117 70 -249z" />
    <glyph glyph-name="W" unicode="W" horiz-adv-x="1921" 
d="M527 425h4q14 95 43 205l217 836h352l209 -841q23 -90 44 -217h4q18 120 38 218l172 840h303l-351 -1466h-315l-248 951q-25 93 -38 186h-4q-16 -105 -36 -180l-246 -957h-322l-345 1466h308l175 -835q21 -96 36 -206z" />
    <glyph glyph-name="X" unicode="X" horiz-adv-x="1374" 
d="M691 975h4q30 73 73 143l212 348h344l-457 -712l502 -754h-356l-244 378q-40 62 -80 148h-4q-38 -82 -81 -149l-243 -377h-356l502 766l-455 700h346l214 -341q41 -66 79 -150z" />
    <glyph glyph-name="Y" unicode="Y" horiz-adv-x="1340" 
d="M673 862h4q40 86 108 208l220 396h340l-528 -852v-614h-295v616l-527 850h346l224 -395q65 -114 108 -209z" />
    <glyph glyph-name="Z" unicode="Z" horiz-adv-x="1251" 
d="M380 248h833v-248h-1189v266l770 952h-684v248h1073v-231z" />
    <glyph glyph-name="bracketleft" unicode="[" 
d="M414 1245v-1438h229v-221h-498v1880h498v-221h-229z" />
    <glyph glyph-name="backslash" unicode="\" horiz-adv-x="569" 
d="M364 -49l-362 1515h211l358 -1515h-207z" />
    <glyph glyph-name="bracketright" unicode="]" 
d="M39 -414v221h229v1438h-229v221h498v-1880h-498z" />
    <glyph glyph-name="asciicircum" unicode="^" horiz-adv-x="1196" 
d="M798 668l-200 489l-200 -489h-284l373 798h222l373 -798h-284z" />
    <glyph glyph-name="underscore" unicode="_" horiz-adv-x="1024" 
d="M-12 -256v102h1048v-102h-1048z" />
    <glyph glyph-name="grave" unicode="`" 
d="M317 1196l-274 295h313l140 -295h-179z" />
    <glyph glyph-name="a" unicode="a" horiz-adv-x="1126" 
d="M1059 0h-277q-21 46 -34 117q-141 -142 -330 -142q-104 0 -183 40t-122 112.5t-43 165.5q0 141 92 224t284 113t270 58v20q0 93 -45.5 127.5t-134.5 34.5q-70 0 -117 -32t-71 -101l-256 39q42 160 156 234.5t305 74.5q155 0 252.5 -39.5t144.5 -125.5t47 -225v-433
q0 -76 11 -127t51 -135zM501 455q-150 -30 -150 -146q0 -65 37 -100t106 -35t127 35q40 24 59.5 50.5t27.5 71.5t8 126v51q-74 -27 -215 -53z" />
    <glyph glyph-name="b" unicode="b" horiz-adv-x="1253" 
d="M424 942q124 143 308 143q131 0 233.5 -65.5t160 -188.5t57.5 -290q0 -171 -58.5 -299.5t-160.5 -197.5t-229 -69q-111 0 -189.5 38t-140.5 127h-4v-140h-262v1466h281v-524h4zM656 861q-70 0 -124 -36t-84 -105.5t-30 -166.5q0 -174 66 -264t183 -90q69 0 120.5 38
t79.5 112t28 178q0 161 -61 247.5t-178 86.5z" />
    <glyph glyph-name="c" unicode="c" horiz-adv-x="1127" 
d="M583 861q-109 0 -167 -87.5t-58 -243.5q0 -146 58 -235.5t172 -89.5q79 0 130.5 52.5t67.5 150.5l276 -48q-44 -196 -165.5 -290.5t-322.5 -94.5q-163 0 -276.5 72.5t-170.5 198t-57 285.5q0 165 59 290t174 194.5t278 69.5q182 0 302 -84t164 -258l-275 -50
q-17 82 -65.5 125t-123.5 43z" />
    <glyph glyph-name="d" unicode="d" horiz-adv-x="1253" 
d="M1114 0h-262v129h-4q-60 -80 -138.5 -117t-179.5 -37q-133 0 -237.5 69t-163.5 197t-59 300q0 162 57 285.5t161 191t240 67.5q93 0 170.5 -35.5t131.5 -101.5h3v518h281v-1466zM598 861q-114 0 -177 -89.5t-63 -244.5q0 -104 28.5 -177.5t81 -112t123.5 -38.5
q119 0 181.5 86t62.5 247q0 98 -30 172.5t-84 115.5t-123 41z" />
    <glyph glyph-name="e" unicode="e" horiz-adv-x="1171" 
d="M581 190q89 0 146.5 40.5t79.5 107.5l280 -44q-56 -155 -182 -237t-309 -82q-172 0 -290 68t-177 191.5t-59 289.5q0 153 61.5 281t179.5 204t281 76q155 0 269.5 -65.5t177.5 -192t63 -305.5v-86h-746q10 -118 69 -182t156 -64zM357 641h465q-10 111 -70 170t-159 59
q-94 0 -159 -60.5t-77 -168.5z" />
    <glyph glyph-name="f" unicode="f" 
d="M573 1276q-42 0 -66 -14t-35 -48t-11 -96v-57h205v-223h-205v-838h-281v838h-155v223h155v65q0 108 25.5 186.5t101 128.5t217.5 50q52 0 122.5 -10t111.5 -21l-53 -209q-34 12 -70 18.5t-62 6.5z" />
    <glyph glyph-name="g" unicode="g" horiz-adv-x="1253" 
d="M1114 1061v-964q0 -189 -56 -305t-171.5 -169t-298.5 -53q-449 0 -482 360l291 -47q10 -51 57.5 -74.5t144.5 -23.5q115 0 176.5 59t61.5 189v111h-4q-42 -63 -125 -103.5t-183 -40.5q-134 0 -237.5 68.5t-160.5 191t-57 278.5q0 172 55 295t157.5 187.5t240.5 64.5
q106 0 190 -39.5t135 -113.5h4v129h262zM585 861q-72 0 -123 -38.5t-77.5 -108.5t-26.5 -162q0 -98 28 -174.5t80.5 -119.5t123.5 -43q73 0 128.5 42t86 117t30.5 173q0 90 -30.5 161.5t-87 112t-132.5 40.5z" />
    <glyph glyph-name="h" unicode="h" horiz-adv-x="1219" 
d="M724 1085q175 0 268 -93.5t93 -262.5v-729h-281v663q0 102 -38 154.5t-127 52.5q-32 0 -68.5 -12t-62.5 -35q-31 -26 -49.5 -54t-28.5 -71.5t-10 -109.5v-588h-281v1466h281v-522q57 71 138.5 106t165.5 35z" />
    <glyph glyph-name="i" unicode="i" horiz-adv-x="559" 
d="M139 1206v260h281v-260h-281zM139 0v1061h281v-1061h-281z" />
    <glyph glyph-name="j" unicode="j" horiz-adv-x="562" 
d="M142 1206v260h281v-260h-281zM104 -430q-44 0 -98 9t-99 22l45 225q42 -8 74 -8q47 0 72 17t34.5 50t9.5 87v1089h281v-1087q0 -150 -36.5 -239t-106.5 -127t-176 -38z" />
    <glyph glyph-name="k" unicode="k" horiz-adv-x="1142" 
d="M755 1061h341l-363 -387l387 -674h-318l-260 479l-122 -129v-350h-281v1466h281v-778z" />
    <glyph glyph-name="l" unicode="l" horiz-adv-x="559" 
d="M139 0v1466h281v-1466h-281z" />
    <glyph glyph-name="m" unicode="m" horiz-adv-x="1800" 
d="M1327 1085q166 0 252.5 -94.5t86.5 -299.5v-691h-281v686q0 88 -35 136t-107 48q-60 0 -105 -34.5t-70 -99.5t-25 -156v-580h-281v671q0 94 -31 146.5t-107 52.5q-204 0 -204 -290v-580h-281v1061h262v-135h2q61 80 138 119.5t180 39.5q200 0 291 -167q67 85 145.5 126
t169.5 41z" />
    <glyph glyph-name="n" unicode="n" horiz-adv-x="1219" 
d="M804 663q0 102 -38 154.5t-127 52.5q-97 0 -158.5 -69.5t-60.5 -212.5v-588h-281v1061h262v-139q57 80 140 121.5t183 41.5q175 0 268 -93.5t93 -262.5v-729h-281v663z" />
    <glyph glyph-name="o" unicode="o" horiz-adv-x="1212" 
d="M70 537q0 156 64 281t185 196t285 71q167 0 289 -71.5t185.5 -196t63.5 -282.5q0 -164 -64 -290.5t-185 -198t-287 -71.5t-287 71.5t-185 198.5t-64 292zM603 856q-70 0 -125.5 -39t-87.5 -113t-32 -174q0 -99 30 -172.5t85.5 -113t130.5 -39.5t131.5 39t87.5 113t31 175
q0 97 -30 170t-86.5 113.5t-134.5 40.5z" />
    <glyph glyph-name="p" unicode="p" horiz-adv-x="1253" 
d="M425 114h-5v-520h-281v1467h262v-156h5q55 92 142.5 136t187.5 44q128 0 229.5 -69.5t159.5 -197.5t58 -298q0 -168 -57 -291.5t-158.5 -188.5t-234.5 -65q-103 0 -171.5 30t-136.5 109zM668 861q-109 0 -179.5 -84.5t-70.5 -269.5q0 -95 29.5 -164.5t83.5 -106.5
t127 -37q116 0 176.5 85.5t60.5 248.5q0 155 -60.5 241.5t-166.5 86.5z" />
    <glyph glyph-name="q" unicode="q" horiz-adv-x="1253" 
d="M852 1061h262v-1467h-281v523h-4q-63 -73 -139.5 -107.5t-169.5 -34.5q-131 0 -233 65t-159.5 188.5t-57.5 291.5q0 170 58 298t160 197.5t230 69.5q95 0 179.5 -43.5t149.5 -135.5l1 -1h4v156zM583 862q-68 0 -118.5 -39t-78.5 -113t-28 -177q0 -163 60.5 -253
t175.5 -90q73 0 127.5 38t84 109.5t29.5 169.5q0 123 -33.5 202.5t-90 116t-128.5 36.5z" />
    <glyph glyph-name="r" unicode="r" horiz-adv-x="856" 
d="M639 831q-107 0 -163 -86t-56 -244v-501h-281v1061h260v-150h4q56 93 119 133.5t152 40.5q54 0 98.5 -12.5t87.5 -34.5l-90 -250q-22 15 -61.5 29t-69.5 14z" />
    <glyph glyph-name="s" unicode="s" horiz-adv-x="1049" 
d="M511 885q-67 0 -108 -23.5t-41 -64.5q0 -31 19.5 -52.5t69 -39t138.5 -32.5q202 -34 298 -114.5t96 -226.5q0 -102 -54 -183.5t-155.5 -127.5t-238.5 -46q-209 0 -329 83.5t-145 244.5l263 42q18 -84 68 -126.5t143 -42.5q80 0 128 30t48 83q0 29 -16 49.5t-59 36.5
t-123 28q-221 34 -321 124t-100 240q0 97 51 169t146.5 110.5t226.5 38.5q186 0 300 -74t138 -210l-268 -39q-12 59 -58.5 91t-116.5 32z" />
    <glyph glyph-name="t" unicode="t" horiz-adv-x="713" 
d="M649 1061v-223h-198v-517q0 -46 6.5 -69.5t23 -33t49.5 -9.5q52 0 111 16l35 -217q-46 -15 -102 -24t-113 -9q-112 0 -175 31t-89.5 101.5t-26.5 194.5v536h-150v223h150v194l281 199v-393h198z" />
    <glyph glyph-name="u" unicode="u" horiz-adv-x="1219" 
d="M581 190q52 0 101.5 24.5t83 87.5t33.5 169v590h281v-1061h-262v139q-56 -79 -139.5 -121.5t-182.5 -42.5q-177 0 -269.5 94t-92.5 264v728h281v-663q0 -106 40 -157t126 -51z" />
    <glyph glyph-name="v" unicode="v" horiz-adv-x="1124" 
d="M561 341l4 -1q34 110 58 180l192 541h289l-412 -1061h-254l-418 1061h295l191 -542q31 -89 55 -178z" />
    <glyph glyph-name="w" unicode="w" horiz-adv-x="1611" 
d="M470 427q14 -61 19 -80h4q25 121 44 198l133 516h272l131 -524q22 -86 40 -190h4q17 83 46 189l143 525h281l-330 -1061h-270l-142 539q-23 86 -38 175h-4q-15 -87 -38 -175l-141 -539h-272l-328 1061h281l137 -518q11 -42 28 -116z" />
    <glyph glyph-name="x" unicode="x" horiz-adv-x="1126" 
d="M554 755h4q73 129 93 161l94 145h324l-345 -502l378 -559h-339l-129 206q-51 82 -76 139h-4q-25 -58 -80 -144l-127 -201h-323l368 547l-351 514h339l87 -144q35 -58 87 -162z" />
    <glyph glyph-name="y" unicode="y" horiz-adv-x="1139" 
d="M569 307h4q31 110 42 143l204 611h291l-408 -1092q-94 -249 -181 -323q-89 -76 -250 -76q-73 0 -193 27l47 215q62 -19 99 -19q51 0 83.5 16t59.5 59.5t57 129.5l-406 1063h299l207 -604q19 -54 45 -150z" />
    <glyph glyph-name="z" unicode="z" horiz-adv-x="1030" 
d="M419 248h567v-248h-948v219l535 608h-496v234h876v-199z" />
    <glyph glyph-name="braceleft" unicode="{" horiz-adv-x="797" 
d="M533 134v-99q0 -100 11 -146t43.5 -64.5t104.5 -18.5h49v-236h-61q-154 0 -242 39.5t-126.5 128.5t-38.5 244v141q0 102 -21.5 164.5t-68.5 92t-127 29.5v244q78 0 125.5 29t69.5 91.5t22 165.5v140q0 155 38.5 244t126.5 128.5t242 39.5h61v-236h-49q-72 0 -104.5 -18.5
t-43.5 -64.5t-11 -146v-98q0 -113 -15.5 -184t-59.5 -122.5t-129 -90.5q85 -39 129 -90.5t59.5 -122.5t15.5 -184z" />
    <glyph glyph-name="bar" unicode="|" horiz-adv-x="575" 
d="M176 -403v1869h223v-1869h-223z" />
    <glyph glyph-name="braceright" unicode="}" horiz-adv-x="797" 
d="M264 928v98q0 100 -11 146t-43.5 64.5t-104.5 18.5h-49v236h61q154 0 242 -39.5t126.5 -128.5t38.5 -244v-140q0 -103 22 -165.5t69.5 -91.5t125.5 -29v-244q-80 0 -127 -29.5t-68.5 -92t-21.5 -164.5v-141q0 -155 -38.5 -244t-126.5 -128.5t-242 -39.5h-61v236h49
q72 0 104.5 18.5t43.5 64.5t11 146v99q0 113 15.5 184t59.5 122.5t129 90.5q-85 39 -129 90.5t-59.5 122.5t-15.5 184z" />
    <glyph glyph-name="asciitilde" unicode="~" horiz-adv-x="1196" 
d="M822 526q-103 0 -241 68q-139 68 -231 68q-70 0 -135 -34.5t-129 -105.5v260q61 69 129.5 103.5t158.5 34.5q111 0 262 -68q153 -68 214 -68q49 0 117 32.5t143 111.5v-269q-15 -21 -61.5 -53t-107.5 -56t-119 -24z" />
    <glyph glyph-name="uni007F" horiz-adv-x="0" 
 />
    <glyph glyph-name="uni00A0" unicode="&#xa0;" horiz-adv-x="512" 
 />
    <glyph glyph-name="exclamdown" unicode="&#xa1;" 
d="M485 1061v-288h-288v288h288zM260 682h162l72 -743v-345h-306v345z" />
    <glyph glyph-name="cent" unicode="&#xa2;" horiz-adv-x="1163" 
d="M75 531q0 165 59 290t174 194.5t278 69.5q43 0 97 -7l114 378l121 -34l-114 -377q98 -40 165.5 -116.5t96.5 -185.5l-275 -50q-14 69 -59 114l-181 -599q20 -3 42 -3q79 0 130.5 52.5t67.5 150.5l276 -48q-44 -196 -165.5 -290.5t-322.5 -94.5q-43 0 -96 7l-116 -385
l-121 34l116 385q-140 60 -213.5 196.5t-73.5 318.5zM439 271l178 589q-8 1 -24 1q-110 0 -170 -88t-60 -243q0 -83 19 -149.5t57 -109.5z" />
    <glyph glyph-name="sterling" unicode="&#xa3;" horiz-adv-x="1163" 
d="M616 1239q-54 0 -96 -23.5t-65 -64.5t-23 -91q0 -41 13.5 -107t36.5 -133h310v-204h-265q4 -32 4 -57q0 -83 -43 -160.5t-114 -140.5l4 -4q47 29 137 29q25 0 62.5 -7t102.5 -22q112 -25 143 -25q80 0 204 56l110 -237q-68 -35 -141 -54t-137 -19q-92 0 -237 43t-225 43
q-63 0 -123 -20.5t-125 -65.5l-107 242l2 1q205 149 205 335q0 33 -6 63h-201v204h152q-19 50 -31 119.5t-12 124.5q0 109 53.5 202.5t157 150t247.5 56.5q205 0 325 -99.5t147 -287.5l-271 -39q-18 100 -66.5 146t-127.5 46z" />
    <glyph glyph-name="currency" unicode="&#xa4;" horiz-adv-x="1163" 
d="M581 1171q62 0 117.5 -14t99.5 -43l136 135l167 -170l-133 -133q58 -109 58 -217q0 -113 -58 -219l133 -133l-165 -170l-138 135q-46 -27 -101 -42t-116 -15q-113 0 -215 55l-131 -131l-170 170l131 131q-57 104 -57 218q0 116 52 213l1 1l-131 129l166 178l135 -135
q97 57 219 57zM580 930q-52 0 -98 -27.5t-73.5 -74t-27.5 -99.5t27 -100t73 -75t100 -28t100.5 28t74.5 74.5t28 100.5t-28.5 100.5t-75.5 73.5t-100 27z" />
    <glyph glyph-name="yen" unicode="&#xa5;" horiz-adv-x="1163" 
d="M78 622v155h300l-360 669h307l200 -404q21 -44 33.5 -76t18.5 -67h4q14 64 54 143l202 404h307l-365 -669h305v-155h-366v-135h366v-155h-366v-332h-280v332h-360v155h360v135h-360z" />
    <glyph glyph-name="brokenbar" unicode="&#xa6;" horiz-adv-x="575" 
d="M176 700v766h223v-766h-223zM176 -403v765h223v-765h-223z" />
    <glyph glyph-name="section" unicode="&#xa7;" horiz-adv-x="1139" 
d="M569 1276q-57 0 -91 -28t-34 -73q0 -40 23 -71t75 -64q78 -49 253 -166q101 -68 159.5 -125.5t85.5 -120t27 -143.5q0 -96 -47 -176t-135 -137q111 -104 111 -256q0 -98 -51.5 -177t-149 -124t-229.5 -45q-128 0 -227.5 43.5t-160.5 125t-76 193.5l276 34
q18 -88 68 -134.5t128 -46.5q61 0 99.5 32t38.5 85q0 29 -13 54t-46 55q-27 24 -75.5 57t-144.5 93q-159 100 -236 171t-101 131.5t-24 145.5q0 103 51.5 186.5t134.5 137.5q-98 95 -98 236q0 92 48.5 165t139.5 115t215 42q193 0 300 -86.5t132 -249.5l-276 -34
q-6 71 -43 113t-107 42zM811 448q0 39 -20.5 72.5t-80.5 75.5l-291 206q-41 -25 -66 -62t-25 -75q0 -36 11 -65t43.5 -64t95.5 -78l245 -157q43 31 65.5 69.5t22.5 77.5z" />
    <glyph glyph-name="dieresis" unicode="&#xa8;" 
d="M4 1225v241h242v-241h-242zM436 1225v241h242v-241h-242z" />
    <glyph glyph-name="copyright" unicode="&#xa9;" horiz-adv-x="1614" 
d="M807 1492q209 0 385 -103.5t279 -279.5t103 -385t-103 -384.5t-279 -278.5t-385 -103t-385 103t-279 278.5t-103 384.5t103 385t279 279.5t385 103.5zM807 108q168 0 309.5 83t224.5 224.5t83 309.5t-83 309.5t-224.5 224.5t-309.5 83t-309.5 -83t-224.5 -224.5
t-83 -309.5t83 -309.5t224.5 -224.5t309.5 -83zM813 1023q-100 0 -153.5 -76t-53.5 -208q0 -136 55 -209.5t152 -73.5q64 0 107 38.5t71 128.5l162 -51q-36 -124 -123.5 -192t-212.5 -68q-110 0 -198 49.5t-138.5 145t-50.5 227.5q0 129 46.5 227t132.5 151.5t200 53.5
q130 0 217.5 -60t126.5 -181l-162 -45q-22 69 -67.5 106t-110.5 37z" />
    <glyph glyph-name="ordfeminine" unicode="&#xaa;" horiz-adv-x="794" 
d="M740 758h-202q-10 19 -15.5 46t-6.5 33q-51 -48 -109 -73t-130 -25q-63 0 -113 28t-78 75.5t-28 103.5q0 69 20.5 113.5t69.5 72.5t137 43q137 23 208 52q0 56 -26.5 82t-79.5 26q-55 0 -83.5 -20t-39.5 -59l-188 34q22 97 98 149t210 52q163 0 239 -68t76 -221v-237
q0 -78 10.5 -126t30.5 -81zM367 1064q-50 -9 -76.5 -34.5t-26.5 -59.5q0 -38 23.5 -62t56.5 -24q37 0 60.5 11t46.5 32q22 21 32 47t10 71v56q-27 -18 -126 -37z" />
    <glyph glyph-name="guillemotleft" unicode="&#xab;" horiz-adv-x="1104" 
d="M624 70h-221l-315 460l-2 1l317 452h221l-260 -451zM1044 70h-222l-315 462l315 451h222l-260 -451z" />
    <glyph glyph-name="logicalnot" unicode="&#xac;" horiz-adv-x="1196" 
d="M836 373v438h-750v264h1014v-702h-264z" />
    <glyph glyph-name="uni00AD" unicode="&#xad;" horiz-adv-x="741" 
d="M95 391v281h551v-281h-551z" />
    <glyph glyph-name="registered" unicode="&#xae;" horiz-adv-x="1614" 
d="M807 1492q209 0 385 -103.5t279 -279.5t103 -385t-103 -384.5t-279 -278.5t-385 -103t-385 103t-279 278.5t-103 384.5t103 385t279 279.5t385 103.5zM807 108q168 0 309.5 83t224.5 224.5t83 309.5t-83 309.5t-224.5 224.5t-309.5 83t-309.5 -83t-224.5 -224.5
t-83 -309.5t83 -309.5t224.5 -224.5t309.5 -83zM1128 911q0 -87 -58.5 -151t-160.5 -80q43 -17 70.5 -42.5t55.5 -71.5l143 -241h-198l-97 182q-31 58 -57 90t-59.5 47t-83.5 15h-46v-334h-168v813h368q147 0 219 -56t72 -171zM952 901q0 54 -37 81t-117 27h-161v-221h163
q152 0 152 113z" />
    <glyph glyph-name="macron" unicode="&#xaf;" horiz-adv-x="1024" 
d="M-12 1621v102h1048v-102h-1048z" />
    <glyph glyph-name="degree" unicode="&#xb0;" horiz-adv-x="820" 
d="M410 1473q86 0 159 -43t116 -116t43 -159t-43 -159.5t-116 -116t-159 -42.5t-159 42.5t-116 116t-43 159.5t43 159t116 116t159 43zM410 1001q42 0 77.5 20.5t56 56t20.5 77.5t-20.5 77.5t-56 56t-77.5 20.5t-77.5 -20.5t-56 -56t-20.5 -77.5t20.5 -77.5t56 -56
t77.5 -20.5z" />
    <glyph glyph-name="plusminus" unicode="&#xb1;" horiz-adv-x="1196" 
d="M1110 999v-262h-381v-383h-262v383h-381v262h381v381h262v-381h381zM86 0v262h1024v-262h-1024z" />
    <glyph glyph-name="uni00B2" unicode="&#xb2;" 
d="M25 705q8 72 34.5 131t79.5 115.5t142 118.5q86 59 118 95.5t32 69.5q0 88 -93 88q-47 0 -74 -29t-31 -85v-1l-188 16q28 242 301 242q91 0 154 -29.5t94.5 -81t31.5 -116.5q0 -79 -45 -140.5t-126 -112.5q-113 -72 -151 -123h327v-158h-606z" />
    <glyph glyph-name="uni00B3" unicode="&#xb3;" 
d="M636 929q0 -71 -36 -126.5t-104 -86.5t-159 -31q-125 0 -201.5 60.5t-91.5 170.5l184 19q0 -49 29 -78t79 -29t77.5 30t27.5 79q0 46 -26.5 74t-89.5 28q-36 0 -65 -6l19 137q76 0 107 21.5t31 62.5q0 35 -22 52t-61 17q-86 0 -100 -100l-173 25q22 104 88.5 161
t191.5 57t194.5 -56t69.5 -152q0 -92 -96 -145q127 -47 127 -184z" />
    <glyph glyph-name="acute" unicode="&#xb4;" 
d="M186 1196l140 295h313l-274 -295h-179z" />
    <glyph glyph-name="mu" unicode="&#xb5;" horiz-adv-x="1247" 
d="M619 199q95 0 151.5 65t56.5 187v610h281v-1061h-262v129q-87 -154 -215 -154q-72 0 -121.5 34t-89.5 120v-532h-281v1464h281v-601q0 -127 51.5 -194t147.5 -67z" />
    <glyph glyph-name="paragraph" unicode="&#xb6;" horiz-adv-x="1139" 
d="M1013 1236v-1639h-238v1639h-149v-1639h-238v1046q-168 15 -258 122t-90 288q0 156 53 246.5t154.5 128.5t258.5 38h619v-230h-112z" />
    <glyph glyph-name="periodcentered" unicode="&#xb7;" horiz-adv-x="568" 
d="M140 575v288h288v-288h-288z" />
    <glyph glyph-name="cedilla" unicode="&#xb8;" 
d="M200 -292q75 0 111 13.5t36 44.5q0 27 -22 40.5t-55 13.5q-31 0 -61 -7l51 210h140l-26 -108q106 -8 158 -46.5t52 -112.5q0 -53 -38.5 -95t-117.5 -66.5t-195 -24.5q-29 0 -76.5 3.5t-81.5 7.5l14 135q58 -8 111 -8z" />
    <glyph glyph-name="uni00B9" unicode="&#xb9;" 
d="M305 705v522q-50 -40 -105.5 -66t-109.5 -37v153q91 24 159 74.5t93 114.5h154v-761h-191z" />
    <glyph glyph-name="ordmasculine" unicode="&#xba;" horiz-adv-x="851" 
d="M58 1116q0 112 44.5 197t127 131.5t194.5 46.5q110 0 194 -46.5t129.5 -131.5t45.5 -197q0 -114 -44.5 -199t-128 -131.5t-196.5 -46.5q-112 0 -194.5 46t-127 131.5t-44.5 199.5zM421 1323q-71 0 -111 -58t-40 -153t40 -150t112 -55q74 0 116.5 56.5t42.5 149.5
q0 99 -41 154.5t-119 55.5z" />
    <glyph glyph-name="guillemotright" unicode="&#xbb;" horiz-adv-x="1103" 
d="M282 70h-222l261 450l-261 463h222l315 -463zM702 70h-222l260 450l-260 463h222l315 -463z" />
    <glyph glyph-name="onequarter" unicode="&#xbc;" horiz-adv-x="1622" 
d="M305 705v522q-50 -40 -105.5 -66t-109.5 -37v153q91 24 159 74.5t93 114.5h154v-761h-191zM318 -25l868 1498h158l-868 -1498h-158zM1595 281v-146h-105v-135h-184v135h-346v141l371 485h159v-480h105zM1306 508l-178 -227h178v227z" />
    <glyph glyph-name="onehalf" unicode="&#xbd;" horiz-adv-x="1622" 
d="M305 705v522q-50 -40 -105.5 -66t-109.5 -37v153q91 24 159 74.5t93 114.5h154v-761h-191zM288 -25l868 1498h158l-868 -1498h-158zM965 0q8 72 34.5 131t79.5 115.5t142 118.5q86 59 118 95.5t32 69.5q0 88 -93 88q-47 0 -74 -29t-31 -85v-1l-188 16q28 242 301 242
q91 0 154 -29.5t94.5 -81t31.5 -116.5q0 -79 -45 -140.5t-126 -112.5q-113 -72 -151 -123h327v-158h-606z" />
    <glyph glyph-name="threequarters" unicode="&#xbe;" horiz-adv-x="1622" 
d="M636 929q0 -71 -36 -126.5t-104 -86.5t-159 -31q-125 0 -201.5 60.5t-91.5 170.5l184 19q0 -49 29 -78t79 -29t77.5 30t27.5 79q0 46 -26.5 74t-89.5 28q-36 0 -65 -6l19 137q76 0 107 21.5t31 62.5q0 35 -22 52t-61 17q-86 0 -100 -100l-173 25q22 104 88.5 161
t191.5 57t194.5 -56t69.5 -152q0 -92 -96 -145q127 -47 127 -184zM348 -25l868 1498h158l-868 -1498h-158zM1595 281v-146h-105v-135h-184v135h-346v141l371 485h159v-480h105zM1306 508l-178 -227h178v227z" />
    <glyph glyph-name="questiondown" unicode="&#xbf;" horiz-adv-x="1115" 
d="M736 1061v-288h-288v288h288zM720 647q0 -131 -14 -183q-17 -64 -61.5 -131t-115.5 -123q-83 -65 -119.5 -117.5t-36.5 -103.5q0 -59 25.5 -102t69 -65t94.5 -22q90 0 145.5 59.5t73.5 176.5l262 -32q-11 -134 -73.5 -232t-166 -150t-235.5 -52q-135 0 -243.5 52
t-170.5 148.5t-62 224.5q0 71 20.5 126t71.5 114t149 141q61 51 88 88t35 76t8 110v32h256v-35z" />
    <glyph glyph-name="Agrave" unicode="&#xc0;" horiz-adv-x="1460" 
d="M1133 0l-127 332h-566l-121 -332h-315l571 1466h293l588 -1466h-323zM651 911l-121 -331h381l-123 331q-24 64 -42.5 131t-24.5 109h-8q-18 -120 -62 -240zM699 1567l-259 295h328l125 -295h-194z" />
    <glyph glyph-name="Aacute" unicode="&#xc1;" horiz-adv-x="1460" 
d="M1133 0l-127 332h-566l-121 -332h-315l571 1466h293l588 -1466h-323zM651 911l-121 -331h381l-123 331q-24 64 -42.5 131t-24.5 109h-8q-18 -120 -62 -240zM561 1567l125 295h328l-259 -295h-194z" />
    <glyph glyph-name="Acircumflex" unicode="&#xc2;" horiz-adv-x="1460" 
d="M1133 0l-127 332h-566l-121 -332h-315l571 1466h293l588 -1466h-323zM651 911l-121 -331h381l-123 331q-24 64 -42.5 131t-24.5 109h-8q-18 -120 -62 -240zM834 1567l-114 140l-114 -140h-235l220 295h258l220 -295h-235z" />
    <glyph glyph-name="Atilde" unicode="&#xc3;" horiz-adv-x="1460" 
d="M1133 0l-127 332h-566l-121 -332h-315l571 1466h293l588 -1466h-323zM651 911l-121 -331h381l-123 331q-24 64 -42.5 131t-24.5 109h-8q-18 -120 -62 -240zM869 1588q-41 0 -80 11.5t-86 32.5q-38 17 -63.5 25t-46.5 8q-31 0 -46 -20.5t-15 -65.5v-2h-154v5
q0 131 51.5 203t151.5 72q39 0 73 -10.5t74 -30.5q41 -19 68 -27.5t58 -8.5q28 0 46 22t18 65h154q0 -138 -51.5 -208.5t-151.5 -70.5z" />
    <glyph glyph-name="Adieresis" unicode="&#xc4;" horiz-adv-x="1460" 
d="M1133 0l-127 332h-566l-121 -332h-315l571 1466h293l588 -1466h-323zM651 911l-121 -331h381l-123 331q-24 64 -42.5 131t-24.5 109h-8q-18 -120 -62 -240zM376 1596v251h252v-251h-252zM806 1596v251h252v-251h-252z" />
    <glyph glyph-name="Aring" unicode="&#xc5;" horiz-adv-x="1460" 
d="M523 1594q0 57 26.5 101.5t71.5 69.5t99 25q53 0 97.5 -25t71 -69.5t26.5 -101.5q0 -74 -48 -128h1l588 -1466h-323l-127 332h-566l-121 -332h-315l569 1462q-24 26 -37 60t-13 72zM719 1684q-40 0 -64.5 -25.5t-24.5 -64.5t24.5 -63.5t65.5 -24.5q39 0 63.5 24t24.5 64
q0 38 -24.5 64t-64.5 26zM651 921l-121 -341h381l-123 341q-23 63 -42 135t-25 115h-8q-20 -130 -62 -250z" />
    <glyph glyph-name="AE" unicode="&#xc6;" horiz-adv-x="2069" 
d="M1265 1218v-335h616v-248h-616v-387h706v-248h-996v332h-513l-146 -332h-328l684 1466h1264v-248h-671zM977 580v648h-125l-284 -648h409z" />
    <glyph glyph-name="Ccedilla" unicode="&#xc7;" horiz-adv-x="1485" 
d="M600 -292q72 0 109.5 13.5t37.5 44.5q0 27 -22 40.5t-55 13.5q-31 0 -61 -7l41 171q-178 25 -304 123t-192 260t-66 378q0 229 83.5 397.5t238.5 258.5t364 90q240 0 395 -108.5t217 -321.5l-292 -70q-73 246 -324 246q-121 0 -206 -64t-128 -176.5t-43 -257.5
q0 -155 44 -270t128 -177.5t201 -62.5q82 0 152 36t119.5 103t72.5 158l293 -69q-34 -142 -116.5 -249.5t-209.5 -168.5t-289 -63l-14 -61q106 -8 158 -46.5t52 -112.5q0 -53 -38.5 -95t-117.5 -66.5t-195 -24.5q-29 0 -76.5 3.5t-81.5 7.5l14 135q58 -8 111 -8z" />
    <glyph glyph-name="Egrave" unicode="&#xc8;" horiz-adv-x="1253" 
d="M449 1218v-335h616v-248h-616v-387h706v-248h-1001v1466h966v-248h-671zM600 1567l-259 295h328l125 -295h-194z" />
    <glyph glyph-name="Eacute" unicode="&#xc9;" horiz-adv-x="1253" 
d="M449 1218v-335h616v-248h-616v-387h706v-248h-1001v1466h966v-248h-671zM486 1567l125 295h328l-259 -295h-194z" />
    <glyph glyph-name="Ecircumflex" unicode="&#xca;" horiz-adv-x="1253" 
d="M449 1218v-335h616v-248h-616v-387h706v-248h-1001v1466h966v-248h-671zM753 1567l-114 140l-114 -140h-235l220 295h258l220 -295h-235z" />
    <glyph glyph-name="Edieresis" unicode="&#xcb;" horiz-adv-x="1253" 
d="M449 1218v-335h616v-248h-616v-387h706v-248h-1001v1466h966v-248h-671zM310 1596v251h252v-251h-252zM740 1596v251h252v-251h-252z" />
    <glyph glyph-name="Igrave" unicode="&#xcc;" horiz-adv-x="603" 
d="M154 0v1466h295v-1466h-295zM264 1567l-259 295h328l125 -295h-194z" />
    <glyph glyph-name="Iacute" unicode="&#xcd;" horiz-adv-x="603" 
d="M154 0v1466h295v-1466h-295zM149 1567l125 295h328l-259 -295h-194z" />
    <glyph glyph-name="Icircumflex" unicode="&#xce;" horiz-adv-x="603" 
d="M154 0v1466h295v-1466h-295zM417 1567l-114 140l-114 -140h-235l220 295h258l220 -295h-235z" />
    <glyph glyph-name="Idieresis" unicode="&#xcf;" horiz-adv-x="603" 
d="M154 0v1466h295v-1466h-295zM-39 1596v251h252v-251h-252zM391 1596v251h252v-251h-252z" />
    <glyph glyph-name="Eth" unicode="&#xd0;" horiz-adv-x="1471" 
d="M1383 722q0 -336 -160.5 -529t-495.5 -193h-573v629h-152v205h152v632h576q653 0 653 -744zM1077 731q0 181 -41 287t-126.5 153t-227.5 47h-233v-384h313v-205h-313v-381h237q147 0 231.5 45.5t122 150t37.5 287.5z" />
    <glyph glyph-name="Ntilde" unicode="&#xd1;" horiz-adv-x="1469" 
d="M1040 1466h275v-1466h-297l-589 956v-956h-275v1466h287l599 -979v979zM882 1588q-41 0 -80 11.5t-86 32.5q-38 17 -63.5 25t-46.5 8q-31 0 -46 -20.5t-15 -65.5v-2h-154v5q0 131 51.5 203t151.5 72q39 0 73 -10.5t74 -30.5q41 -19 68 -27.5t58 -8.5q28 0 46 22t18 65
h154q0 -138 -51.5 -208.5t-151.5 -70.5z" />
    <glyph glyph-name="Ograve" unicode="&#xd2;" horiz-adv-x="1608" 
d="M88 725q0 232 87.5 404.5t249.5 267t378 94.5q217 0 379 -94t250 -266t88 -400q0 -222 -86.5 -393.5t-247.5 -267t-379 -95.5t-381 94.5t-250.5 265t-87.5 390.5zM803 1237q-126 0 -218.5 -64.5t-141.5 -178.5t-49 -261t48 -261t141 -178.5t222 -64.5q127 0 219.5 64
t141 179t48.5 265q0 144 -48.5 257.5t-141 178t-221.5 64.5zM759 1567l-259 295h328l125 -295h-194z" />
    <glyph glyph-name="Oacute" unicode="&#xd3;" horiz-adv-x="1608" 
d="M88 725q0 232 87.5 404.5t249.5 267t378 94.5q217 0 379 -94t250 -266t88 -400q0 -222 -86.5 -393.5t-247.5 -267t-379 -95.5t-381 94.5t-250.5 265t-87.5 390.5zM803 1237q-126 0 -218.5 -64.5t-141.5 -178.5t-49 -261t48 -261t141 -178.5t222 -64.5q127 0 219.5 64
t141 179t48.5 265q0 144 -48.5 257.5t-141 178t-221.5 64.5zM645 1567l125 295h328l-259 -295h-194z" />
    <glyph glyph-name="Ocircumflex" unicode="&#xd4;" horiz-adv-x="1608" 
d="M88 725q0 232 87.5 404.5t249.5 267t378 94.5q217 0 379 -94t250 -266t88 -400q0 -222 -86.5 -393.5t-247.5 -267t-379 -95.5t-381 94.5t-250.5 265t-87.5 390.5zM803 1237q-126 0 -218.5 -64.5t-141.5 -178.5t-49 -261t48 -261t141 -178.5t222 -64.5q127 0 219.5 64
t141 179t48.5 265q0 144 -48.5 257.5t-141 178t-221.5 64.5zM912 1567l-114 140l-114 -140h-235l220 295h258l220 -295h-235z" />
    <glyph glyph-name="Otilde" unicode="&#xd5;" horiz-adv-x="1608" 
d="M88 725q0 232 87.5 404.5t249.5 267t378 94.5q217 0 379 -94t250 -266t88 -400q0 -222 -86.5 -393.5t-247.5 -267t-379 -95.5t-381 94.5t-250.5 265t-87.5 390.5zM803 1237q-126 0 -218.5 -64.5t-141.5 -178.5t-49 -261t48 -261t141 -178.5t222 -64.5q127 0 219.5 64
t141 179t48.5 265q0 144 -48.5 257.5t-141 178t-221.5 64.5zM950 1588q-41 0 -80 11.5t-86 32.5q-38 17 -63.5 25t-46.5 8q-31 0 -46 -20.5t-15 -65.5v-2h-154v5q0 131 51.5 203t151.5 72q39 0 73 -10.5t74 -30.5q41 -19 68 -27.5t58 -8.5q28 0 46 22t18 65h154
q0 -138 -51.5 -208.5t-151.5 -70.5z" />
    <glyph glyph-name="Odieresis" unicode="&#xd6;" horiz-adv-x="1608" 
d="M88 725q0 232 87.5 404.5t249.5 267t378 94.5q217 0 379 -94t250 -266t88 -400q0 -222 -86.5 -393.5t-247.5 -267t-379 -95.5t-381 94.5t-250.5 265t-87.5 390.5zM803 1237q-126 0 -218.5 -64.5t-141.5 -178.5t-49 -261t48 -261t141 -178.5t222 -64.5q127 0 219.5 64
t141 179t48.5 265q0 144 -48.5 257.5t-141 178t-221.5 64.5zM455 1596v251h252v-251h-252zM885 1596v251h252v-251h-252z" />
    <glyph glyph-name="multiply" unicode="&#xd7;" horiz-adv-x="1196" 
d="M902 1210l180 -182l-301 -303l305 -303l-186 -186l-305 305l-301 -303l-182 182l303 301l-305 305l186 184l303 -303z" />
    <glyph glyph-name="Oslash" unicode="&#xd8;" horiz-adv-x="1608" 
d="M88 725q0 232 87.5 405.5t249.5 267t378 93.5q128 0 238.5 -34t198.5 -98l157 177l139 -123l-164 -185q72 -97 110 -223t38 -274q0 -222 -86.5 -393.5t-247.5 -267t-379 -95.5q-127 0 -236 33t-197 95l-169 -191l-139 123l174 197q-74 97 -113 222t-39 271zM446 463
l608 686q-104 88 -251 88q-126 0 -218.5 -64.5t-141.5 -178.5t-49 -261q0 -152 52 -270zM1165 995l-606 -684q99 -82 246 -82q127 0 219.5 64t141 179t48.5 265q0 143 -49 258z" />
    <glyph glyph-name="Ugrave" unicode="&#xd9;" horiz-adv-x="1462" 
d="M739 229q113 0 173.5 37t84.5 115.5t24 215.5v869h295v-862q0 -224 -54 -361t-178 -202.5t-338 -65.5q-225 0 -356.5 69t-187.5 205.5t-56 352.5v864h295v-873q0 -131 30.5 -210.5t95.5 -116.5t172 -37zM694 1567l-259 295h328l125 -295h-194z" />
    <glyph glyph-name="Uacute" unicode="&#xda;" horiz-adv-x="1462" 
d="M739 229q113 0 173.5 37t84.5 115.5t24 215.5v869h295v-862q0 -224 -54 -361t-178 -202.5t-338 -65.5q-225 0 -356.5 69t-187.5 205.5t-56 352.5v864h295v-873q0 -131 30.5 -210.5t95.5 -116.5t172 -37zM581 1567l125 295h328l-259 -295h-194z" />
    <glyph glyph-name="Ucircumflex" unicode="&#xdb;" horiz-adv-x="1462" 
d="M739 229q113 0 173.5 37t84.5 115.5t24 215.5v869h295v-862q0 -224 -54 -361t-178 -202.5t-338 -65.5q-225 0 -356.5 69t-187.5 205.5t-56 352.5v864h295v-873q0 -131 30.5 -210.5t95.5 -116.5t172 -37zM847 1567l-114 140l-114 -140h-235l220 295h258l220 -295h-235z
" />
    <glyph glyph-name="Udieresis" unicode="&#xdc;" horiz-adv-x="1462" 
d="M739 229q113 0 173.5 37t84.5 115.5t24 215.5v869h295v-862q0 -224 -54 -361t-178 -202.5t-338 -65.5q-225 0 -356.5 69t-187.5 205.5t-56 352.5v864h295v-873q0 -131 30.5 -210.5t95.5 -116.5t172 -37zM393 1596v251h252v-251h-252zM823 1596v251h252v-251h-252z" />
    <glyph glyph-name="Yacute" unicode="&#xdd;" horiz-adv-x="1340" 
d="M673 862h4q40 86 108 208l220 396h340l-528 -852v-614h-295v616l-527 850h346l224 -395q65 -114 108 -209zM517 1567l125 295h328l-259 -295h-194z" />
    <glyph glyph-name="Thorn" unicode="&#xde;" horiz-adv-x="1287" 
d="M672 1189q283 0 415 -114t132 -337q0 -237 -134 -350t-413 -113h-223v-275h-295v1466h295v-277h223zM913 733q0 100 -60 154t-186 54h-218v-418h218q133 0 189.5 53.5t56.5 156.5z" />
    <glyph glyph-name="germandbls" unicode="&#xdf;" horiz-adv-x="1246" 
d="M941 707q72 -69 120.5 -125t83.5 -125t35 -142q0 -103 -44.5 -180t-125 -118.5t-187.5 -41.5q-131 0 -208.5 43.5t-133.5 137.5l215 123q21 -40 47 -60t62 -20q37 0 62 26.5t25 64.5q0 37 -17 70t-44.5 64t-84.5 88q-44 42 -84 85q-101 106 -101 183q0 44 20.5 90
t69.5 115q39 55 53.5 90.5t14.5 74.5q0 55 -36.5 86t-96.5 31q-65 0 -101.5 -26t-50.5 -79t-14 -141v-1021h-281v1049q0 149 44.5 246t143.5 146.5t263 49.5q133 0 227 -40t142 -111.5t48 -165.5q0 -110 -77 -205q-78 -97 -78 -140q0 -22 21 -49.5t68 -72.5z" />
    <glyph glyph-name="agrave" unicode="&#xe0;" horiz-adv-x="1126" 
d="M1059 0h-277q-21 46 -34 117q-141 -142 -330 -142q-104 0 -183 40t-122 112.5t-43 165.5q0 141 92 224t284 113t270 58v20q0 93 -45.5 127.5t-134.5 34.5q-70 0 -117 -32t-71 -101l-256 39q42 160 156 234.5t305 74.5q155 0 252.5 -39.5t144.5 -125.5t47 -225v-433
q0 -76 11 -127t51 -135zM501 455q-150 -30 -150 -146q0 -65 37 -100t106 -35t127 35q40 24 59.5 50.5t27.5 71.5t8 126v51q-74 -27 -215 -53zM540 1196l-274 295h313l140 -295h-179z" />
    <glyph glyph-name="aacute" unicode="&#xe1;" horiz-adv-x="1126" 
d="M1059 0h-277q-21 46 -34 117q-141 -142 -330 -142q-104 0 -183 40t-122 112.5t-43 165.5q0 141 92 224t284 113t270 58v20q0 93 -45.5 127.5t-134.5 34.5q-70 0 -117 -32t-71 -101l-256 39q42 160 156 234.5t305 74.5q155 0 252.5 -39.5t144.5 -125.5t47 -225v-433
q0 -76 11 -127t51 -135zM501 455q-150 -30 -150 -146q0 -65 37 -100t106 -35t127 35q40 24 59.5 50.5t27.5 71.5t8 126v51q-74 -27 -215 -53zM414 1196l140 295h313l-274 -295h-179z" />
    <glyph glyph-name="acircumflex" unicode="&#xe2;" horiz-adv-x="1126" 
d="M1059 0h-277q-21 46 -34 117q-141 -142 -330 -142q-104 0 -183 40t-122 112.5t-43 165.5q0 141 92 224t284 113t270 58v20q0 93 -45.5 127.5t-134.5 34.5q-70 0 -117 -32t-71 -101l-256 39q42 160 156 234.5t305 74.5q155 0 252.5 -39.5t144.5 -125.5t47 -225v-433
q0 -76 11 -127t51 -135zM501 455q-150 -30 -150 -146q0 -65 37 -100t106 -35t127 35q40 24 59.5 50.5t27.5 71.5t8 126v51q-74 -27 -215 -53zM680 1196l-114 150l-114 -150h-225l210 295h258l210 -295h-225z" />
    <glyph glyph-name="atilde" unicode="&#xe3;" horiz-adv-x="1126" 
d="M1059 0h-277q-21 46 -34 117q-141 -142 -330 -142q-104 0 -183 40t-122 112.5t-43 165.5q0 141 92 224t284 113t270 58v20q0 93 -45.5 127.5t-134.5 34.5q-70 0 -117 -32t-71 -101l-256 39q42 160 156 234.5t305 74.5q155 0 252.5 -39.5t144.5 -125.5t47 -225v-433
q0 -76 11 -127t51 -135zM501 455q-150 -30 -150 -146q0 -65 37 -100t106 -35t127 35q40 24 59.5 50.5t27.5 71.5t8 126v51q-74 -27 -215 -53zM741 1217q-43 0 -81 11.5t-84 32.5q-38 17 -63.5 25t-47.5 8q-31 0 -46 -20.5t-15 -65.5v-2h-144v5q0 133 47 201.5t146 68.5
q41 0 74 -10.5t74 -30.5q39 -19 66.5 -27.5t58.5 -8.5q28 0 46 22t18 65h144q0 -139 -46.5 -206.5t-146.5 -67.5z" />
    <glyph glyph-name="adieresis" unicode="&#xe4;" horiz-adv-x="1126" 
d="M1059 0h-277q-21 46 -34 117q-141 -142 -330 -142q-104 0 -183 40t-122 112.5t-43 165.5q0 141 92 224t284 113t270 58v20q0 93 -45.5 127.5t-134.5 34.5q-70 0 -117 -32t-71 -101l-256 39q42 160 156 234.5t305 74.5q155 0 252.5 -39.5t144.5 -125.5t47 -225v-433
q0 -76 11 -127t51 -135zM501 455q-150 -30 -150 -146q0 -65 37 -100t106 -35t127 35q40 24 59.5 50.5t27.5 71.5t8 126v51q-74 -27 -215 -53zM229 1225v241h242v-241h-242zM661 1225v241h242v-241h-242z" />
    <glyph glyph-name="aring" unicode="&#xe5;" horiz-adv-x="1126" 
d="M1059 0h-277q-21 46 -34 117q-141 -142 -330 -142q-104 0 -183 40t-122 112.5t-43 165.5q0 141 92 224t284 113t270 58v20q0 93 -45.5 127.5t-134.5 34.5q-70 0 -117 -32t-71 -101l-256 39q42 160 156 234.5t305 74.5q155 0 252.5 -39.5t144.5 -125.5t47 -225v-433
q0 -76 11 -127t51 -135zM501 455q-150 -30 -150 -146q0 -65 37 -100t106 -35t127 35q40 24 59.5 50.5t27.5 71.5t8 126v51q-74 -27 -215 -53zM449 1219q-58 58 -58 137q0 82 57 139q58 57 140 57q81 0 138 -58q57 -57 57 -138q0 -79 -58 -137q-57 -58 -137 -58
q-81 0 -139 58zM587 1446q-36 0 -62.5 -27t-26.5 -63q0 -37 26.5 -62.5t63.5 -25.5q36 0 62 26t26 62q0 37 -26 63.5t-63 26.5z" />
    <glyph glyph-name="ae" unicode="&#xe6;" horiz-adv-x="1757" 
d="M1212 190q64 0 112.5 41t68.5 107l280 -44q-54 -155 -175 -237t-296 -82q-252 0 -367 179q-176 -179 -417 -179q-104 0 -183 40t-122 112.5t-43 165.5q0 141 92 224t284 113q183 29 265 58v20q0 93 -43.5 127.5t-131.5 34.5q-70 0 -117 -32t-71 -101l-256 39
q42 160 156 234.5t305 74.5q221 0 328 -132q56 63 135.5 97.5t182.5 34.5q148 0 258.5 -65.5t170.5 -192t60 -305.5v-86h-706q10 -126 71 -186t159 -60zM1199 870q-89 0 -148.5 -59t-68.5 -170h427q-7 115 -62 172t-148 57zM501 455q-151 -30 -151 -146q0 -65 37.5 -100
t106.5 -35q57 0 107 35.5t80 100t30 147.5v51q-80 -29 -210 -53z" />
    <glyph glyph-name="ccedilla" unicode="&#xe7;" horiz-adv-x="1127" 
d="M440 -292q72 0 109.5 13.5t37.5 44.5q0 27 -22 40.5t-55 13.5q-31 0 -61 -7l40 168q-136 18 -230.5 93.5t-141.5 193t-47 263.5q0 165 59 290t174 194.5t278 69.5q182 0 302 -84t164 -258l-275 -50q-17 82 -65.5 125t-123.5 43q-109 0 -167 -87.5t-58 -243.5
q0 -146 58 -235.5t172 -89.5q79 0 130.5 52.5t67.5 150.5l276 -48q-41 -182 -149 -276.5t-284 -106.5l-15 -62q106 -8 158 -46.5t52 -112.5q0 -53 -38.5 -95t-117.5 -66.5t-195 -24.5q-29 0 -76.5 3.5t-81.5 7.5l14 135q58 -8 111 -8z" />
    <glyph glyph-name="egrave" unicode="&#xe8;" horiz-adv-x="1171" 
d="M581 190q89 0 146.5 40.5t79.5 107.5l280 -44q-56 -155 -182 -237t-309 -82q-172 0 -290 68t-177 191.5t-59 289.5q0 153 61.5 281t179.5 204t281 76q155 0 269.5 -65.5t177.5 -192t63 -305.5v-86h-746q10 -118 69 -182t156 -64zM357 641h465q-10 111 -70 170t-159 59
q-94 0 -159 -60.5t-77 -168.5zM540 1196l-274 295h313l140 -295h-179z" />
    <glyph glyph-name="eacute" unicode="&#xe9;" horiz-adv-x="1171" 
d="M581 190q89 0 146.5 40.5t79.5 107.5l280 -44q-56 -155 -182 -237t-309 -82q-172 0 -290 68t-177 191.5t-59 289.5q0 153 61.5 281t179.5 204t281 76q155 0 269.5 -65.5t177.5 -192t63 -305.5v-86h-746q10 -118 69 -182t156 -64zM357 641h465q-10 111 -70 170t-159 59
q-94 0 -159 -60.5t-77 -168.5zM414 1196l140 295h313l-274 -295h-179z" />
    <glyph glyph-name="ecircumflex" unicode="&#xea;" horiz-adv-x="1171" 
d="M581 190q89 0 146.5 40.5t79.5 107.5l280 -44q-56 -155 -182 -237t-309 -82q-172 0 -290 68t-177 191.5t-59 289.5q0 153 61.5 281t179.5 204t281 76q155 0 269.5 -65.5t177.5 -192t63 -305.5v-86h-746q10 -118 69 -182t156 -64zM357 641h465q-10 111 -70 170t-159 59
q-94 0 -159 -60.5t-77 -168.5zM680 1196l-114 150l-114 -150h-225l210 295h258l210 -295h-225z" />
    <glyph glyph-name="edieresis" unicode="&#xeb;" horiz-adv-x="1171" 
d="M581 190q89 0 146.5 40.5t79.5 107.5l280 -44q-56 -155 -182 -237t-309 -82q-172 0 -290 68t-177 191.5t-59 289.5q0 153 61.5 281t179.5 204t281 76q155 0 269.5 -65.5t177.5 -192t63 -305.5v-86h-746q10 -118 69 -182t156 -64zM357 641h465q-10 111 -70 170t-159 59
q-94 0 -159 -60.5t-77 -168.5zM229 1225v241h242v-241h-242zM661 1225v241h242v-241h-242z" />
    <glyph glyph-name="igrave" unicode="&#xec;" horiz-adv-x="559" 
d="M139 0v1061h281v-1061h-281zM253 1196l-274 295h313l140 -295h-179z" />
    <glyph glyph-name="iacute" unicode="&#xed;" horiz-adv-x="559" 
d="M139 0v1061h281v-1061h-281zM127 1196l140 295h313l-274 -295h-179z" />
    <glyph glyph-name="icircumflex" unicode="&#xee;" horiz-adv-x="559" 
d="M139 0v1061h281v-1061h-281zM394 1196l-114 150l-114 -150h-225l210 295h258l210 -295h-225z" />
    <glyph glyph-name="idieresis" unicode="&#xef;" horiz-adv-x="559" 
d="M139 0v1061h281v-1061h-281zM-57 1225v241h242v-241h-242zM375 1225v241h242v-241h-242z" />
    <glyph glyph-name="eth" unicode="&#xf0;" horiz-adv-x="1212" 
d="M606 -25q-166 0 -287 70t-185 194t-64 285q0 151 62 270t175 185.5t261 66.5q25 0 61 -5t65 -15q-55 85 -129 171l-218 -100l-47 98l194 89q-128 127 -196 182h295q19 -16 52.5 -42.5t53.5 -43.5l183 86l45 -98l-144 -68q177 -180 268 -375.5t91 -387.5q0 -165 -64 -292
t-185 -198.5t-287 -71.5zM603 831q-70 0 -125.5 -37.5t-87.5 -108.5t-32 -167t30 -166.5t85.5 -108.5t130.5 -38t131.5 37.5t87.5 108.5t31 168q0 312 -251 312z" />
    <glyph glyph-name="ntilde" unicode="&#xf1;" horiz-adv-x="1219" 
d="M804 663q0 102 -38 154.5t-127 52.5q-97 0 -158.5 -69.5t-60.5 -212.5v-588h-281v1061h262v-139q57 80 140 121.5t183 41.5q175 0 268 -93.5t93 -262.5v-729h-281v663zM763 1217q-43 0 -81 11.5t-84 32.5q-38 17 -63.5 25t-47.5 8q-31 0 -46 -20.5t-15 -65.5v-2h-144v5
q0 133 47 201.5t146 68.5q41 0 74 -10.5t74 -30.5q39 -19 66.5 -27.5t58.5 -8.5q28 0 46 22t18 65h144q0 -139 -46.5 -206.5t-146.5 -67.5z" />
    <glyph glyph-name="ograve" unicode="&#xf2;" horiz-adv-x="1212" 
d="M70 537q0 156 64 281t185 196t285 71q167 0 289 -71.5t185.5 -196t63.5 -282.5q0 -164 -64 -290.5t-185 -198t-287 -71.5t-287 71.5t-185 198.5t-64 292zM603 856q-70 0 -125.5 -39t-87.5 -113t-32 -174q0 -99 30 -172.5t85.5 -113t130.5 -39.5t131.5 39t87.5 113t31 175
q0 97 -30 170t-86.5 113.5t-134.5 40.5zM604 1196l-274 295h313l140 -295h-179z" />
    <glyph glyph-name="oacute" unicode="&#xf3;" horiz-adv-x="1212" 
d="M70 537q0 156 64 281t185 196t285 71q167 0 289 -71.5t185.5 -196t63.5 -282.5q0 -164 -64 -290.5t-185 -198t-287 -71.5t-287 71.5t-185 198.5t-64 292zM603 856q-70 0 -125.5 -39t-87.5 -113t-32 -174q0 -99 30 -172.5t85.5 -113t130.5 -39.5t131.5 39t87.5 113t31 175
q0 97 -30 170t-86.5 113.5t-134.5 40.5zM477 1196l140 295h313l-274 -295h-179z" />
    <glyph glyph-name="ocircumflex" unicode="&#xf4;" horiz-adv-x="1212" 
d="M70 537q0 156 64 281t185 196t285 71q167 0 289 -71.5t185.5 -196t63.5 -282.5q0 -164 -64 -290.5t-185 -198t-287 -71.5t-287 71.5t-185 198.5t-64 292zM603 856q-70 0 -125.5 -39t-87.5 -113t-32 -174q0 -99 30 -172.5t85.5 -113t130.5 -39.5t131.5 39t87.5 113t31 175
q0 97 -30 170t-86.5 113.5t-134.5 40.5zM744 1196l-114 150l-114 -150h-225l210 295h258l210 -295h-225z" />
    <glyph glyph-name="otilde" unicode="&#xf5;" horiz-adv-x="1212" 
d="M70 537q0 156 64 281t185 196t285 71q167 0 289 -71.5t185.5 -196t63.5 -282.5q0 -164 -64 -290.5t-185 -198t-287 -71.5t-287 71.5t-185 198.5t-64 292zM603 856q-70 0 -125.5 -39t-87.5 -113t-32 -174q0 -99 30 -172.5t85.5 -113t130.5 -39.5t131.5 39t87.5 113t31 175
q0 97 -30 170t-86.5 113.5t-134.5 40.5zM784 1217q-43 0 -81 11.5t-84 32.5q-38 17 -63.5 25t-47.5 8q-31 0 -46 -20.5t-15 -65.5v-2h-144v5q0 133 47 201.5t146 68.5q41 0 74 -10.5t74 -30.5q39 -19 66.5 -27.5t58.5 -8.5q28 0 46 22t18 65h144q0 -139 -46.5 -206.5
t-146.5 -67.5z" />
    <glyph glyph-name="odieresis" unicode="&#xf6;" horiz-adv-x="1212" 
d="M70 537q0 156 64 281t185 196t285 71q167 0 289 -71.5t185.5 -196t63.5 -282.5q0 -164 -64 -290.5t-185 -198t-287 -71.5t-287 71.5t-185 198.5t-64 292zM603 856q-70 0 -125.5 -39t-87.5 -113t-32 -174q0 -99 30 -172.5t85.5 -113t130.5 -39.5t131.5 39t87.5 113t31 175
q0 97 -30 170t-86.5 113.5t-134.5 40.5zM293 1225v241h242v-241h-242zM725 1225v241h242v-241h-242z" />
    <glyph glyph-name="divide" unicode="&#xf7;" horiz-adv-x="1196" 
d="M459 981v281h278v-281h-278zM86 592v262h1024v-262h-1024zM459 184v281h278v-281h-278z" />
    <glyph glyph-name="oslash" unicode="&#xf8;" horiz-adv-x="1212" 
d="M304 55l-109 -129l-111 97l110 129q-61 74 -92.5 172t-31.5 213q0 156 64 281t185 196t285 71q177 0 309 -84l102 120l111 -97l-103 -122q58 -72 88.5 -165.5t30.5 -201.5q0 -164 -64 -290.5t-185 -198t-287 -71.5q-176 0 -302 80zM382 374l367 433q-62 49 -146 49
q-70 0 -125.5 -39t-87.5 -113t-32 -174q0 -90 24 -156zM833 678l-365 -430q58 -43 136 -43q75 0 131.5 39t87.5 113t31 175q0 82 -21 146z" />
    <glyph glyph-name="ugrave" unicode="&#xf9;" horiz-adv-x="1219" 
d="M581 190q52 0 101.5 24.5t83 87.5t33.5 169v590h281v-1061h-262v139q-56 -79 -139.5 -121.5t-182.5 -42.5q-177 0 -269.5 94t-92.5 264v728h281v-663q0 -106 40 -157t126 -51zM579 1196l-274 295h313l140 -295h-179z" />
    <glyph glyph-name="uacute" unicode="&#xfa;" horiz-adv-x="1219" 
d="M581 190q52 0 101.5 24.5t83 87.5t33.5 169v590h281v-1061h-262v139q-56 -79 -139.5 -121.5t-182.5 -42.5q-177 0 -269.5 94t-92.5 264v728h281v-663q0 -106 40 -157t126 -51zM472 1196l140 295h313l-274 -295h-179z" />
    <glyph glyph-name="ucircumflex" unicode="&#xfb;" horiz-adv-x="1219" 
d="M581 190q52 0 101.5 24.5t83 87.5t33.5 169v590h281v-1061h-262v139q-56 -79 -139.5 -121.5t-182.5 -42.5q-177 0 -269.5 94t-92.5 264v728h281v-663q0 -106 40 -157t126 -51zM739 1196l-114 150l-114 -150h-225l210 295h258l210 -295h-225z" />
    <glyph glyph-name="udieresis" unicode="&#xfc;" horiz-adv-x="1219" 
d="M581 190q52 0 101.5 24.5t83 87.5t33.5 169v590h281v-1061h-262v139q-56 -79 -139.5 -121.5t-182.5 -42.5q-177 0 -269.5 94t-92.5 264v728h281v-663q0 -106 40 -157t126 -51zM277 1225v241h242v-241h-242zM709 1225v241h242v-241h-242z" />
    <glyph glyph-name="yacute" unicode="&#xfd;" horiz-adv-x="1139" 
d="M569 307h4q31 110 42 143l204 611h291l-408 -1092q-94 -249 -181 -323q-89 -76 -250 -76q-73 0 -193 27l47 215q62 -19 99 -19q51 0 83.5 16t59.5 59.5t57 129.5l-406 1063h299l207 -604q19 -54 45 -150zM414 1196l140 295h313l-274 -295h-179z" />
    <glyph glyph-name="thorn" unicode="&#xfe;" horiz-adv-x="1253" 
d="M1183 539q0 -177 -56.5 -304.5t-158.5 -193.5t-235 -66q-101 0 -172.5 34t-140.5 114v-529h-281v1872h281v-529q64 74 142 111t175 37q127 0 228.5 -68.5t159.5 -192.5t58 -285zM668 861q-250 0 -250 -328q0 -161 64 -247.5t176 -86.5q116 0 176.5 85.5t60.5 248.5
q0 155 -60.5 241.5t-166.5 86.5z" />
    <glyph glyph-name="ydieresis" unicode="&#xff;" horiz-adv-x="1139" 
d="M569 307h4q31 110 42 143l204 611h291l-408 -1092q-94 -249 -181 -323q-89 -76 -250 -76q-73 0 -193 27l47 215q62 -19 99 -19q51 0 83.5 16t59.5 59.5t57 129.5l-406 1063h299l207 -604q19 -54 45 -150zM229 1225v241h242v-241h-242zM661 1225v241h242v-241h-242z" />
    <glyph glyph-name="Amacron" unicode="&#x100;" horiz-adv-x="1460" 
d="M1133 0l-127 332h-566l-121 -332h-315l571 1466h293l588 -1466h-323zM651 911l-121 -331h381l-123 331q-24 64 -42.5 131t-24.5 109h-8q-18 -120 -62 -240zM396 1616v197h646v-197h-646z" />
    <glyph glyph-name="amacron" unicode="&#x101;" horiz-adv-x="1126" 
d="M1059 0h-277q-21 46 -34 117q-141 -142 -330 -142q-104 0 -183 40t-122 112.5t-43 165.5q0 141 92 224t284 113t270 58v20q0 93 -45.5 127.5t-134.5 34.5q-70 0 -117 -32t-71 -101l-256 39q42 160 156 234.5t305 74.5q155 0 252.5 -39.5t144.5 -125.5t47 -225v-433
q0 -76 11 -127t51 -135zM501 455q-150 -30 -150 -146q0 -65 37 -100t106 -35t127 35q40 24 59.5 50.5t27.5 71.5t8 126v51q-74 -27 -215 -53zM270 1249v187h606v-187h-606z" />
    <glyph glyph-name="Abreve" unicode="&#x102;" horiz-adv-x="1460" 
d="M1133 0l-127 332h-566l-121 -332h-315l571 1466h293l588 -1466h-323zM651 911l-121 -331h381l-123 331q-24 64 -42.5 131t-24.5 109h-8q-18 -120 -62 -240zM711 1731q70 0 105 34t45 97h176q-14 -146 -98.5 -224.5t-227.5 -78.5q-144 0 -227.5 74.5t-98.5 228.5h176
q8 -65 47.5 -98t102.5 -33z" />
    <glyph glyph-name="abreve" unicode="&#x103;" horiz-adv-x="1126" 
d="M1059 0h-277q-21 46 -34 117q-141 -142 -330 -142q-104 0 -183 40t-122 112.5t-43 165.5q0 141 92 224t284 113t270 58v20q0 93 -45.5 127.5t-134.5 34.5q-70 0 -117 -32t-71 -101l-256 39q42 160 156 234.5t305 74.5q155 0 252.5 -39.5t144.5 -125.5t47 -225v-433
q0 -76 11 -127t51 -135zM501 455q-150 -30 -150 -146q0 -65 37 -100t106 -35t127 35q40 24 59.5 50.5t27.5 71.5t8 126v51q-74 -27 -215 -53zM561 1350q71 0 105.5 35.5t44.5 105.5h166q-14 -147 -94.5 -225t-221.5 -78q-142 0 -221.5 74t-94.5 229h166q8 -71 47 -106
t103 -35z" />
    <glyph glyph-name="Aogonek" unicode="&#x104;" horiz-adv-x="1460" 
d="M1466 -252v-137q-38 -19 -88 -30t-102 -11q-120 0 -174.5 51t-54.5 148q0 60 22 119t64 113l-127 331h-566l-121 -332h-315l571 1466h293l588 -1466h-169q-60 -91 -60 -179q0 -51 25 -74t78 -23q29 0 67.5 6t68.5 18zM788 911q-24 64 -42.5 131t-24.5 109h-8
q-18 -120 -62 -240l-121 -331h381z" />
    <glyph glyph-name="aogonek" unicode="&#x105;" horiz-adv-x="1126" 
d="M1116 -252v-137q-38 -19 -88 -30t-102 -11q-120 0 -174.5 51t-54.5 148q0 59 21.5 118t63.5 113q-21 46 -34 117q-141 -142 -330 -142q-104 0 -183 40t-122 112.5t-43 165.5q0 141 92 224t284 113t270 58v20q0 93 -45.5 127.5t-134.5 34.5q-70 0 -117 -32t-71 -101
l-256 39q42 160 156 234.5t305 74.5q155 0 252.5 -39.5t144.5 -125.5t47 -225v-433q0 -76 11 -127t51 -135h-122q-60 -91 -60 -179q0 -51 25 -74t78 -23q29 0 67.5 6t68.5 18zM501 455q-150 -30 -150 -146q0 -65 37 -100t106 -35t127 35q40 24 59.5 50.5t27.5 71.5t8 126v51
q-74 -27 -215 -53z" />
    <glyph glyph-name="Cacute" unicode="&#x106;" horiz-adv-x="1485" 
d="M770 1237q-121 0 -206 -64t-128 -176.5t-43 -257.5q0 -155 44 -270t128 -177.5t201 -62.5q82 0 152 36t119.5 103t72.5 158l293 -69q-34 -145 -118.5 -253.5t-214.5 -168.5t-296 -60q-216 0 -370 92t-235 265.5t-81 412.5q0 229 83.5 397.5t238.5 258.5t364 90
q240 0 395 -108.5t217 -321.5l-292 -70q-73 246 -324 246zM602 1567l125 295h328l-259 -295h-194z" />
    <glyph glyph-name="cacute" unicode="&#x107;" horiz-adv-x="1127" 
d="M583 861q-109 0 -167 -87.5t-58 -243.5q0 -146 58 -235.5t172 -89.5q79 0 130.5 52.5t67.5 150.5l276 -48q-44 -196 -165.5 -290.5t-322.5 -94.5q-163 0 -276.5 72.5t-170.5 198t-57 285.5q0 165 59 290t174 194.5t278 69.5q182 0 302 -84t164 -258l-275 -50
q-17 82 -65.5 125t-123.5 43zM426 1196l140 295h313l-274 -295h-179z" />
    <glyph glyph-name="Cdotaccent" unicode="&#x10a;" horiz-adv-x="1485" 
d="M770 1237q-121 0 -206 -64t-128 -176.5t-43 -257.5q0 -155 44 -270t128 -177.5t201 -62.5q82 0 152 36t119.5 103t72.5 158l293 -69q-34 -145 -118.5 -253.5t-214.5 -168.5t-296 -60q-216 0 -370 92t-235 265.5t-81 412.5q0 229 83.5 397.5t238.5 258.5t364 90
q240 0 395 -108.5t217 -321.5l-292 -70q-73 246 -324 246zM617 1596v271h291v-271h-291z" />
    <glyph glyph-name="cdotaccent" unicode="&#x10b;" horiz-adv-x="1127" 
d="M583 861q-109 0 -167 -87.5t-58 -243.5q0 -146 58 -235.5t172 -89.5q79 0 130.5 52.5t67.5 150.5l276 -48q-44 -196 -165.5 -290.5t-322.5 -94.5q-163 0 -276.5 72.5t-170.5 198t-57 285.5q0 165 59 290t174 194.5t278 69.5q182 0 302 -84t164 -258l-275 -50
q-17 82 -65.5 125t-123.5 43zM423 1225v261h281v-261h-281z" />
    <glyph glyph-name="Ccaron" unicode="&#x10c;" horiz-adv-x="1485" 
d="M770 1237q-121 0 -206 -64t-128 -176.5t-43 -257.5q0 -155 44 -270t128 -177.5t201 -62.5q82 0 152 36t119.5 103t72.5 158l293 -69q-34 -145 -118.5 -253.5t-214.5 -168.5t-296 -60q-216 0 -370 92t-235 265.5t-81 412.5q0 229 83.5 397.5t238.5 258.5t364 90
q240 0 395 -108.5t217 -321.5l-292 -70q-73 246 -324 246zM657 1862l114 -140l114 140h235l-220 -295h-258l-220 295h235z" />
    <glyph glyph-name="ccaron" unicode="&#x10d;" horiz-adv-x="1127" 
d="M583 861q-109 0 -167 -87.5t-58 -243.5q0 -146 58 -235.5t172 -89.5q79 0 130.5 52.5t67.5 150.5l276 -48q-44 -196 -165.5 -290.5t-322.5 -94.5q-163 0 -276.5 72.5t-170.5 198t-57 285.5q0 165 59 290t174 194.5t278 69.5q182 0 302 -84t164 -258l-275 -50
q-17 82 -65.5 125t-123.5 43zM457 1491l114 -150l114 150h225l-210 -295h-258l-210 295h225z" />
    <glyph glyph-name="Dcaron" unicode="&#x10e;" horiz-adv-x="1471" 
d="M1383 722q0 -336 -160.5 -529t-495.5 -193h-573v1466h576q653 0 653 -744zM1077 731q0 181 -41 287t-126.5 153t-227.5 47h-233v-970h237q147 0 231.5 45.5t122 150t37.5 287.5zM587 1862l114 -140l114 140h235l-220 -295h-258l-220 295h235z" />
    <glyph glyph-name="dcaron" unicode="&#x10f;" horiz-adv-x="1521" 
d="M1114 0h-262v129h-4q-60 -80 -138.5 -117t-179.5 -37q-133 0 -237.5 69t-163.5 197t-59 300q0 162 57 285.5t161 191t240 67.5q93 0 170.5 -35.5t131.5 -101.5h3v518h281v-1466zM598 861q-114 0 -177 -89.5t-63 -244.5q0 -104 28.5 -177.5t81 -112t123.5 -38.5
q119 0 181.5 86t62.5 247q0 98 -30 172.5t-84 115.5t-123 41zM1286 934l-53 114q79 21 113 58.5t37 102.5h-130v257h268v-193q0 -96 -20 -157.5t-70.5 -104.5t-144.5 -77z" />
    <glyph glyph-name="Dcroat" unicode="&#x110;" horiz-adv-x="1471" 
d="M1383 722q0 -336 -160.5 -529t-495.5 -193h-573v629h-152v205h152v632h576q653 0 653 -744zM1077 731q0 181 -41 287t-126.5 153t-227.5 47h-233v-384h313v-205h-313v-381h237q147 0 231.5 45.5t122 150t37.5 287.5z" />
    <glyph glyph-name="dcroat" unicode="&#x111;" horiz-adv-x="1253" 
d="M1253 1362v-186h-139v-1176h-262v129h-4q-60 -80 -138.5 -117t-179.5 -37q-133 0 -237.5 69t-163.5 197t-59 300q0 162 57 285.5t161 191t240 67.5q94 0 172.5 -37t132.5 -104v232h-294v186h294v104h281v-104h139zM598 861q-114 0 -177 -89.5t-63 -244.5
q0 -104 28.5 -177.5t81 -112t123.5 -38.5q119 0 181.5 86t62.5 247q0 98 -30 172.5t-84 115.5t-123 41z" />
    <glyph glyph-name="Emacron" unicode="&#x112;" horiz-adv-x="1253" 
d="M449 1218v-335h616v-248h-616v-387h706v-248h-1001v1466h966v-248h-671zM315 1616v197h646v-197h-646z" />
    <glyph glyph-name="emacron" unicode="&#x113;" horiz-adv-x="1171" 
d="M581 190q89 0 146.5 40.5t79.5 107.5l280 -44q-56 -155 -182 -237t-309 -82q-172 0 -290 68t-177 191.5t-59 289.5q0 153 61.5 281t179.5 204t281 76q155 0 269.5 -65.5t177.5 -192t63 -305.5v-86h-746q10 -118 69 -182t156 -64zM357 641h465q-10 111 -70 170t-159 59
q-94 0 -159 -60.5t-77 -168.5zM260 1249v187h606v-187h-606z" />
    <glyph glyph-name="Edotaccent" unicode="&#x116;" horiz-adv-x="1253" 
d="M449 1218v-335h616v-248h-616v-387h706v-248h-1001v1466h966v-248h-671zM515 1596v271h291v-271h-291z" />
    <glyph glyph-name="edotaccent" unicode="&#x117;" horiz-adv-x="1171" 
d="M581 190q89 0 146.5 40.5t79.5 107.5l280 -44q-56 -155 -182 -237t-309 -82q-172 0 -290 68t-177 191.5t-59 289.5q0 153 61.5 281t179.5 204t281 76q155 0 269.5 -65.5t177.5 -192t63 -305.5v-86h-746q10 -118 69 -182t156 -64zM357 641h465q-10 111 -70 170t-159 59
q-94 0 -159 -60.5t-77 -168.5zM445 1225v261h281v-261h-281z" />
    <glyph glyph-name="Eogonek" unicode="&#x118;" horiz-adv-x="1253" 
d="M916 -179q0 -51 25 -74t78 -23q29 0 67.5 6t68.5 18v-137q-38 -19 -88 -30t-102 -11q-120 0 -174.5 51t-54.5 148q0 59 21.5 118t63.5 113h-667v1466h966v-248h-671v-335h616v-248h-616v-387h706v-248h-179q-60 -91 -60 -179z" />
    <glyph glyph-name="eogonek" unicode="&#x119;" horiz-adv-x="1171" 
d="M356 436q10 -118 69 -182t156 -64q89 0 146.5 40.5t79.5 107.5l280 -44q-47 -131 -144.5 -210t-237.5 -101q-49 -83 -49 -162q0 -51 25 -74t78 -23q29 0 67.5 6t68.5 18v-137q-38 -19 -88 -30t-102 -11q-120 0 -174.5 51t-54.5 148q0 108 68 208q-155 10 -261 80.5
t-159.5 190t-53.5 276.5q0 153 61.5 281t179.5 204t281 76q155 0 269.5 -65.5t177.5 -192t63 -305.5v-86h-746zM593 870q-94 0 -159 -60.5t-77 -168.5h465q-10 111 -70 170t-159 59z" />
    <glyph glyph-name="Ecaron" unicode="&#x11a;" horiz-adv-x="1253" 
d="M449 1218v-335h616v-248h-616v-387h706v-248h-1001v1466h966v-248h-671zM534 1862l114 -140l114 140h235l-220 -295h-258l-220 295h235z" />
    <glyph glyph-name="ecaron" unicode="&#x11b;" horiz-adv-x="1171" 
d="M581 190q89 0 146.5 40.5t79.5 107.5l280 -44q-56 -155 -182 -237t-309 -82q-172 0 -290 68t-177 191.5t-59 289.5q0 153 61.5 281t179.5 204t281 76q155 0 269.5 -65.5t177.5 -192t63 -305.5v-86h-746q10 -118 69 -182t156 -64zM357 641h465q-10 111 -70 170t-159 59
q-94 0 -159 -60.5t-77 -168.5zM448 1491l114 -150l114 150h225l-210 -295h-258l-210 295h225z" />
    <glyph glyph-name="Gbreve" unicode="&#x11e;" horiz-adv-x="1557" 
d="M802 1237q-191 0 -299.5 -123t-108.5 -364q0 -162 46.5 -279t137.5 -179.5t221 -62.5q93 0 183.5 28t155.5 81v201h-342v248h637v-584q-67 -64 -168 -116t-221.5 -82t-243.5 -30q-224 0 -384.5 95.5t-244 267.5t-83.5 399t89 397.5t251 263.5t374 93q251 0 402 -108
t211 -322l-295 -55q-32 113 -112 172t-206 59zM811 1731q70 0 105 34t45 97h176q-14 -146 -98.5 -224.5t-227.5 -78.5q-144 0 -227.5 74.5t-98.5 228.5h176q8 -65 47.5 -98t102.5 -33z" />
    <glyph glyph-name="gbreve" unicode="&#x11f;" horiz-adv-x="1253" 
d="M1114 1061v-964q0 -189 -56 -305t-171.5 -169t-298.5 -53q-449 0 -482 360l291 -47q10 -51 57.5 -74.5t144.5 -23.5q115 0 176.5 59t61.5 189v111h-4q-42 -63 -125 -103.5t-183 -40.5q-134 0 -237.5 68.5t-160.5 191t-57 278.5q0 172 55 295t157.5 187.5t240.5 64.5
q106 0 190 -39.5t135 -113.5h4v129h262zM585 861q-72 0 -123 -38.5t-77.5 -108.5t-26.5 -162q0 -98 28 -174.5t80.5 -119.5t123.5 -43q73 0 128.5 42t86 117t30.5 173q0 90 -30.5 161.5t-87 112t-132.5 40.5zM591 1350q71 0 105.5 35.5t44.5 105.5h166q-14 -147 -94.5 -225
t-221.5 -78q-142 0 -221.5 74t-94.5 229h166q8 -71 47 -106t103 -35z" />
    <glyph glyph-name="Gdotaccent" unicode="&#x120;" horiz-adv-x="1557" 
d="M802 1237q-191 0 -299.5 -123t-108.5 -364q0 -162 46.5 -279t137.5 -179.5t221 -62.5q93 0 183.5 28t155.5 81v201h-342v248h637v-584q-67 -64 -168 -116t-221.5 -82t-243.5 -30q-224 0 -384.5 95.5t-244 267.5t-83.5 399t89 397.5t251 263.5t374 93q251 0 402 -108
t211 -322l-295 -55q-32 113 -112 172t-206 59zM653 1596v271h291v-271h-291z" />
    <glyph glyph-name="gdotaccent" unicode="&#x121;" horiz-adv-x="1253" 
d="M1114 1061v-964q0 -189 -56 -305t-171.5 -169t-298.5 -53q-449 0 -482 360l291 -47q10 -51 57.5 -74.5t144.5 -23.5q115 0 176.5 59t61.5 189v111h-4q-42 -63 -125 -103.5t-183 -40.5q-134 0 -237.5 68.5t-160.5 191t-57 278.5q0 172 55 295t157.5 187.5t240.5 64.5
q106 0 190 -39.5t135 -113.5h4v129h262zM585 861q-72 0 -123 -38.5t-77.5 -108.5t-26.5 -162q0 -98 28 -174.5t80.5 -119.5t123.5 -43q73 0 128.5 42t86 117t30.5 173q0 90 -30.5 161.5t-87 112t-132.5 40.5zM456 1225v261h281v-261h-281z" />
    <glyph glyph-name="uni0122" unicode="&#x122;" horiz-adv-x="1557" 
d="M802 1237q-191 0 -299.5 -123t-108.5 -364q0 -162 46.5 -279t137.5 -179.5t221 -62.5q93 0 183.5 28t155.5 81v201h-342v248h637v-584q-67 -64 -168 -116t-221.5 -82t-243.5 -30q-224 0 -384.5 95.5t-244 267.5t-83.5 399t89 397.5t251 263.5t374 93q251 0 402 -108
t211 -322l-295 -55q-32 113 -112 172t-206 59zM806 -253h-139v178h288v-132q0 -89 -29 -139.5t-88 -72.5t-156 -26l-15 111q77 1 108 22t31 59z" />
    <glyph glyph-name="uni0123" unicode="&#x123;" horiz-adv-x="1253" 
d="M1114 1061v-964q0 -189 -56 -305t-171.5 -169t-298.5 -53q-449 0 -482 360l291 -47q10 -51 57.5 -74.5t144.5 -23.5q115 0 176.5 59t61.5 189v111h-4q-42 -63 -125 -103.5t-183 -40.5q-134 0 -237.5 68.5t-160.5 191t-57 278.5q0 172 55 295t157.5 187.5t240.5 64.5
q106 0 190 -39.5t135 -113.5h4v129h262zM585 861q-72 0 -123 -38.5t-77.5 -108.5t-26.5 -162q0 -98 28 -174.5t80.5 -119.5t123.5 -43q73 0 128.5 42t86 117t30.5 173q0 90 -30.5 161.5t-87 112t-132.5 40.5zM570 1354h139v-188h-288v147q0 88 29 137t88 71.5t156 29.5
l15 -111q-55 -4 -86 -15t-42 -28t-11 -43z" />
    <glyph glyph-name="Hbar" unicode="&#x126;" horiz-adv-x="1477" 
d="M154 1284v182h295v-182h579v182h295v-182h115v-248h-115v-1036h-295v653h-579v-653h-295v1036h-115v248h115zM1028 901v135h-579v-135h579z" />
    <glyph glyph-name="hbar" unicode="&#x127;" horiz-adv-x="1219" 
d="M139 1362v104h281v-104h243v-186h-243v-232q60 74 140 107.5t164 33.5q169 0 265 -91t96 -265v-729h-281v663q0 108 -41 157.5t-124 49.5q-79 0 -149 -62.5t-70 -219.5v-588h-281v1176h-138v186h138z" />
    <glyph glyph-name="Imacron" unicode="&#x12a;" horiz-adv-x="603" 
d="M154 0v1466h295v-1466h-295zM-20 1616v197h646v-197h-646z" />
    <glyph glyph-name="imacron" unicode="&#x12b;" horiz-adv-x="559" 
d="M139 0v1061h281v-1061h-281zM-23 1249v187h606v-187h-606z" />
    <glyph glyph-name="Iogonek" unicode="&#x12e;" horiz-adv-x="603" 
d="M488 -252v-137q-38 -19 -88 -30t-102 -11q-120 0 -174.5 51t-54.5 148q0 59 21.5 118t63.5 113v1466h295v-1466h-140q-60 -91 -60 -179q0 -51 25 -74t78 -23q29 0 67.5 6t68.5 18z" />
    <glyph glyph-name="iogonek" unicode="&#x12f;" horiz-adv-x="559" 
d="M139 1206v260h281v-260h-281zM473 -252v-137q-38 -19 -88 -30t-102 -11q-120 0 -174.5 51t-54.5 148q0 59 21.5 118t63.5 113v1061h281v-1061h-126q-60 -91 -60 -179q0 -51 25 -74t78 -23q29 0 67.5 6t68.5 18z" />
    <glyph glyph-name="Idotaccent" unicode="&#x130;" horiz-adv-x="603" 
d="M154 0v1466h295v-1466h-295zM155 1596v271h291v-271h-291z" />
    <glyph glyph-name="dotlessi" unicode="&#x131;" horiz-adv-x="559" 
d="M139 0v1061h281v-1061h-281z" />
    <glyph glyph-name="uni0136" unicode="&#x136;" horiz-adv-x="1452" 
d="M1038 1466h368l-531 -582l572 -884h-368l-409 677l-221 -235v-442h-295v1466h295v-651zM733 -253h-139v178h288v-132q0 -89 -29 -139.5t-88 -72.5t-156 -26l-15 111q77 1 108 22t31 59z" />
    <glyph glyph-name="uni0137" unicode="&#x137;" horiz-adv-x="1142" 
d="M755 1061h341l-363 -387l387 -674h-318l-260 479l-122 -129v-350h-281v1466h281v-778zM593 -253h-139v178h288v-132q0 -89 -29 -139.5t-88 -72.5t-156 -26l-15 111q77 1 108 22t31 59z" />
    <glyph glyph-name="Lacute" unicode="&#x139;" horiz-adv-x="1158" 
d="M1104 248v-248h-950v1466h295v-1218h655zM146 1567l125 295h328l-259 -295h-194z" />
    <glyph glyph-name="lacute" unicode="&#x13a;" horiz-adv-x="559" 
d="M139 0v1466h281v-1466h-281zM118 1544l140 295h313l-274 -295h-179z" />
    <glyph glyph-name="uni013B" unicode="&#x13b;" horiz-adv-x="1158" 
d="M1104 248v-248h-950v1466h295v-1218h655zM643 -253h-139v178h288v-132q0 -89 -29 -139.5t-88 -72.5t-156 -26l-15 111q77 1 108 22t31 59z" />
    <glyph glyph-name="uni013C" unicode="&#x13c;" horiz-adv-x="559" 
d="M139 0v1466h281v-1466h-281zM277 -253h-139v178h288v-132q0 -89 -29 -139.5t-88 -72.5t-156 -26l-15 111q77 1 108 22t31 59z" />
    <glyph glyph-name="Lcaron" unicode="&#x13d;" horiz-adv-x="1158" 
d="M1104 248v-248h-950v1466h295v-1218h655zM723 850l-57 122q85 27 121.5 75t39.5 131h-139v288h288v-219q0 -112 -21.5 -184t-76 -123t-155.5 -90z" />
    <glyph glyph-name="lcaron" unicode="&#x13e;" horiz-adv-x="824" 
d="M139 0v1466h281v-1466h-281zM589 934l-53 114q79 21 113 58.5t37 102.5h-130v257h268v-193q0 -96 -20 -157.5t-70.5 -104.5t-144.5 -77z" />
    <glyph glyph-name="Lslash" unicode="&#x141;" horiz-adv-x="1158" 
d="M791 1257v-243l-342 -285v-481h655v-248h-950v499l-144 -119v237l144 121v728h295v-495z" />
    <glyph glyph-name="lslash" unicode="&#x142;" horiz-adv-x="559" 
d="M557 1075v-190l-137 -117v-768h-281v540l-137 -116v190l137 116v736h281v-508z" />
    <glyph glyph-name="Nacute" unicode="&#x143;" horiz-adv-x="1469" 
d="M1040 1466h275v-1466h-297l-589 956v-956h-275v1466h287l599 -979v979zM577 1567l125 295h328l-259 -295h-194z" />
    <glyph glyph-name="nacute" unicode="&#x144;" horiz-adv-x="1219" 
d="M804 663q0 102 -38 154.5t-127 52.5q-97 0 -158.5 -69.5t-60.5 -212.5v-588h-281v1061h262v-139q57 80 140 121.5t183 41.5q175 0 268 -93.5t93 -262.5v-729h-281v663zM475 1196l140 295h313l-274 -295h-179z" />
    <glyph glyph-name="uni0145" unicode="&#x145;" horiz-adv-x="1469" 
d="M1040 1466h275v-1466h-297l-589 956v-956h-275v1466h287l599 -979v979zM718 -253h-139v178h288v-132q0 -89 -29 -139.5t-88 -72.5t-156 -26l-15 111q77 1 108 22t31 59z" />
    <glyph glyph-name="uni0146" unicode="&#x146;" horiz-adv-x="1219" 
d="M804 663q0 102 -38 154.5t-127 52.5q-97 0 -158.5 -69.5t-60.5 -212.5v-588h-281v1061h262v-139q57 80 140 121.5t183 41.5q175 0 268 -93.5t93 -262.5v-729h-281v663zM597 -253h-139v178h288v-132q0 -89 -29 -139.5t-88 -72.5t-156 -26l-15 111q77 1 108 22t31 59z" />
    <glyph glyph-name="Ncaron" unicode="&#x147;" horiz-adv-x="1469" 
d="M1040 1466h275v-1466h-297l-589 956v-956h-275v1466h287l599 -979v979zM622 1862l114 -140l114 140h235l-220 -295h-258l-220 295h235z" />
    <glyph glyph-name="ncaron" unicode="&#x148;" horiz-adv-x="1219" 
d="M804 663q0 102 -38 154.5t-127 52.5q-97 0 -158.5 -69.5t-60.5 -212.5v-588h-281v1061h262v-139q57 80 140 121.5t183 41.5q175 0 268 -93.5t93 -262.5v-729h-281v663zM516 1491l114 -150l114 150h225l-210 -295h-258l-210 295h225z" />
    <glyph glyph-name="Eng" unicode="&#x14a;" horiz-adv-x="1469" 
d="M441 1466l599 -979v979h275v-1492q0 -206 -73.5 -305t-245.5 -99q-48 0 -101.5 9.5t-95.5 21.5l45 230q16 -3 34.5 -5.5t39.5 -2.5q72 0 97 39t25 115v12l-611 967v-956h-275v1466h287z" />
    <glyph glyph-name="eng" unicode="&#x14b;" horiz-adv-x="1219" 
d="M804 663q0 108 -41 157.5t-124 49.5q-102 0 -160.5 -73t-58.5 -209v-588h-281v1061h262v-139q58 81 140.5 122t182.5 41q169 0 265 -91t96 -265v-755q0 -206 -73.5 -305t-245.5 -99q-48 0 -101.5 9.5t-95.5 21.5l45 225q16 -3 34.5 -5.5t39.5 -2.5q60 0 88 31.5t28 122.5
v691z" />
    <glyph glyph-name="Omacron" unicode="&#x14c;" horiz-adv-x="1608" 
d="M88 725q0 232 87.5 404.5t249.5 267t378 94.5q217 0 379 -94t250 -266t88 -400q0 -222 -86.5 -393.5t-247.5 -267t-379 -95.5t-381 94.5t-250.5 265t-87.5 390.5zM803 1237q-126 0 -218.5 -64.5t-141.5 -178.5t-49 -261t48 -261t141 -178.5t222 -64.5q127 0 219.5 64
t141 179t48.5 265q0 144 -48.5 257.5t-141 178t-221.5 64.5zM473 1616v197h646v-197h-646z" />
    <glyph glyph-name="omacron" unicode="&#x14d;" horiz-adv-x="1212" 
d="M70 537q0 156 64 281t185 196t285 71q167 0 289 -71.5t185.5 -196t63.5 -282.5q0 -164 -64 -290.5t-185 -198t-287 -71.5t-287 71.5t-185 198.5t-64 292zM603 856q-70 0 -125.5 -39t-87.5 -113t-32 -174q0 -99 30 -172.5t85.5 -113t130.5 -39.5t131.5 39t87.5 113t31 175
q0 97 -30 170t-86.5 113.5t-134.5 40.5zM327 1249v187h606v-187h-606z" />
    <glyph glyph-name="Ohungarumlaut" unicode="&#x150;" horiz-adv-x="1608" 
d="M88 725q0 232 87.5 404.5t249.5 267t378 94.5q217 0 379 -94t250 -266t88 -400q0 -222 -86.5 -393.5t-247.5 -267t-379 -95.5t-381 94.5t-250.5 265t-87.5 390.5zM803 1237q-126 0 -218.5 -64.5t-141.5 -178.5t-49 -261t48 -261t141 -178.5t222 -64.5q127 0 219.5 64
t141 179t48.5 265q0 144 -48.5 257.5t-141 178t-221.5 64.5zM491 1567l130 295h313l-265 -295h-178zM872 1567l130 295h313l-264 -295h-179z" />
    <glyph glyph-name="ohungarumlaut" unicode="&#x151;" horiz-adv-x="1212" 
d="M70 537q0 156 64 281t185 196t285 71q167 0 289 -71.5t185.5 -196t63.5 -282.5q0 -164 -64 -290.5t-185 -198t-287 -71.5t-287 71.5t-185 198.5t-64 292zM603 856q-70 0 -125.5 -39t-87.5 -113t-32 -174q0 -99 30 -172.5t85.5 -113t130.5 -39.5t131.5 39t87.5 113t31 175
q0 97 -30 170t-86.5 113.5t-134.5 40.5zM316 1196l140 295h303l-275 -295h-168zM697 1196l140 295h303l-274 -295h-169z" />
    <glyph glyph-name="OE" unicode="&#x152;" horiz-adv-x="2248" 
d="M1444 1218v-335h616v-248h-616v-387h706v-248h-986v180q-58 -77 -120.5 -121.5t-139.5 -64t-180 -19.5q-184 0 -329 95.5t-226 266t-81 388.5q0 231 82.5 404.5t231 267.5t341.5 94q278 0 421 -205v180h951v-248h-671zM769 1237q-116 0 -201 -62.5t-129.5 -176.5
t-44.5 -265t44 -265t129 -176.5t204 -62.5q117 0 201.5 64t129 179t44.5 265q0 144 -44.5 257.5t-129.5 178t-203 64.5z" />
    <glyph glyph-name="oe" unicode="&#x153;" horiz-adv-x="1870" 
d="M1325 190q64 0 112.5 41t68.5 107l280 -44q-54 -155 -175 -237t-297 -82q-119 0 -211.5 43t-155.5 122q-68 -79 -160.5 -122t-200.5 -43q-160 0 -276.5 71.5t-178 198.5t-61.5 292q0 156 61.5 280.5t178 196t274.5 71.5q115 0 211 -45.5t163 -128.5q64 82 153 128t200 46
q149 0 259 -65.5t170.5 -192t60.5 -305.5v-86h-706q10 -126 71 -186t159 -60zM1312 870q-89 0 -148.5 -59t-68.5 -170h427q-7 115 -62 172t-148 57zM583 856q-64 0 -115 -39t-80.5 -113t-29.5 -174t27.5 -173t78.5 -112.5t120 -39.5t121 39t80.5 113t28.5 175
q0 97 -27.5 170t-80 113.5t-123.5 40.5z" />
    <glyph glyph-name="Racute" unicode="&#x154;" horiz-adv-x="1380" 
d="M1276 1055q0 -155 -78.5 -255t-241.5 -147v-4q38 -14 69 -40t65 -76.5t77 -138.5l193 -394h-324l-140 293q-74 155 -124 217q-33 41 -65.5 62.5t-82 30.5t-134.5 9h-41v-612h-295v1466h608q246 0 380 -106t134 -305zM971 1037q0 96 -57.5 139t-178.5 43h-286v-373h251
q134 0 202.5 43t68.5 148zM526 1567l125 295h328l-259 -295h-194z" />
    <glyph glyph-name="racute" unicode="&#x155;" horiz-adv-x="856" 
d="M639 831q-107 0 -163 -86t-56 -244v-501h-281v1061h260v-150h4q56 93 119 133.5t152 40.5q54 0 98.5 -12.5t87.5 -34.5l-90 -250q-22 15 -61.5 29t-69.5 14zM326 1196l140 295h313l-274 -295h-179z" />
    <glyph glyph-name="uni0156" unicode="&#x156;" horiz-adv-x="1380" 
d="M1276 1055q0 -155 -78.5 -255t-241.5 -147v-4q38 -14 69 -40t65 -76.5t77 -138.5l193 -394h-324l-140 293q-74 155 -124 217q-33 41 -65.5 62.5t-82 30.5t-134.5 9h-41v-612h-295v1466h608q246 0 380 -106t134 -305zM971 1037q0 96 -57.5 139t-178.5 43h-286v-373h251
q134 0 202.5 43t68.5 148zM703 -253h-139v178h288v-132q0 -89 -29 -139.5t-88 -72.5t-156 -26l-15 111q77 1 108 22t31 59z" />
    <glyph glyph-name="uni0157" unicode="&#x157;" horiz-adv-x="856" 
d="M639 831q-107 0 -163 -86t-56 -244v-501h-281v1061h260v-150h4q56 93 119 133.5t152 40.5q54 0 98.5 -12.5t87.5 -34.5l-90 -250q-22 15 -61.5 29t-69.5 14zM276 -253h-139v178h288v-132q0 -89 -29 -139.5t-88 -72.5t-156 -26l-15 111q77 1 108 22t31 59z" />
    <glyph glyph-name="Rcaron" unicode="&#x158;" horiz-adv-x="1380" 
d="M1276 1055q0 -155 -78.5 -255t-241.5 -147v-4q38 -14 69 -40t65 -76.5t77 -138.5l193 -394h-324l-140 293q-74 155 -124 217q-33 41 -65.5 62.5t-82 30.5t-134.5 9h-41v-612h-295v1466h608q246 0 380 -106t134 -305zM971 1037q0 96 -57.5 139t-178.5 43h-286v-373h251
q134 0 202.5 43t68.5 148zM567 1862l114 -140l114 140h235l-220 -295h-258l-220 295h235z" />
    <glyph glyph-name="rcaron" unicode="&#x159;" horiz-adv-x="856" 
d="M639 831q-107 0 -163 -86t-56 -244v-501h-281v1061h260v-150h4q56 93 119 133.5t152 40.5q54 0 98.5 -12.5t87.5 -34.5l-90 -250q-22 15 -61.5 29t-69.5 14zM348 1491l114 -150l114 150h225l-210 -295h-258l-210 295h225z" />
    <glyph glyph-name="Sacute" unicode="&#x15a;" horiz-adv-x="1323" 
d="M631 1247q-94 0 -157.5 -38t-63.5 -107q0 -46 29 -78.5t99 -59.5t199 -57q194 -45 302.5 -108.5t152 -152t43.5 -219.5q0 -152 -79.5 -253.5t-209.5 -150t-285 -48.5q-249 0 -403 127t-188 365l295 36q26 -144 98.5 -212t205.5 -68q80 0 141.5 22.5t95.5 63.5t34 97
q0 64 -24.5 100t-96 65.5t-223.5 65.5q-179 43 -283 106t-147.5 145t-43.5 192q0 120 61.5 213t179.5 145.5t282 52.5q236 0 375.5 -108.5t173.5 -315.5l-295 -33q-14 114 -79 163.5t-189 49.5zM511 1567l125 295h328l-259 -295h-194z" />
    <glyph glyph-name="sacute" unicode="&#x15b;" horiz-adv-x="1049" 
d="M511 885q-67 0 -108 -23.5t-41 -64.5q0 -31 19.5 -52.5t69 -39t138.5 -32.5q202 -34 298 -114.5t96 -226.5q0 -102 -54 -183.5t-155.5 -127.5t-238.5 -46q-209 0 -329 83.5t-145 244.5l263 42q18 -84 68 -126.5t143 -42.5q80 0 128 30t48 83q0 29 -16 49.5t-59 36.5
t-123 28q-221 34 -321 124t-100 240q0 97 51 169t146.5 110.5t226.5 38.5q186 0 300 -74t138 -210l-268 -39q-12 59 -58.5 91t-116.5 32zM410 1196l140 295h313l-274 -295h-179z" />
    <glyph glyph-name="Scedilla" unicode="&#x15e;" horiz-adv-x="1323" 
d="M536 -292q72 0 109.5 13.5t37.5 44.5q0 27 -22 40.5t-55 13.5q-31 0 -61 -7l40 166q-217 18 -350.5 143t-164.5 345l295 36q26 -144 98.5 -212t205.5 -68q80 0 141.5 22.5t95.5 63.5t34 97q0 64 -24.5 100t-96 65.5t-223.5 65.5q-179 43 -283 106t-147.5 145t-43.5 192
q0 120 61.5 213t179.5 145.5t282 52.5q236 0 375.5 -108.5t173.5 -315.5l-295 -33q-14 114 -79 163.5t-189 49.5q-94 0 -157.5 -38t-63.5 -107q0 -46 29 -78.5t99 -59.5t199 -57q194 -45 302.5 -108.5t152 -152t43.5 -219.5q0 -142 -69 -239.5t-184 -149t-257 -60.5l-15 -63
q106 -8 158 -46.5t52 -112.5q0 -53 -38.5 -95t-117.5 -66.5t-195 -24.5q-29 0 -76.5 3.5t-81.5 7.5l14 135q58 -8 111 -8z" />
    <glyph glyph-name="scedilla" unicode="&#x15f;" horiz-adv-x="1049" 
d="M400 -292q72 0 109.5 13.5t37.5 44.5q0 27 -22 40.5t-55 13.5q-31 0 -61 -7l40 166q-170 16 -268 98t-120 226l263 42q18 -84 68 -126.5t143 -42.5q80 0 128 30t48 83q0 29 -16 49.5t-59 36.5t-123 28q-221 34 -321 124t-100 240q0 97 51 169t146.5 110.5t226.5 38.5
q186 0 300 -74t138 -210l-268 -39q-12 59 -58.5 91t-116.5 32q-67 0 -108 -23.5t-41 -64.5q0 -31 19.5 -52.5t69 -39t138.5 -32.5q202 -34 298 -114.5t96 -226.5q0 -96 -47 -173t-136 -125t-211 -57l-15 -62q106 -8 158 -46.5t52 -112.5q0 -53 -38.5 -95t-117.5 -66.5
t-195 -24.5q-29 0 -76.5 3.5t-81.5 7.5l14 135q58 -8 111 -8z" />
    <glyph glyph-name="Scaron" unicode="&#x160;" horiz-adv-x="1323" 
d="M631 1247q-94 0 -157.5 -38t-63.5 -107q0 -46 29 -78.5t99 -59.5t199 -57q194 -45 302.5 -108.5t152 -152t43.5 -219.5q0 -152 -79.5 -253.5t-209.5 -150t-285 -48.5q-249 0 -403 127t-188 365l295 36q26 -144 98.5 -212t205.5 -68q80 0 141.5 22.5t95.5 63.5t34 97
q0 64 -24.5 100t-96 65.5t-223.5 65.5q-179 43 -283 106t-147.5 145t-43.5 192q0 120 61.5 213t179.5 145.5t282 52.5q236 0 375.5 -108.5t173.5 -315.5l-295 -33q-14 114 -79 163.5t-189 49.5zM550 1862l114 -140l114 140h235l-220 -295h-258l-220 295h235z" />
    <glyph glyph-name="scaron" unicode="&#x161;" horiz-adv-x="1049" 
d="M511 885q-67 0 -108 -23.5t-41 -64.5q0 -31 19.5 -52.5t69 -39t138.5 -32.5q202 -34 298 -114.5t96 -226.5q0 -102 -54 -183.5t-155.5 -127.5t-238.5 -46q-209 0 -329 83.5t-145 244.5l263 42q18 -84 68 -126.5t143 -42.5q80 0 128 30t48 83q0 29 -16 49.5t-59 36.5
t-123 28q-221 34 -321 124t-100 240q0 97 51 169t146.5 110.5t226.5 38.5q186 0 300 -74t138 -210l-268 -39q-12 59 -58.5 91t-116.5 32zM400 1491l114 -150l114 150h225l-210 -295h-258l-210 295h225z" />
    <glyph glyph-name="uni0162" unicode="&#x162;" horiz-adv-x="1243" 
d="M644 -85q106 -8 158 -46.5t52 -112.5q0 -53 -38.5 -95t-117.5 -66.5t-195 -24.5q-29 0 -76.5 3.5t-81.5 7.5l14 135q58 -8 111 -8q72 0 109.5 13.5t37.5 44.5q0 27 -22 40.5t-55 13.5q-31 0 -61 -7l45 187h-50v1218h-424v248h1143v-248h-424v-1218h-105z" />
    <glyph glyph-name="uni0163" unicode="&#x163;" horiz-adv-x="713" 
d="M661 -244q0 -53 -38.5 -95t-117.5 -66.5t-195 -24.5q-29 0 -76.5 3.5t-81.5 7.5l14 135q58 -8 111 -8q72 0 109.5 13.5t37.5 44.5q0 27 -22 40.5t-55 13.5q-31 0 -61 -7l43 177q-88 24 -123.5 97t-35.5 215v536h-150v223h150v194l281 199v-393h198v-223h-198v-517
q0 -46 6.5 -69.5t23 -33t49.5 -9.5q52 0 111 16l35 -217q-93 -31 -211 -33l-14 -60q106 -8 158 -46.5t52 -112.5z" />
    <glyph glyph-name="Tcaron" unicode="&#x164;" horiz-adv-x="1243" 
d="M769 1218v-1218h-295v1218h-424v248h1143v-248h-424zM508 1862l114 -140l114 140h235l-220 -295h-258l-220 295h235z" />
    <glyph glyph-name="tcaron" unicode="&#x165;" horiz-adv-x="841" 
d="M649 1061v-223h-198v-517q0 -46 6.5 -69.5t23 -33t49.5 -9.5q52 0 111 16l35 -217q-46 -15 -102 -24t-113 -9q-112 0 -175 31t-89.5 101.5t-26.5 194.5v536h-150v223h150v194l281 199v-393h198zM606 1104l-53 114q79 21 113 58.5t37 102.5h-130v257h268v-193
q0 -96 -20 -157.5t-70.5 -104.5t-144.5 -77z" />
    <glyph glyph-name="Umacron" unicode="&#x16a;" horiz-adv-x="1462" 
d="M739 229q113 0 173.5 37t84.5 115.5t24 215.5v869h295v-862q0 -224 -54 -361t-178 -202.5t-338 -65.5q-225 0 -356.5 69t-187.5 205.5t-56 352.5v864h295v-873q0 -131 30.5 -210.5t95.5 -116.5t172 -37zM409 1616v197h646v-197h-646z" />
    <glyph glyph-name="umacron" unicode="&#x16b;" horiz-adv-x="1219" 
d="M581 190q52 0 101.5 24.5t83 87.5t33.5 169v590h281v-1061h-262v139q-56 -79 -139.5 -121.5t-182.5 -42.5q-177 0 -269.5 94t-92.5 264v728h281v-663q0 -106 40 -157t126 -51zM309 1249v187h606v-187h-606z" />
    <glyph glyph-name="Ubreve" unicode="&#x16c;" horiz-adv-x="1462" 
d="M739 229q113 0 173.5 37t84.5 115.5t24 215.5v869h295v-862q0 -224 -54 -361t-178 -202.5t-338 -65.5q-225 0 -356.5 69t-187.5 205.5t-56 352.5v864h295v-873q0 -131 30.5 -210.5t95.5 -116.5t172 -37zM731 1731q70 0 105 34t45 97h176q-14 -146 -98.5 -224.5
t-227.5 -78.5q-144 0 -227.5 74.5t-98.5 228.5h176q8 -65 47.5 -98t102.5 -33z" />
    <glyph glyph-name="ubreve" unicode="&#x16d;" horiz-adv-x="1219" 
d="M581 190q52 0 101.5 24.5t83 87.5t33.5 169v590h281v-1061h-262v139q-56 -79 -139.5 -121.5t-182.5 -42.5q-177 0 -269.5 94t-92.5 264v728h281v-663q0 -106 40 -157t126 -51zM609 1350q71 0 105.5 35.5t44.5 105.5h166q-14 -147 -94.5 -225t-221.5 -78q-142 0 -221.5 74
t-94.5 229h166q8 -71 47 -106t103 -35z" />
    <glyph glyph-name="Uring" unicode="&#x16e;" horiz-adv-x="1462" 
d="M739 229q113 0 173.5 37t84.5 115.5t24 215.5v869h295v-862q0 -224 -54 -361t-178 -202.5t-338 -65.5q-225 0 -356.5 69t-187.5 205.5t-56 352.5v864h295v-873q0 -131 30.5 -210.5t95.5 -116.5t172 -37zM536 1727q0 57 26.5 101.5t71.5 69.5t99 25q53 0 98 -25t71 -69.5
t26 -101.5q0 -54 -26.5 -99t-71.5 -70.5t-97 -25.5q-53 0 -98 25.5t-72 70.5t-27 99zM732 1817q-40 0 -64.5 -25.5t-24.5 -64.5t24.5 -63.5t65.5 -24.5q39 0 63.5 24t24.5 64q0 38 -24.5 64t-64.5 26z" />
    <glyph glyph-name="uring" unicode="&#x16f;" horiz-adv-x="1219" 
d="M581 190q52 0 101.5 24.5t83 87.5t33.5 169v590h281v-1061h-262v139q-56 -79 -139.5 -121.5t-182.5 -42.5q-177 0 -269.5 94t-92.5 264v728h281v-663q0 -106 40 -157t126 -51zM485 1219q-58 58 -58 137q0 82 57 139q58 57 140 57q81 0 138 -58q57 -57 57 -138
q0 -79 -58 -137q-57 -58 -137 -58q-81 0 -139 58zM623 1446q-36 0 -62.5 -27t-26.5 -63q0 -37 26.5 -62.5t63.5 -25.5q36 0 62 26t26 62q0 37 -26 63.5t-63 26.5z" />
    <glyph glyph-name="Uhungarumlaut" unicode="&#x170;" horiz-adv-x="1462" 
d="M739 229q113 0 173.5 37t84.5 115.5t24 215.5v869h295v-862q0 -224 -54 -361t-178 -202.5t-338 -65.5q-225 0 -356.5 69t-187.5 205.5t-56 352.5v864h295v-873q0 -131 30.5 -210.5t95.5 -116.5t172 -37zM456 1567l130 295h313l-265 -295h-178zM837 1567l130 295h313
l-264 -295h-179z" />
    <glyph glyph-name="uhungarumlaut" unicode="&#x171;" horiz-adv-x="1219" 
d="M581 190q52 0 101.5 24.5t83 87.5t33.5 169v590h281v-1061h-262v139q-56 -79 -139.5 -121.5t-182.5 -42.5q-177 0 -269.5 94t-92.5 264v728h281v-663q0 -106 40 -157t126 -51zM342 1196l140 295h303l-275 -295h-168zM723 1196l140 295h303l-274 -295h-169z" />
    <glyph glyph-name="Uogonek" unicode="&#x172;" horiz-adv-x="1462" 
d="M1316 604q0 -196 -40.5 -324t-132.5 -201t-247 -95q-50 -84 -50 -163q0 -51 25 -74t78 -23q29 0 67.5 6t68.5 18v-137q-38 -19 -88 -30t-102 -11q-120 0 -174.5 51t-54.5 148q0 107 67 206q-220 2 -348.5 71.5t-183.5 205.5t-55 350v864h295v-873q0 -131 30.5 -210.5
t95.5 -116.5t172 -37q113 0 173.5 37t84.5 115.5t24 215.5v869h295v-862z" />
    <glyph glyph-name="uogonek" unicode="&#x173;" horiz-adv-x="1219" 
d="M1151 -252v-137q-38 -19 -88 -30t-102 -11q-120 0 -174.5 51t-54.5 148q0 60 22 119t64 113v138q-56 -79 -139.5 -121.5t-182.5 -42.5q-177 0 -269.5 94t-92.5 264v728h281v-663q0 -106 40 -157t126 -51q52 0 101.5 24.5t83 87.5t33.5 169v590h281v-1061h-108
q-60 -91 -60 -179q0 -51 25 -74t78 -23q29 0 67.5 6t68.5 18z" />
    <glyph glyph-name="Ydieresis" unicode="&#x178;" horiz-adv-x="1340" 
d="M673 862h4q40 86 108 208l220 396h340l-528 -852v-614h-295v616l-527 850h346l224 -395q65 -114 108 -209zM333 1596v251h252v-251h-252zM763 1596v251h252v-251h-252z" />
    <glyph glyph-name="Zacute" unicode="&#x179;" horiz-adv-x="1251" 
d="M380 248h833v-248h-1189v266l770 952h-684v248h1073v-231zM505 1567l125 295h328l-259 -295h-194z" />
    <glyph glyph-name="zacute" unicode="&#x17a;" horiz-adv-x="1030" 
d="M419 248h567v-248h-948v219l535 608h-496v234h876v-199zM396 1196l140 295h313l-274 -295h-179z" />
    <glyph glyph-name="Zdotaccent" unicode="&#x17b;" horiz-adv-x="1251" 
d="M380 248h833v-248h-1189v266l770 952h-684v248h1073v-231zM485 1596v271h291v-271h-291z" />
    <glyph glyph-name="zdotaccent" unicode="&#x17c;" horiz-adv-x="1030" 
d="M419 248h567v-248h-948v219l535 608h-496v234h876v-199zM373 1225v261h281v-261h-281z" />
    <glyph glyph-name="Zcaron" unicode="&#x17d;" horiz-adv-x="1251" 
d="M380 248h833v-248h-1189v266l770 952h-684v248h1073v-231zM525 1862l114 -140l114 140h235l-220 -295h-258l-220 295h235z" />
    <glyph glyph-name="zcaron" unicode="&#x17e;" horiz-adv-x="1030" 
d="M419 248h567v-248h-948v219l535 608h-496v234h876v-199zM401 1491l114 -150l114 150h225l-210 -295h-258l-210 295h225z" />
    <glyph glyph-name="uni0181" unicode="&#x181;" horiz-adv-x="1686" 
d="M31 941q-11 35 -21 100.5t-10 108.5q0 158 89 237t276 79h693q235 0 351 -96.5t116 -286.5q0 -103 -54.5 -181.5t-152.5 -121.5q134 -39 206 -132t72 -222q0 -210 -142 -318t-398 -108h-626v1217h-57q-80 0 -119 -34.5t-39 -109.5q0 -25 6 -60.5t19 -71.5h-209zM1021 248
q151 0 210 47.5t59 139.5q0 105 -67.5 152.5t-204.5 47.5h-293v-387h296zM1022 883q105 0 160 41t55 126q0 82 -51 125t-168 43h-293v-335h297z" />
    <glyph glyph-name="uni0186" unicode="&#x186;" horiz-adv-x="1485" 
d="M99 1061q63 214 217 322t395 108q314 0 500 -200t186 -546q0 -364 -182.5 -567t-503.5 -203q-244 0 -410.5 129.5t-218.5 352.5l293 69q34 -138 127 -217.5t217 -79.5q175 0 274 137t99 373q0 227 -100 362.5t-277 135.5q-130 0 -209.5 -63t-114.5 -183z" />
    <glyph glyph-name="uni0189" unicode="&#x189;" horiz-adv-x="1471" 
d="M1383 722q0 -336 -160.5 -529t-495.5 -193h-573v629h-152v205h152v632h576q653 0 653 -744zM1077 731q0 181 -41 287t-126.5 153t-227.5 47h-233v-384h313v-205h-313v-381h237q147 0 231.5 45.5t122 150t37.5 287.5z" />
    <glyph glyph-name="uni018A" unicode="&#x18a;" horiz-adv-x="1746" 
d="M1005 1466q327 0 490 -187t163 -557q0 -349 -167.5 -535.5t-488.5 -186.5h-573v1217h-56q-80 0 -119 -34.5t-39 -109.5q0 -25 6 -60.5t19 -71.5h-209q-11 35 -21 100.5t-10 108.5q0 158 89 237t276 79h640zM961 248q223 0 307 107.5t84 375.5q0 258 -87.5 372.5
t-307.5 114.5h-233v-970h237z" />
    <glyph glyph-name="uni018E" unicode="&#x18e;" horiz-adv-x="1253" 
d="M1099 1466v-1466h-1001v248h706v387h-616v248h616v335h-671v248h966z" />
    <glyph glyph-name="uni018F" unicode="&#x18f;" horiz-adv-x="1587" 
d="M88 862h1094q-18 181 -120 278t-269 97q-145 0 -243.5 -59.5t-138.5 -168.5l-302 47q78 213 253.5 325t430.5 112q335 0 520.5 -198.5t185.5 -552.5q0 -210 -84 -385t-246.5 -278.5t-383.5 -103.5q-322 0 -509.5 202.5t-187.5 567.5v117zM1183 614h-778
q17 -182 117.5 -283.5t271.5 -101.5q155 0 261.5 102.5t127.5 282.5z" />
    <glyph glyph-name="uni0190" unicode="&#x190;" horiz-adv-x="1376" 
d="M368 798q-104 49 -155.5 126.5t-51.5 168.5q0 200 140 299t417 99q174 0 322 -67t254 -198l-194 -156q-67 79 -161.5 128t-213.5 49q-129 0 -197.5 -42.5t-68.5 -120.5q0 -81 65 -129t196 -48h177v-235h-146q-179 0 -265 -60.5t-86 -162.5q0 -107 83.5 -168.5
t230.5 -61.5q106 0 204 35t215 123l169 -207q-143 -110 -283 -152.5t-299 -42.5q-310 0 -468 115.5t-158 345.5q0 133 74.5 231.5t199.5 126.5v4z" />
    <glyph glyph-name="uni0191" unicode="&#x191;" horiz-adv-x="1201" 
d="M1137 1466v-248h-691v-363h615v-247h-615v-634q0 -209 -77.5 -306.5t-254.5 -97.5q-48 0 -101.5 9.5t-95.5 21.5l45 230q16 -3 34.5 -5.5t39.5 -2.5q60 0 88 31.5t28 122.5v1489h985z" />
    <glyph glyph-name="florin" unicode="&#x192;" horiz-adv-x="1163" 
d="M891 1229q-53 0 -79 -24t-35 -59t-22 -115h207l-36 -204h-204l-156 -866q-29 -159 -80 -244t-122.5 -116t-177.5 -31q-40 0 -118 11.5t-128 27.5l58 221q108 -23 132 -23q48 0 78 14.5t49 50t30 99.5l150 856h-201l35 204h201l13 69q22 126 61.5 205t115.5 122t203 43
q34 0 110 -13t128 -30l-56 -225q-51 15 -87 21t-69 6z" />
    <glyph glyph-name="uni0194" unicode="&#x194;" horiz-adv-x="1352" 
d="M369 -151q0 97 40 213t100 247l-505 1157h322l267 -646q26 -63 44 -122.5t32 -122.5q17 65 38 122.5t48 120.5l280 648h313l-521 -1148q70 -141 106 -253.5t36 -217.5q0 -125 -83 -202t-220 -77t-217 75.5t-80 205.5zM722.5 -30q-19.5 67 -54.5 125q-31 -54 -51.5 -119
t-20.5 -116q0 -57 20 -82.5t52 -25.5q35 0 54.5 24t19.5 80q0 47 -19.5 114z" />
    <glyph glyph-name="uni0198" unicode="&#x198;" horiz-adv-x="1452" 
d="M808 1213q169 187 251 232.5t178 45.5q55 0 97 -12t71 -25l-64 -242q-25 11 -45 16.5t-42 5.5q-38 0 -71 -23.5t-75 -70.5l-233 -256l572 -884h-368l-409 677l-221 -235v-442h-295v1466h295v-651z" />
    <glyph glyph-name="uni0199" unicode="&#x199;" horiz-adv-x="1142" 
d="M420 688l335 373h341l-363 -387l387 -674h-318l-260 479l-122 -129v-350h-281v1126q0 203 86 284t258 81q49 0 121 -10t113 -21l-53 -209q-36 13 -71.5 19t-60.5 6q-64 0 -88 -34.5t-24 -123.5v-430z" />
    <glyph glyph-name="Ohorn" unicode="&#x1a0;" horiz-adv-x="1608" 
d="M88 725q0 232 87.5 405.5t249.5 267t378 93.5q140 0 257.5 -39.5t208.5 -115.5q83 5 116.5 64t33.5 184h239q0 -125 -24.5 -205.5t-80.5 -127t-153 -63.5q59 -93 89.5 -208.5t30.5 -248.5q0 -222 -86.5 -393.5t-247.5 -267t-379 -95.5t-381 94.5t-250.5 265t-87.5 390.5z
M803 1237q-126 0 -218.5 -64.5t-141.5 -178.5t-49 -261t48 -261t141 -178.5t222 -64.5q127 0 219.5 64t141 179t48.5 265q0 144 -48.5 257.5t-141 178t-221.5 64.5z" />
    <glyph glyph-name="ohorn" unicode="&#x1a1;" horiz-adv-x="1313" 
d="M70 537q0 156 64 281t185 196t285 71q123 0 221.5 -39t168.5 -111q66 13 94 72t28 172h239q0 -125 -24.5 -207t-80.5 -131t-152 -67q44 -109 44 -239q0 -164 -64 -290.5t-185 -198t-287 -71.5t-287 71.5t-185 198.5t-64 292zM603 856q-70 0 -125.5 -39t-87.5 -113
t-32 -174q0 -99 30 -172.5t85.5 -113t130.5 -39.5t131.5 39t87.5 113t31 175q0 97 -30 170t-86.5 113.5t-134.5 40.5z" />
    <glyph glyph-name="Uhorn" unicode="&#x1af;" horiz-adv-x="1647" 
d="M739 229q113 0 173.5 37t84.5 115.5t24 215.5v869h295v-129q78 7 110 66t32 181h239q0 -149 -35 -238t-118 -133t-228 -46v-563q0 -224 -54 -361t-178 -202.5t-338 -65.5q-225 0 -356.5 69t-187.5 205.5t-56 352.5v864h295v-873q0 -131 30.5 -210.5t95.5 -116.5t172 -37z
" />
    <glyph glyph-name="uhorn" unicode="&#x1b0;" horiz-adv-x="1413" 
d="M581 190q52 0 101.5 24.5t83 87.5t33.5 169v590h281v-129q74 9 105 68.5t31 178.5h239q0 -147 -34.5 -236.5t-116 -133.5t-224.5 -47v-762h-262v139q-56 -79 -139.5 -121.5t-182.5 -42.5q-177 0 -269.5 94t-92.5 264v728h281v-663q0 -106 40 -157t126 -51z" />
    <glyph glyph-name="uni01B2" unicode="&#x1b2;" horiz-adv-x="1462" 
d="M1021 1049q0 105 -25.5 146.5t-97.5 41.5q-27 0 -60 -6t-72 -20l-69 244q37 12 112 24t139 12q188 0 278 -97.5t90 -332.5v-457q0 -349 -133 -489t-437 -140q-316 0 -458 142t-142 485v864h295v-873q0 -196 69 -280t229 -84q159 0 220.5 78t61.5 290v452z" />
    <glyph glyph-name="uni01B3" unicode="&#x1b3;" horiz-adv-x="1340" 
d="M817 614v-614h-295v616l-527 850h346l224 -395q29 -51 57 -104.5t51 -104.5h4l48 106q25 55 51 107l67 128q94 181 169 234.5t189 53.5q58 0 94.5 -12.5t59.5 -25.5l-63 -234q-20 9 -34 12t-30 3q-37 0 -61 -28.5t-51 -73.5z" />
    <glyph glyph-name="uni01B4" unicode="&#x1b4;" horiz-adv-x="1139" 
d="M727 848q37 127 104 182t181 55q40 0 82 -9t70 -20l-54 -208q-12 5 -21 6.5t-20 1.5q-43 0 -65.5 -39.5t-57.5 -140.5l-244 -707q-72 -206 -161 -302.5t-271 -96.5q-35 0 -79.5 5.5t-112.5 21.5l47 215q28 -8 52.5 -13.5t45.5 -5.5q82 0 122 45.5t79 159.5l-406 1063h299
l207 -604q17 -50 27 -87t18 -63h4l22 90q10 43 19 72z" />
    <glyph glyph-name="uni01B7" unicode="&#x1b7;" horiz-adv-x="1376" 
d="M874 901q195 -29 301.5 -141.5t106.5 -298.5q0 -241 -153.5 -363.5t-472.5 -122.5q-166 0 -307 45t-275 150l169 207q116 -87 214 -122.5t205 -35.5q147 0 230.5 61.5t83.5 168.5q0 102 -86 162.5t-265 60.5h-146v234l291 312h-557v248h983v-231z" />
    <glyph glyph-name="uni01DD" unicode="&#x1dd;" horiz-adv-x="1171" 
d="M70 624h746q-10 120 -69 183t-156 63q-93 0 -149 -42t-77 -106l-280 44q57 156 182 237.5t309 81.5q250 0 388 -145.5t138 -403.5q0 -244 -144 -402.5t-378 -158.5q-237 0 -373.5 149t-136.5 414v86zM815 419h-465q11 -113 71 -171t158 -58q97 0 161 62.5t75 166.5z" />
    <glyph glyph-name="uni0218" unicode="&#x218;" horiz-adv-x="1323" 
d="M631 1247q-94 0 -157.5 -38t-63.5 -107q0 -46 29 -78.5t99 -59.5t199 -57q194 -45 302.5 -108.5t152 -152t43.5 -219.5q0 -152 -79.5 -253.5t-209.5 -150t-285 -48.5q-249 0 -403 127t-188 365l295 36q26 -144 98.5 -212t205.5 -68q80 0 141.5 22.5t95.5 63.5t34 97
q0 64 -24.5 100t-96 65.5t-223.5 65.5q-179 43 -283 106t-147.5 145t-43.5 192q0 120 61.5 213t179.5 145.5t282 52.5q236 0 375.5 -108.5t173.5 -315.5l-295 -33q-14 114 -79 163.5t-189 49.5zM656 -253h-139v178h288v-132q0 -89 -29 -139.5t-88 -72.5t-156 -26l-15 111
q77 1 108 22t31 59z" />
    <glyph glyph-name="uni0219" unicode="&#x219;" horiz-adv-x="1049" 
d="M511 885q-67 0 -108 -23.5t-41 -64.5q0 -31 19.5 -52.5t69 -39t138.5 -32.5q202 -34 298 -114.5t96 -226.5q0 -102 -54 -183.5t-155.5 -127.5t-238.5 -46q-209 0 -329 83.5t-145 244.5l263 42q18 -84 68 -126.5t143 -42.5q80 0 128 30t48 83q0 29 -16 49.5t-59 36.5
t-123 28q-221 34 -321 124t-100 240q0 97 51 169t146.5 110.5t226.5 38.5q186 0 300 -74t138 -210l-268 -39q-12 59 -58.5 91t-116.5 32zM519 -253h-139v178h288v-132q0 -89 -29 -139.5t-88 -72.5t-156 -26l-15 111q77 1 108 22t31 59z" />
    <glyph glyph-name="uni021A" unicode="&#x21a;" horiz-adv-x="1243" 
d="M769 1218v-1218h-295v1218h-424v248h1143v-248h-424zM616 -253h-139v178h288v-132q0 -89 -29 -139.5t-88 -72.5t-156 -26l-15 111q77 1 108 22t31 59z" />
    <glyph glyph-name="uni021B" unicode="&#x21b;" horiz-adv-x="713" 
d="M649 1061v-223h-198v-517q0 -46 6.5 -69.5t23 -33t49.5 -9.5q52 0 111 16l35 -217q-46 -15 -102 -24t-113 -9q-112 0 -175 31t-89.5 101.5t-26.5 194.5v536h-150v223h150v194l281 199v-393h198zM413 -253h-139v178h288v-132q0 -89 -29 -139.5t-88 -72.5t-156 -26l-15 111
q77 1 108 22t31 59z" />
    <glyph glyph-name="uni0253" unicode="&#x253;" horiz-adv-x="1253" 
d="M139 1126q0 203 86 284t258 81q49 0 121 -10t113 -21l-53 -209q-36 13 -71.5 19t-60.5 6q-64 0 -88 -34.5t-24 -123.5v-176h4q63 73 140 108t168 35q203 0 327 -149t124 -395q0 -251 -125.5 -408.5t-322.5 -157.5q-113 0 -192 40t-138 125h-4v-140h-262v1126zM483 778.5
q-65 -82.5 -65 -225.5q0 -178 67.5 -266t181.5 -88q105 0 166.5 87t61.5 241q0 161 -60.5 247.5t-178.5 86.5q-108 0 -173 -82.5z" />
    <glyph glyph-name="uni0254" unicode="&#x254;" horiz-adv-x="1127" 
d="M80 743q41 167 159.5 254.5t306.5 87.5q237 0 374 -148t137 -406q0 -252 -134.5 -404t-369.5 -152q-200 0 -321.5 93.5t-166.5 291.5l276 48q16 -100 68 -151.5t130 -51.5q108 0 169 86t61 239q0 158 -59 244.5t-166 86.5q-76 0 -124 -43.5t-65 -124.5z" />
    <glyph glyph-name="uni0256" unicode="&#x256;" horiz-adv-x="1253" 
d="M833 1466h281v-1494q0 -91 28 -122.5t88 -31.5q21 0 39.5 2.5t34.5 5.5l45 -225q-42 -12 -95.5 -21.5t-101.5 -9.5q-162 0 -231 99t-69 305v155h-4q-61 -81 -139.5 -117.5t-178.5 -36.5q-205 0 -332.5 156t-127.5 410q0 244 126.5 394t331.5 150q94 0 171 -35.5
t131 -101.5h3v518zM422 772q-64 -89 -64 -245q0 -154 62 -241t171 -87q121 0 182.5 86t61.5 247q0 146 -65.5 237.5t-171.5 91.5q-112 0 -176 -89z" />
    <glyph glyph-name="uni0257" unicode="&#x257;" horiz-adv-x="1253" 
d="M833 1131q0 198 62.5 279t220.5 81q51 0 97.5 -9.5t81.5 -22.5l-40 -195q-12 3 -32 5.5t-34 2.5q-41 0 -58 -31.5t-17 -121.5v-1119h-262v129h-4q-61 -81 -139.5 -117.5t-178.5 -36.5q-205 0 -332.5 156t-127.5 410q0 244 126.5 394t331.5 150q94 0 171 -35.5t131 -101.5
h3v183zM422 772q-64 -89 -64 -245q0 -154 62 -241t171 -87q121 0 182.5 86t61.5 247q0 146 -65.5 237.5t-171.5 91.5q-112 0 -176 -89z" />
    <glyph glyph-name="uni0259" unicode="&#x259;" horiz-adv-x="1171" 
d="M70 624h746q-10 120 -69 183t-156 63q-93 0 -149 -42t-77 -106l-280 44q57 156 182 237.5t309 81.5q250 0 388 -145.5t138 -403.5q0 -244 -144 -402.5t-378 -158.5q-237 0 -373.5 149t-136.5 414v86zM815 419h-465q11 -113 71 -171t158 -58q97 0 161 62.5t75 166.5z" />
    <glyph glyph-name="uni025B" unicode="&#x25b;" horiz-adv-x="1009" 
d="M538 871q-83 0 -119 -30.5t-36 -74.5q0 -50 36.5 -78.5t114.5 -28.5h129v-215h-126q-91 0 -131 -36.5t-40 -92.5q0 -54 39.5 -89t123.5 -35q164 0 278 114l152 -187q-174 -142 -426 -142q-150 0 -252 39t-152.5 109t-50.5 165q0 93 53.5 165.5t164.5 100.5
q-103 32 -147 91.5t-44 149.5q0 86 46.5 151t141.5 102t236 37q262 0 424 -195l-182 -147q-49 61 -104 94t-129 33z" />
    <glyph glyph-name="uni0263" unicode="&#x263;" horiz-adv-x="1124" 
d="M275 -165q0 67 24 149.5t109 253.5l-388 823h293l191 -442q21 -49 34.5 -94t21.5 -94h5q10 51 22.5 93.5t34.5 94.5l189 442h293l-399 -837q58 -109 94 -210.5t36 -180.5q0 -114 -79 -189.5t-203 -75.5t-201 74.5t-77 192.5zM606 -60q-18 59 -51 118q-35 -58 -52 -115.5
t-17 -95.5q0 -52 20 -76t49 -24t49 22.5t20 73.5q0 38 -18 97z" />
    <glyph glyph-name="uni0283" unicode="&#x283;" 
d="M-64 -192q36 -13 71.5 -19t60.5 -6q66 0 89 35.5t23 122.5v1185q0 203 86 284t258 81q49 0 121 -10t113 -21l-53 -209q-36 13 -71.5 19t-60.5 6q-64 0 -88 -34.5t-24 -123.5v-1185q0 -203 -86 -284t-258 -81q-49 0 -121 10t-113 21z" />
    <glyph glyph-name="uni028B" unicode="&#x28b;" horiz-adv-x="1211" 
d="M1081 742v-264q0 -254 -119 -378.5t-353 -124.5q-237 0 -356 122.5t-119 380.5v583h281v-588q0 -162 43.5 -223t154.5 -61q97 0 141.5 59t44.5 234v255q0 120 -82 120q-23 0 -41 -4.5t-38 -12.5l-55 215q35 13 87.5 20.5t107.5 7.5q159 0 231 -83t72 -258z" />
    <glyph glyph-name="uni0292" unicode="&#x292;" horiz-adv-x="1163" 
d="M734 492q168 -43 250 -152.5t82 -285.5q0 -230 -131.5 -357.5t-366.5 -127.5q-146 0 -263 40.5t-208 114.5l166 204q67 -67 143 -95.5t151 -28.5q97 0 155.5 68t58.5 171q0 102 -57 160t-164 58h-165v219l267 347h-474v234h836v-199z" />
    <glyph glyph-name="uni02BB" unicode="&#x2bb;" horiz-adv-x="568" 
d="M393 1481l57 -122q-85 -28 -121.5 -76.5t-39.5 -129.5h139v-288h-288v219q0 112 21.5 184t76 123t155.5 90z" />
    <glyph glyph-name="uni02BC" unicode="&#x2bc;" horiz-adv-x="568" 
d="M175 850l-57 122q85 27 121.5 75t39.5 131h-139v288h288v-219q0 -112 -21.5 -184t-76 -123t-155.5 -90z" />
    <glyph glyph-name="circumflex" unicode="&#x2c6;" 
d="M455 1196l-114 150l-114 -150h-225l210 295h258l210 -295h-225z" />
    <glyph glyph-name="caron" unicode="&#x2c7;" 
d="M227 1491l114 -150l114 150h225l-210 -295h-258l-210 295h225z" />
    <glyph glyph-name="uni02C9" unicode="&#x2c9;" 
d="M38 1249v187h606v-187h-606z" />
    <glyph glyph-name="breve" unicode="&#x2d8;" 
d="M341 1350q71 0 105.5 35.5t44.5 105.5h166q-14 -147 -94.5 -225t-221.5 -78q-142 0 -221.5 74t-94.5 229h166q8 -71 47 -106t103 -35z" />
    <glyph glyph-name="dotaccent" unicode="&#x2d9;" 
d="M200 1225v261h281v-261h-281z" />
    <glyph glyph-name="ogonek" unicode="&#x2db;" 
d="M330 -179q0 -51 25 -74t78 -23q29 0 67.5 6t68.5 18v-137q-38 -19 -88 -30t-102 -11q-120 0 -174.5 51t-54.5 148q0 63 24.5 126t72.5 120h153q-70 -100 -70 -194z" />
    <glyph glyph-name="tilde" unicode="&#x2dc;" 
d="M485 1217q-43 0 -81 11.5t-84 32.5q-38 17 -63.5 25t-47.5 8q-31 0 -46 -20.5t-15 -65.5v-2h-144v5q0 133 47 201.5t146 68.5q41 0 74 -10.5t74 -30.5q39 -19 66.5 -27.5t58.5 -8.5q28 0 46 22t18 65h144q0 -139 -46.5 -206.5t-146.5 -67.5z" />
    <glyph glyph-name="hungarumlaut" unicode="&#x2dd;" 
d="M56 1196l140 295h303l-275 -295h-168zM437 1196l140 295h303l-274 -295h-169z" />
    <glyph glyph-name="gravecomb" unicode="&#x300;" horiz-adv-x="0" 
d="M-627 1196l-274 295h313l140 -295h-179z" />
    <glyph glyph-name="acutecomb" unicode="&#x301;" horiz-adv-x="0" 
d="M-758 1196l140 295h313l-274 -295h-179z" />
    <glyph glyph-name="tildecomb" unicode="&#x303;" horiz-adv-x="0" 
d="M-459 1217q-43 0 -81 11.5t-85 32.5q-37 17 -62.5 25t-47.5 8q-31 0 -46 -20.5t-15 -65.5v-2h-144v5q0 133 47 201.5t146 68.5q39 0 73 -10.5t75 -30.5q40 -19 66.5 -27.5t58.5 -8.5q28 0 46 22t18 65h144q0 -139 -46.5 -206.5t-146.5 -67.5z" />
    <glyph glyph-name="hookabovecomb" unicode="&#x309;" horiz-adv-x="0" 
d="M-782 1534q35 5 63 7.5t71 2.5q142 0 210 -42t68 -128q0 -80 -50 -115.5t-150 -44.5v-48h-140v128q103 0 103 54q0 28 -19.5 43t-57.5 15q-53 0 -111 -8l-14 132z" />
    <glyph glyph-name="dotbelowcomb" unicode="&#x323;" horiz-adv-x="0" 
d="M-744 -415v261h281v-261h-281z" />
    <glyph glyph-name="uni0374" unicode="&#x374;" 
d="M589 1466l-194 -495h-179l60 495h313z" />
    <glyph glyph-name="uni0375" unicode="&#x375;" 
d="M93 -314l194 495h179l-60 -495h-313z" />
    <glyph glyph-name="tonos" unicode="&#x384;" 
d="M216 1171l60 295h313l-194 -295h-179z" />
    <glyph glyph-name="dieresistonos" unicode="&#x385;" 
d="M221 1191l30 295h263l-134 -295h-159zM-71 1225v221h212v-221h-212zM541 1225v221h212v-221h-212z" />
    <glyph glyph-name="Alphatonos" unicode="&#x386;" horiz-adv-x="1460" 
d="M1133 0l-127 332h-566l-121 -332h-315l571 1466h293l588 -1466h-323zM651 911l-121 -331h381l-123 331q-24 64 -42.5 131t-24.5 109h-8q-18 -120 -62 -240zM0 1171l60 295h313l-194 -295h-179z" />
    <glyph glyph-name="Epsilontonos" unicode="&#x388;" horiz-adv-x="1539" 
d="M0 1171l60 295h313l-194 -295h-179zM735 1218v-335h616v-248h-616v-387h706v-248h-1001v1466h966v-248h-671z" />
    <glyph glyph-name="Etatonos" unicode="&#x389;" horiz-adv-x="1763" 
d="M0 1171l60 295h313l-194 -295h-179zM1314 901v565h295v-1466h-295v653h-579v-653h-295v1466h295v-565h579z" />
    <glyph glyph-name="Iotatonos" unicode="&#x38a;" horiz-adv-x="889" 
d="M0 1171l60 295h313l-194 -295h-179zM440 0v1466h295v-1466h-295z" />
    <glyph glyph-name="Omicrontonos" unicode="&#x38c;" horiz-adv-x="1844" 
d="M0 1171l60 295h313l-194 -295h-179zM324 725q0 232 87.5 404.5t249.5 267t378 94.5q217 0 379 -94t250 -266t88 -400q0 -222 -86.5 -393.5t-247.5 -267t-379 -95.5t-381 94.5t-250.5 265t-87.5 390.5zM1039 1237q-126 0 -218.5 -64.5t-141.5 -178.5t-49 -261t48 -261
t141 -178.5t222 -64.5q127 0 219.5 64t141 179t48.5 265q0 144 -48.5 257.5t-141 178t-221.5 64.5z" />
    <glyph glyph-name="Upsilontonos" unicode="&#x38e;" horiz-adv-x="1746" 
d="M0 1171l60 295h313l-194 -295h-179zM1079 862h4q40 86 108 208l220 396h340l-528 -852v-614h-295v616l-527 850h346l224 -395q65 -114 108 -209z" />
    <glyph glyph-name="Omegatonos" unicode="&#x38f;" horiz-adv-x="1861" 
d="M1119 0v236q160 68 242 207t82 342q0 135 -48 237.5t-137.5 158.5t-209.5 56q-121 0 -210 -55.5t-136.5 -156.5t-47.5 -236q0 -203 81.5 -342t241.5 -211v-236h-651v248h294q-145 117 -208.5 248t-63.5 308q0 208 88.5 364t247.5 239.5t364 83.5q208 0 367.5 -87
t246.5 -243t87 -357q0 -163 -66 -301t-206 -255h294v-248h-652zM0 1171l60 295h313l-194 -295h-179z" />
    <glyph glyph-name="iotadieresistonos" unicode="&#x390;" horiz-adv-x="620" 
d="M515 223q28 0 70 8l35 -230q-89 -26 -177 -26q-156 0 -232.5 82.5t-76.5 266.5v737h281v-707q0 -45 7 -72.5t28.5 -43t64.5 -15.5zM155 1191l30 295h263l-134 -295h-159zM-137 1225v221h212v-221h-212zM475 1225v221h212v-221h-212z" />
    <glyph glyph-name="Alpha" unicode="&#x391;" horiz-adv-x="1460" 
d="M1133 0l-127 332h-566l-121 -332h-315l571 1466h293l588 -1466h-323zM651 911l-121 -331h381l-123 331q-24 64 -42.5 131t-24.5 109h-8q-18 -120 -62 -240z" />
    <glyph glyph-name="Beta" unicode="&#x392;" horiz-adv-x="1410" 
d="M1249 1083q0 -110 -56 -185.5t-151 -117.5q135 -39 206.5 -132.5t71.5 -221.5q0 -221 -149.5 -323.5t-370.5 -102.5h-646v1466h648q200 0 323.5 -90.5t123.5 -292.5zM961 1050q0 99 -61.5 133.5t-157.5 34.5h-293v-335h297q106 0 160.5 42t54.5 125zM1014 435
q0 96 -61.5 148t-210.5 52h-293v-387h300q71 0 128.5 12.5t97 54t39.5 120.5z" />
    <glyph glyph-name="Gamma" unicode="&#x393;" horiz-adv-x="1104" 
d="M1054 1466v-248h-605v-1218h-295v1466h900z" />
    <glyph glyph-name="uni0394" unicode="&#x394;" horiz-adv-x="1458" 
d="M1373 0h-1290v205l490 1261h296l504 -1263v-203zM782 934q-18 48 -35 108t-28 112h-4q-27 -126 -62 -221l-246 -685h630z" />
    <glyph glyph-name="Epsilon" unicode="&#x395;" horiz-adv-x="1253" 
d="M449 1218v-335h616v-248h-616v-387h706v-248h-1001v1466h966v-248h-671z" />
    <glyph glyph-name="Zeta" unicode="&#x396;" horiz-adv-x="1251" 
d="M380 248h833v-248h-1189v266l770 952h-684v248h1073v-231z" />
    <glyph glyph-name="Eta" unicode="&#x397;" horiz-adv-x="1477" 
d="M1028 901v565h295v-1466h-295v653h-579v-653h-295v1466h295v-565h579z" />
    <glyph glyph-name="Theta" unicode="&#x398;" horiz-adv-x="1608" 
d="M88 725q0 232 88 405.5t250.5 267t376.5 93.5q217 0 379 -94t250 -266t88 -400q0 -222 -86.5 -393.5t-247.5 -267t-379 -95.5t-381 94.5t-250.5 265t-87.5 390.5zM803 1243q-126 0 -220 -64.5t-144.5 -180.5t-50.5 -265t49.5 -264.5t143.5 -180.5t224 -65
q128 0 221.5 64.5t143.5 180.5t50 269q0 146 -49.5 261t-144 180t-223.5 65zM1084 615h-560v248h560v-248z" />
    <glyph glyph-name="Iota" unicode="&#x399;" horiz-adv-x="603" 
d="M154 0v1466h295v-1466h-295z" />
    <glyph glyph-name="Kappa" unicode="&#x39a;" horiz-adv-x="1452" 
d="M1038 1466h368l-531 -582l572 -884h-368l-409 677l-221 -235v-442h-295v1466h295v-651z" />
    <glyph glyph-name="Lambda" unicode="&#x39b;" horiz-adv-x="1352" 
d="M664 1095l-347 -1095h-313l519 1466h308l517 -1466h-322l-358 1095h-4z" />
    <glyph glyph-name="Mu" unicode="&#x39c;" horiz-adv-x="1784" 
d="M1185 1466h445v-1466h-275v1155l-319 -1155h-284l-323 1155v-1155h-275v1466h443l298 -1038z" />
    <glyph glyph-name="Nu" unicode="&#x39d;" horiz-adv-x="1469" 
d="M1040 1466h275v-1466h-297l-589 956v-956h-275v1466h287l599 -979v979z" />
    <glyph glyph-name="Xi" unicode="&#x39e;" horiz-adv-x="1285" 
d="M1158 1218h-1031v248h1031v-248zM1073 635h-861v248h861v-248zM1193 0h-1101v248h1101v-248z" />
    <glyph glyph-name="Omicron" unicode="&#x39f;" horiz-adv-x="1608" 
d="M88 725q0 232 87.5 404.5t249.5 267t378 94.5q217 0 379 -94t250 -266t88 -400q0 -222 -86.5 -393.5t-247.5 -267t-379 -95.5t-381 94.5t-250.5 265t-87.5 390.5zM803 1237q-126 0 -218.5 -64.5t-141.5 -178.5t-49 -261t48 -261t141 -178.5t222 -64.5q127 0 219.5 64
t141 179t48.5 265q0 144 -48.5 257.5t-141 178t-221.5 64.5z" />
    <glyph glyph-name="Pi" unicode="&#x3a0;" horiz-adv-x="1477" 
d="M1028 0v1218h-579v-1218h-295v1466h1169v-1466h-295z" />
    <glyph glyph-name="Rho" unicode="&#x3a1;" horiz-adv-x="1287" 
d="M1219 1015q0 -237 -134 -350t-413 -113h-223v-552h-295v1466h518q283 0 415 -114t132 -337zM913 1010q0 100 -60 154t-186 54h-218v-418h218q133 0 189.5 53.5t56.5 156.5z" />
    <glyph glyph-name="Sigma" unicode="&#x3a3;" horiz-adv-x="1199" 
d="M1093 1466v-248h-644l370 -461l-413 -509h733v-248h-1089v266l398 491l-388 478v231h1033z" />
    <glyph glyph-name="Tau" unicode="&#x3a4;" horiz-adv-x="1243" 
d="M769 1218v-1218h-295v1218h-424v248h1143v-248h-424z" />
    <glyph glyph-name="Upsilon" unicode="&#x3a5;" horiz-adv-x="1340" 
d="M673 862h4q40 86 108 208l220 396h340l-528 -852v-614h-295v616l-527 850h346l224 -395q65 -114 108 -209z" />
    <glyph glyph-name="Phi" unicode="&#x3a6;" horiz-adv-x="1647" 
d="M82 741q0 172 70.5 297t205 195.5t325.5 81.5v151h281v-151q191 -11 325.5 -81.5t205 -195.5t70.5 -297q0 -169 -70 -293t-205 -195t-326 -82v-171h-281v171q-191 11 -326 82t-205 195t-70 293zM683 398v690q-155 -12 -230.5 -96t-75.5 -253q0 -146 75 -236.5t231 -104.5
zM964 1088v-690q156 14 231 104.5t75 236.5q0 169 -75.5 253t-230.5 96z" />
    <glyph glyph-name="Chi" unicode="&#x3a7;" horiz-adv-x="1374" 
d="M691 975h4q30 73 73 143l212 348h344l-457 -712l502 -754h-356l-244 378q-40 62 -80 148h-4q-38 -82 -81 -149l-243 -377h-356l502 766l-455 700h346l214 -341q41 -66 79 -150z" />
    <glyph glyph-name="Psi" unicode="&#x3a8;" horiz-adv-x="1627" 
d="M673 674v792h281v-796q94 9 146.5 49.5t74 113.5t21.5 188v445h295v-433q0 -192 -52.5 -320t-170.5 -200.5t-314 -88.5v-424h-281v426q-198 20 -316 93.5t-169.5 199.5t-51.5 313v434h295v-448q0 -157 58 -241.5t184 -102.5z" />
    <glyph glyph-name="uni03A9" unicode="&#x3a9;" horiz-adv-x="1625" 
d="M883 0v236q160 68 242 207t82 342q0 135 -48 237.5t-137.5 158.5t-209.5 56q-121 0 -210 -55.5t-136.5 -156.5t-47.5 -236q0 -203 81.5 -342t241.5 -211v-236h-651v248h294q-145 117 -208.5 248t-63.5 308q0 208 88.5 364t247.5 239.5t364 83.5q208 0 367.5 -87
t246.5 -243t87 -357q0 -163 -66 -301t-206 -255h294v-248h-652z" />
    <glyph glyph-name="Iotadieresis" unicode="&#x3aa;" horiz-adv-x="603" 
d="M154 0v1466h295v-1466h-295zM-39 1596v251h252v-251h-252zM391 1596v251h252v-251h-252z" />
    <glyph glyph-name="Upsilondieresis" unicode="&#x3ab;" horiz-adv-x="1340" 
d="M673 862h4q40 86 108 208l220 396h340l-528 -852v-614h-295v616l-527 850h346l224 -395q65 -114 108 -209zM333 1596v251h252v-251h-252zM763 1596v251h252v-251h-252z" />
    <glyph glyph-name="alphatonos" unicode="&#x3ac;" horiz-adv-x="1276" 
d="M1104 521q8 -123 31 -250.5t59 -270.5h-292q-32 82 -39 156h-5q-62 -93 -151 -137t-187 -44q-134 0 -236 65t-158 188t-56 292q0 170 57 298t158.5 197.5t232.5 69.5q99 0 190 -44.5t148 -135.5h4q15 78 42 156h292q-35 -130 -59.5 -270.5t-30.5 -269.5zM560 862
q-57 0 -103 -39t-72.5 -113.5t-26.5 -176.5q0 -107 26 -184t73.5 -118t112.5 -41q72 0 130 40.5t91.5 113t33.5 163.5q0 113 -32.5 192.5t-92.5 121t-140 41.5zM471 1171l60 295h313l-194 -295h-179z" />
    <glyph glyph-name="epsilontonos" unicode="&#x3ad;" horiz-adv-x="1009" 
d="M538 871q-83 0 -119 -30.5t-36 -74.5q0 -50 36.5 -78.5t114.5 -28.5h129v-215h-126q-91 0 -131 -36.5t-40 -92.5q0 -54 39.5 -89t123.5 -35q164 0 278 114l152 -187q-174 -142 -426 -142q-150 0 -252 39t-152.5 109t-50.5 165q0 93 53.5 165.5t164.5 100.5
q-103 32 -147 91.5t-44 149.5q0 86 46.5 151t141.5 102t236 37q262 0 424 -195l-182 -147q-49 61 -104 94t-129 33zM375 1171l60 295h313l-194 -295h-179z" />
    <glyph glyph-name="etatonos" unicode="&#x3ae;" horiz-adv-x="1219" 
d="M804 663q0 102 -38 154.5t-127 52.5t-154 -63.5t-65 -218.5v-588h-281v1061h262v-133h5q54 76 136.5 116.5t181.5 40.5q175 0 268 -93.5t93 -262.5v-1135h-281v1069zM493 1171l60 295h313l-194 -295h-179z" />
    <glyph glyph-name="iotatonos" unicode="&#x3af;" horiz-adv-x="620" 
d="M515 223q28 0 70 8l35 -230q-89 -26 -177 -26q-156 0 -232.5 82.5t-76.5 266.5v737h281v-707q0 -45 7 -72.5t28.5 -43t64.5 -15.5zM138 1171l60 295h313l-194 -295h-179z" />
    <glyph glyph-name="upsilondieresistonos" unicode="&#x3b0;" horiz-adv-x="1140" 
d="M134 415v646h281v-649q0 -110 39.5 -159t126.5 -49q92 0 141 83.5t49 271.5q0 126 -17 259t-49 243h281q34 -143 50 -262t16 -243q0 -294 -120.5 -437.5t-350.5 -143.5q-236 0 -341.5 108.5t-105.5 331.5zM447 1191l30 295h263l-134 -295h-159zM155 1225v221h212v-221
h-212zM767 1225v221h212v-221h-212z" />
    <glyph glyph-name="alpha" unicode="&#x3b1;" horiz-adv-x="1276" 
d="M1104 521q8 -123 31 -250.5t59 -270.5h-292q-32 82 -39 156h-5q-62 -93 -151 -137t-187 -44q-134 0 -236 65t-158 188t-56 292q0 170 57 298t158.5 197.5t232.5 69.5q99 0 190 -44.5t148 -135.5h4q15 78 42 156h292q-35 -130 -59.5 -270.5t-30.5 -269.5zM560 862
q-57 0 -103 -39t-72.5 -113.5t-26.5 -176.5q0 -107 26 -184t73.5 -118t112.5 -41q72 0 130 40.5t91.5 113t33.5 163.5q0 113 -32.5 192.5t-92.5 121t-140 41.5z" />
    <glyph glyph-name="beta" unicode="&#x3b2;" horiz-adv-x="1240" 
d="M1094 1118q0 -107 -52.5 -189.5t-162.5 -134.5q86 -17 150 -68.5t98.5 -132.5t34.5 -182q0 -121 -52 -220.5t-153.5 -157.5t-243.5 -58q-97 0 -166.5 33.5t-122.5 95.5h-4v-510h-281v1406q0 491 504 491q130 0 232 -45t160.5 -129.5t58.5 -198.5zM813 1092
q0 81 -56 125.5t-140 44.5q-94 0 -145.5 -62t-51.5 -188v-564q0 -129 59 -189t167 -60q106 0 167 67.5t61 189.5q0 63 -27.5 113t-79.5 78.5t-124 28.5h-63v229h52q86 0 133.5 52.5t47.5 134.5z" />
    <glyph glyph-name="gamma" unicode="&#x3b3;" horiz-adv-x="1124" 
d="M565 346l250 715h289l-399 -1028v-439h-281v441l-404 1026h295l246 -714z" />
    <glyph glyph-name="delta" unicode="&#x3b4;" horiz-adv-x="1212" 
d="M70 512q0 128 46 234t135.5 176t216.5 91q-79 59 -145 121.5t-135 137.5v194h851v-229h-433q51 -52 132 -120t158 -127q129 -98 187.5 -211t58.5 -269t-64 -277.5t-185 -189.5t-287 -68t-287 68.5t-185 190t-64 278.5zM603 822q-70 0 -125.5 -35.5t-87.5 -104t-32 -164.5
t30 -166.5t85.5 -108.5t130.5 -38t131.5 38t87.5 109t31 168q0 141 -66.5 221.5t-184.5 80.5z" />
    <glyph glyph-name="epsilon" unicode="&#x3b5;" horiz-adv-x="1009" 
d="M538 871q-83 0 -119 -30.5t-36 -74.5q0 -50 36.5 -78.5t114.5 -28.5h129v-215h-126q-91 0 -131 -36.5t-40 -92.5q0 -54 39.5 -89t123.5 -35q164 0 278 114l152 -187q-174 -142 -426 -142q-150 0 -252 39t-152.5 109t-50.5 165q0 93 53.5 165.5t164.5 100.5
q-103 32 -147 91.5t-44 149.5q0 86 46.5 151t141.5 102t236 37q262 0 424 -195l-182 -147q-49 61 -104 94t-129 33z" />
    <glyph glyph-name="zeta" unicode="&#x3b6;" horiz-adv-x="953" 
d="M363 492q0 -74 44.5 -132.5t153.5 -95.5q162 -55 242.5 -139t80.5 -217q0 -166 -121.5 -252t-353.5 -86q-24 0 -72 4l69 227q107 0 152 23.5t45 66.5q0 49 -31.5 76.5t-109.5 54.5q-156 53 -240 119t-115.5 148.5t-31.5 202.5q0 154 55.5 294.5t151 256t217.5 200.5h-327
v223h739v-192q-290 -147 -419 -349t-129 -433z" />
    <glyph glyph-name="eta" unicode="&#x3b7;" horiz-adv-x="1219" 
d="M804 663q0 102 -38 154.5t-127 52.5t-154 -63.5t-65 -218.5v-588h-281v1061h262v-133h5q54 76 136.5 116.5t181.5 40.5q175 0 268 -93.5t93 -262.5v-1135h-281v1069z" />
    <glyph glyph-name="theta" unicode="&#x3b8;" horiz-adv-x="1153" 
d="M80 734q0 384 126.5 570.5t368.5 186.5q251 0 374.5 -188t123.5 -569q0 -759 -496 -759q-242 0 -369.5 181.5t-127.5 577.5zM363 852h426q-6 152 -31.5 243.5t-69 132t-107.5 40.5q-65 0 -110 -37t-73 -128.5t-35 -250.5zM790 629h-427q9 -229 62 -330t150 -101
q100 0 152.5 102.5t62.5 328.5z" />
    <glyph glyph-name="iota" unicode="&#x3b9;" horiz-adv-x="620" 
d="M515 223q28 0 70 8l35 -230q-89 -26 -177 -26q-156 0 -232.5 82.5t-76.5 266.5v737h281v-707q0 -45 7 -72.5t28.5 -43t64.5 -15.5z" />
    <glyph glyph-name="kappa" unicode="&#x3ba;" horiz-adv-x="1142" 
d="M755 1061h341l-383 -417l407 -644h-318l-280 449l-102 -99v-350h-281v1061h281v-373z" />
    <glyph glyph-name="lambda" unicode="&#x3bb;" horiz-adv-x="1132" 
d="M281 1466h294l537 -1466h-291l-199 573q-11 33 -42 143h-4q-25 -99 -45 -150l-212 -566h-299l415 1040z" />
    <glyph glyph-name="uni03BC" unicode="&#x3bc;" horiz-adv-x="1219" 
d="M419 113h-4v-519h-281v1467h281v-590q0 -135 51 -208t137 -73q90 0 143 71t53 210v590h281v-1061h-262v123h-4q-34 -72 -81.5 -110t-124.5 -38q-72 0 -115 34.5t-74 103.5z" />
    <glyph glyph-name="nu" unicode="&#x3bd;" horiz-adv-x="1124" 
d="M552 306q103 168 171 360.5t89 394.5h279q-79 -580 -489 -1061h-194l-388 1061h295l233 -754z" />
    <glyph glyph-name="xi" unicode="&#x3be;" horiz-adv-x="939" 
d="M342 885q-182 77 -182 274q0 150 105.5 240.5t323.5 90.5h197v-215h-184q-94 0 -129 -41.5t-35 -101.5q0 -65 36.5 -102.5t114.5 -37.5h168v-229h-113q-96 0 -159.5 -42t-92.5 -106.5t-29 -133.5q0 -61 16 -101.5t57.5 -70.5t119.5 -55q164 -53 243.5 -133.5t79.5 -212.5
q0 -102 -52 -178t-157 -118t-261 -42q-26 0 -66 2l58 227q106 0 151.5 24t45.5 68t-31.5 69.5t-109.5 51.5q-140 47 -221.5 104t-121 143.5t-39.5 220.5q0 82 31 160.5t91 143t145 101.5z" />
    <glyph glyph-name="omicron" unicode="&#x3bf;" horiz-adv-x="1212" 
d="M70 537q0 156 64 281t185 196t285 71q167 0 289 -71.5t185.5 -196t63.5 -282.5q0 -164 -64 -290.5t-185 -198t-287 -71.5t-287 71.5t-185 198.5t-64 292zM603 856q-70 0 -125.5 -39t-87.5 -113t-32 -174q0 -99 30 -172.5t85.5 -113t130.5 -39.5t131.5 39t87.5 113t31 175
q0 97 -30 170t-86.5 113.5t-134.5 40.5z" />
    <glyph glyph-name="pi" unicode="&#x3c0;" horiz-adv-x="1344" 
d="M20 808v220q48 15 120 24t139 9h1040v-223h-234v-484q0 -45 7 -72.5t28.5 -43t64.5 -15.5q28 0 70 8l35 -230q-89 -26 -177 -26q-156 0 -232.5 82.5t-76.5 266.5v514h-293v-838h-281v838q-41 0 -98 -8t-112 -22z" />
    <glyph glyph-name="rho" unicode="&#x3c1;" horiz-adv-x="1248" 
d="M679 1085q143 0 256 -64.5t178 -191.5t65 -309q0 -168 -57 -291.5t-158.5 -188.5t-234.5 -65q-102 0 -171.5 32t-137.5 111h-4v-524h-281v905q0 191 66 322.5t188.5 197.5t290.5 66zM663 861q-108 0 -178 -84.5t-70 -269.5q0 -95 29 -164.5t82.5 -106.5t126.5 -37
q116 0 176.5 85.5t60.5 248.5q0 155 -60.5 241.5t-166.5 86.5z" />
    <glyph glyph-name="sigma1" unicode="&#x3c2;" horiz-adv-x="1014" 
d="M426 -201q106 0 151.5 24t45.5 68q0 48 -35 75.5t-116 55.5q-139 48 -226.5 112.5t-131.5 161t-44 235.5q0 166 60 291t179 194t291 69q91 0 183.5 -16.5t170.5 -44.5l-52 -229q-157 61 -299 61q-73 0 -128 -37t-86 -110t-31 -179q0 -98 49.5 -162.5t163.5 -103.5
q164 -55 248.5 -139.5t84.5 -216.5q0 -102 -53 -178t-159.5 -118t-262.5 -42q-85 0 -172 14l37 227q66 -12 132 -12z" />
    <glyph glyph-name="sigma" unicode="&#x3c3;" horiz-adv-x="1289" 
d="M70 525q0 153 64 275t185 191.5t285 69.5h660v-223h-237q57 -64 86 -144.5t29 -170.5q0 -160 -64 -284t-185 -194t-287 -70t-287 70t-185 194.5t-64 285.5zM603 838q-69 0 -125 -39t-88 -111.5t-32 -169.5q0 -96 30 -166.5t85.5 -108.5t130.5 -38t131.5 38t87.5 109
t31 168q0 94 -30 166t-86.5 112t-134.5 40z" />
    <glyph glyph-name="tau" unicode="&#x3c4;" horiz-adv-x="879" 
d="M570 838v-484q0 -45 7.5 -72.5t31 -43t69.5 -15.5q30 0 76 8l35 -230q-93 -26 -182 -26q-161 0 -239.5 82.5t-78.5 266.5v514h-10q-60 0 -129.5 -8t-124.5 -22v220q48 15 120 24t139 9h570v-223h-284z" />
    <glyph glyph-name="upsilon" unicode="&#x3c5;" horiz-adv-x="1140" 
d="M134 415v646h281v-649q0 -110 39.5 -159t126.5 -49q92 0 141 83.5t49 271.5q0 126 -17 259t-49 243h281q34 -143 50 -262t16 -243q0 -294 -120.5 -437.5t-350.5 -143.5q-236 0 -341.5 108.5t-105.5 331.5z" />
    <glyph glyph-name="phi" unicode="&#x3c6;" horiz-adv-x="1517" 
d="M623 208v511q0 131 34.5 211t107 117.5t190.5 37.5q149 0 260.5 -66.5t171.5 -184t60 -266.5q0 -156 -61 -281.5t-185 -205t-306 -98.5v-389h-272v389q-185 13 -309 92t-184 202.5t-60 274.5q0 143 54 262t165.5 192.5t275.5 79.5l-24 -223q-190 -21 -190 -316
q0 -98 36 -171.5t98 -116t138 -51.5zM1166 554q0 98 -30 167.5t-76.5 104t-96.5 34.5q-38 0 -53.5 -35t-15.5 -85l1 -528q134 23 202.5 114.5t68.5 227.5z" />
    <glyph glyph-name="chi" unicode="&#x3c7;" horiz-adv-x="1088" 
d="M549 599l207 462h295l-353 -711l380 -756h-299l-239 517l-238 -517h-292l379 761l-345 706h296z" />
    <glyph glyph-name="psi" unicode="&#x3c8;" horiz-adv-x="1552" 
d="M1137 475v586h281v-583q0 -161 -50 -265.5t-160.5 -162t-295.5 -70.5v-386h-272v386q-186 13 -296.5 68.5t-160 160t-49.5 269.5v583h281v-586q0 -127 55 -192.5t170 -77.5v856h272v-857q118 12 171.5 78t53.5 193z" />
    <glyph glyph-name="omega" unicode="&#x3c9;" horiz-adv-x="1549" 
d="M378 497q0 -110 15 -174.5t44 -91.5t74 -27q61 0 92 62.5t31 194.5v332h281v-332q0 -257 123 -257q45 0 74 27t44 91.5t15 174.5q0 283 -130 564h291q63 -137 96 -280.5t33 -283.5q0 -245 -101.5 -383.5t-300.5 -138.5q-84 0 -158 39t-127 113q-53 -74 -129 -113
t-171 -39q-185 0 -285.5 131t-100.5 391q0 140 33 283.5t96 280.5h291q-130 -281 -130 -564z" />
    <glyph glyph-name="iotadieresis" unicode="&#x3ca;" horiz-adv-x="620" 
d="M515 223q28 0 70 8l35 -230q-89 -26 -177 -26q-156 0 -232.5 82.5t-76.5 266.5v737h281v-707q0 -45 7 -72.5t28.5 -43t64.5 -15.5zM-62 1225v241h242v-241h-242zM370 1225v241h242v-241h-242z" />
    <glyph glyph-name="upsilondieresis" unicode="&#x3cb;" horiz-adv-x="1140" 
d="M134 415v646h281v-649q0 -110 39.5 -159t126.5 -49q92 0 141 83.5t49 271.5q0 126 -17 259t-49 243h281q34 -143 50 -262t16 -243q0 -294 -120.5 -437.5t-350.5 -143.5q-236 0 -341.5 108.5t-105.5 331.5zM230 1225v241h242v-241h-242zM662 1225v241h242v-241h-242z" />
    <glyph glyph-name="omicrontonos" unicode="&#x3cc;" horiz-adv-x="1212" 
d="M70 537q0 156 64 281t185 196t285 71q167 0 289 -71.5t185.5 -196t63.5 -282.5q0 -164 -64 -290.5t-185 -198t-287 -71.5t-287 71.5t-185 198.5t-64 292zM603 856q-70 0 -125.5 -39t-87.5 -113t-32 -174q0 -99 30 -172.5t85.5 -113t130.5 -39.5t131.5 39t87.5 113t31 175
q0 97 -30 170t-86.5 113.5t-134.5 40.5zM479 1171l60 295h313l-194 -295h-179z" />
    <glyph glyph-name="upsilontonos" unicode="&#x3cd;" horiz-adv-x="1140" 
d="M134 415v646h281v-649q0 -110 39.5 -159t126.5 -49q92 0 141 83.5t49 271.5q0 126 -17 259t-49 243h281q34 -143 50 -262t16 -243q0 -294 -120.5 -437.5t-350.5 -143.5q-236 0 -341.5 108.5t-105.5 331.5zM454 1171l60 295h313l-194 -295h-179z" />
    <glyph glyph-name="omegatonos" unicode="&#x3ce;" horiz-adv-x="1549" 
d="M378 497q0 -110 15 -174.5t44 -91.5t74 -27q61 0 92 62.5t31 194.5v332h281v-332q0 -257 123 -257q45 0 74 27t44 91.5t15 174.5q0 283 -130 564h291q63 -137 96 -280.5t33 -283.5q0 -245 -101.5 -383.5t-300.5 -138.5q-84 0 -158 39t-127 113q-53 -74 -129 -113
t-171 -39q-185 0 -285.5 131t-100.5 391q0 140 33 283.5t96 280.5h291q-130 -281 -130 -564zM648 1171l60 295h313l-194 -295h-179z" />
    <glyph glyph-name="uni03F0" unicode="&#x3f0;" horiz-adv-x="1323" 
d="M102 -1q57 134 91 301.5t34 324.5q0 117 -23.5 165t-76.5 48q-24 0 -42 -2.5t-28 -5.5l-35 230q29 11 75.5 18.5t101.5 7.5q172 0 240.5 -89.5t68.5 -294.5q0 -72 -4 -130.5t-16 -119.5l473 610l260 -1q-57 -136 -91 -300t-34 -311q0 -108 18 -167.5t82 -59.5
q19 0 38 2.5t32 5.5l35 -230q-35 -11 -79.5 -18.5t-97.5 -7.5q-177 0 -243 102.5t-66 306.5q0 60 3 113.5t13 107.5l-469 -606h-260z" />
    <glyph glyph-name="uni03F1" unicode="&#x3f1;" horiz-adv-x="1212" 
d="M373 63q14 -110 68 -164t176 -54h216q142 0 204.5 -70.5t62.5 -206.5h-229q-2 25 -15 39.5t-47 14.5h-213q-270 0 -398 200t-128 614q0 317 138.5 483.5t397.5 166.5q245 0 390.5 -148t145.5 -400q0 -241 -142 -389.5t-376 -148.5q-80 0 -141.5 21.5t-96.5 45.5z
M423.5 772.5q-65.5 -83.5 -65.5 -229.5q0 -144 67 -229t178 -85q116 0 183.5 83t67.5 229q0 150 -68 232.5t-182 82.5q-115 0 -180.5 -83.5z" />
    <glyph glyph-name="uni0400" unicode="&#x400;" horiz-adv-x="1253" 
d="M449 1218v-335h616v-248h-616v-387h706v-248h-1001v1466h966v-248h-671zM600 1567l-259 295h328l125 -295h-194z" />
    <glyph glyph-name="uni0401" unicode="&#x401;" horiz-adv-x="1253" 
d="M449 1218v-335h616v-248h-616v-387h706v-248h-1001v1466h966v-248h-671zM310 1596v251h252v-251h-252zM740 1596v251h252v-251h-252z" />
    <glyph glyph-name="uni0402" unicode="&#x402;" horiz-adv-x="1713" 
d="M1092 227q74 0 130 29.5t86.5 85.5t30.5 133q0 121 -74.5 186.5t-225.5 65.5q-58 0 -142.5 -11.5t-151.5 -32.5v-683h-295v1218h-400v248h1109v-248h-414v-294q163 57 360 57q156 0 278 -57t192 -171t70 -278q0 -165 -70.5 -277.5t-192.5 -167.5t-277 -55q-88 0 -152 9.5
t-120 28.5l76 254q34 -19 81 -29.5t102 -10.5z" />
    <glyph glyph-name="uni0403" unicode="&#x403;" horiz-adv-x="1104" 
d="M1054 1466v-248h-605v-1218h-295v1466h900zM425 1567l125 295h328l-259 -295h-194z" />
    <glyph glyph-name="uni0404" unicode="&#x404;" horiz-adv-x="1485" 
d="M770 1237q-150 0 -244 -97t-122 -262h480v-248h-485q22 -188 117 -294.5t250 -106.5q82 0 152 36t119.5 103t72.5 158l293 -69q-34 -145 -118.5 -253.5t-214.5 -168.5t-296 -60q-216 0 -370 92t-235 265.5t-81 412.5q0 229 83.5 397.5t238.5 258.5t364 90
q240 0 395 -108.5t217 -321.5l-292 -70q-73 246 -324 246z" />
    <glyph glyph-name="uni0405" unicode="&#x405;" horiz-adv-x="1323" 
d="M631 1247q-94 0 -157.5 -38t-63.5 -107q0 -46 29 -78.5t99 -59.5t199 -57q194 -45 302.5 -108.5t152 -152t43.5 -219.5q0 -152 -79.5 -253.5t-209.5 -150t-285 -48.5q-249 0 -403 127t-188 365l295 36q26 -144 98.5 -212t205.5 -68q80 0 141.5 22.5t95.5 63.5t34 97
q0 64 -24.5 100t-96 65.5t-223.5 65.5q-179 43 -283 106t-147.5 145t-43.5 192q0 120 61.5 213t179.5 145.5t282 52.5q236 0 375.5 -108.5t173.5 -315.5l-295 -33q-14 114 -79 163.5t-189 49.5z" />
    <glyph glyph-name="uni0406" unicode="&#x406;" horiz-adv-x="603" 
d="M154 0v1466h295v-1466h-295z" />
    <glyph glyph-name="uni0407" unicode="&#x407;" horiz-adv-x="603" 
d="M154 0v1466h295v-1466h-295zM-39 1596v251h252v-251h-252zM391 1596v251h252v-251h-252z" />
    <glyph glyph-name="uni0408" unicode="&#x408;" horiz-adv-x="1117" 
d="M485 -25q-222 0 -335 119t-118 361l279 37q4 -141 49 -202t136 -61q67 0 106 26.5t56.5 87t17.5 163.5v960h295v-959q0 -259 -113.5 -395.5t-372.5 -136.5z" />
    <glyph glyph-name="uni0409" unicode="&#x409;" horiz-adv-x="1982" 
d="M104 223q69 0 100 42t31 122v1079h959v-565h163q273 0 410 -111t137 -346q0 -216 -138 -330t-409 -114h-458v1218h-369v-829q0 -154 -39.5 -245t-114.5 -130t-194 -39q-44 0 -95 9t-97 22l45 225q42 -8 69 -8zM1352 248q127 0 186.5 51t59.5 150q0 102 -56 153t-190 51
h-158v-405h158z" />
    <glyph glyph-name="uni040A" unicode="&#x40a;" horiz-adv-x="2017" 
d="M449 653v-653h-295v1466h295v-565h485v565h295v-565h163q273 0 410 -111t137 -346q0 -216 -138 -330t-409 -114h-458v653h-485zM1387 248q127 0 186.5 51t59.5 150q0 102 -56 153t-190 51h-158v-405h158z" />
    <glyph glyph-name="uni040B" unicode="&#x40b;" horiz-adv-x="1707" 
d="M1159 1466v-248h-414v-294q163 57 363 57q247 0 363 -118t116 -357v-506h-295v487q0 86 -21.5 138t-72 77t-137.5 25q-177 0 -316 -44v-683h-295v1218h-400v248h1109z" />
    <glyph glyph-name="uni040C" unicode="&#x40c;" horiz-adv-x="1343" 
d="M1076 505l255 -505h-344l-194 413l-13 28q-34 74 -61.5 117.5t-74 73.5t-116.5 30h-79v-662h-295v1466h295v-556h66q71 0 114.5 13.5t73.5 48.5t58 103l69 166q45 108 120 166.5t198 58.5h140v-248h-71q-47 0 -72.5 -19t-42.5 -62l-72 -173q-37 -90 -82.5 -137
t-112.5 -63v-4q51 -16 85.5 -39t71.5 -73t84 -143zM565 1567l125 295h328l-259 -295h-194z" />
    <glyph glyph-name="uni040D" unicode="&#x40d;" horiz-adv-x="1469" 
d="M1040 0v956h-4l-585 -956h-297v1466h275v-979h4l595 979h287v-1466h-275zM707 1567l-259 295h328l125 -295h-194z" />
    <glyph glyph-name="uni040E" unicode="&#x40e;" horiz-adv-x="1330" 
d="M361 1466l389 -666l272 666h323l-468 -1005q-88 -188 -169 -293.5t-169.5 -149t-203.5 -43.5q-47 0 -95.5 10t-81.5 25v237q74 -24 124 -24q64 0 107.5 19.5t84 69.5t93.5 150l36 76l-583 928h341zM714 1706q74 0 112 39.5t47 116.5h200q-15 -144 -110 -223.5t-249 -79.5
q-155 0 -248.5 75.5t-108.5 227.5h200q5 -74 47.5 -115t109.5 -41z" />
    <glyph glyph-name="uni040F" unicode="&#x40f;" horiz-adv-x="1477" 
d="M596 -406v406h-442v1466h295v-1218h579v1218h295v-1466h-442v-406h-285z" />
    <glyph glyph-name="uni0410" unicode="&#x410;" horiz-adv-x="1460" 
d="M1133 0l-127 332h-566l-121 -332h-315l571 1466h293l588 -1466h-323zM651 911l-121 -331h381l-123 331q-24 64 -42.5 131t-24.5 109h-8q-18 -120 -62 -240z" />
    <glyph glyph-name="uni0411" unicode="&#x411;" horiz-adv-x="1267" 
d="M1056 1466v-248h-607v-317h203q273 0 410 -111t137 -346q0 -216 -138 -330t-409 -114h-498v1466h902zM647 248q127 0 186.5 51t59.5 150q0 102 -56 153t-190 51h-198v-405h198z" />
    <glyph glyph-name="uni0412" unicode="&#x412;" horiz-adv-x="1410" 
d="M1249 1083q0 -110 -56 -185.5t-151 -117.5q135 -39 206.5 -132.5t71.5 -221.5q0 -221 -149.5 -323.5t-370.5 -102.5h-646v1466h648q200 0 323.5 -90.5t123.5 -292.5zM961 1050q0 99 -61.5 133.5t-157.5 34.5h-293v-335h297q106 0 160.5 42t54.5 125zM1014 435
q0 96 -61.5 148t-210.5 52h-293v-387h300q71 0 128.5 12.5t97 54t39.5 120.5z" />
    <glyph glyph-name="uni0413" unicode="&#x413;" horiz-adv-x="1104" 
d="M1054 1466v-248h-605v-1218h-295v1466h900z" />
    <glyph glyph-name="uni0414" unicode="&#x414;" horiz-adv-x="1535" 
d="M12 248h171q91 194 135 447t44 487v284h930v-1218h211v-654h-285v406h-921v-406h-285v654zM647 1218v-20q0 -268 -35.5 -504t-123.5 -446h509v970h-350z" />
    <glyph glyph-name="uni0415" unicode="&#x415;" horiz-adv-x="1253" 
d="M449 1218v-335h616v-248h-616v-387h706v-248h-1001v1466h966v-248h-671z" />
    <glyph glyph-name="uni0416" unicode="&#x416;" horiz-adv-x="2033" 
d="M563 441l-13 -28l-194 -413h-344l255 505q47 93 84 143t71.5 73t85.5 39v4q-67 16 -112.5 63t-82.5 137l-72 173q-17 43 -42.5 62t-72.5 19h-71v248h140q123 0 198 -58.5t120 -166.5l69 -166q28 -68 58 -103t73.5 -48.5t114.5 -13.5h46v556h285v-556h46q71 0 114.5 13.5
t73.5 48.5t58 103l69 166q45 108 120 166.5t198 58.5h140v-248h-71q-47 0 -72.5 -19t-42.5 -62l-72 -173q-37 -90 -82.5 -137t-112.5 -63v-4q51 -16 85.5 -39t71.5 -73t84 -143l255 -505h-344l-194 413l-13 28q-34 74 -61.5 117.5t-74 73.5t-116.5 30h-59v-662h-285v662h-59
q-70 0 -116.5 -30t-74 -73.5t-61.5 -117.5z" />
    <glyph glyph-name="uni0417" unicode="&#x417;" horiz-adv-x="1245" 
d="M1151 436q0 -144 -67 -248t-189 -158.5t-285 -54.5q-238 0 -373 108t-163 306l300 52q15 -107 74.5 -164.5t159.5 -57.5q72 0 125.5 30t82.5 82t29 118q0 64 -28.5 114.5t-84.5 79.5t-137 29h-104v235h71q110 0 167 49.5t57 140.5q0 72 -47 111t-128 39
q-82 0 -131.5 -45.5t-59.5 -133.5l-292 46q40 190 168 283.5t322 93.5q136 0 242 -48.5t165 -134.5t59 -194q0 -103 -49.5 -184t-157.5 -132v-4q86 -19 148 -71t94 -127t32 -160z" />
    <glyph glyph-name="uni0418" unicode="&#x418;" horiz-adv-x="1469" 
d="M1040 0v956h-4l-585 -956h-297v1466h275v-979h4l595 979h287v-1466h-275z" />
    <glyph glyph-name="uni0419" unicode="&#x419;" horiz-adv-x="1469" 
d="M1040 0v956h-4l-585 -956h-297v1466h275v-979h4l595 979h287v-1466h-275zM733 1706q74 0 112 39.5t47 116.5h200q-15 -144 -110 -223.5t-249 -79.5q-155 0 -248.5 75.5t-108.5 227.5h200q5 -74 47.5 -115t109.5 -41z" />
    <glyph glyph-name="uni041A" unicode="&#x41a;" horiz-adv-x="1343" 
d="M1076 505l255 -505h-344l-194 413l-13 28q-34 74 -61.5 117.5t-74 73.5t-116.5 30h-79v-662h-295v1466h295v-556h66q71 0 114.5 13.5t73.5 48.5t58 103l69 166q45 108 120 166.5t198 58.5h140v-248h-71q-47 0 -72.5 -19t-42.5 -62l-72 -173q-37 -90 -82.5 -137
t-112.5 -63v-4q51 -16 85.5 -39t71.5 -73t84 -143z" />
    <glyph glyph-name="uni041B" unicode="&#x41b;" horiz-adv-x="1388" 
d="M104 223q69 0 100 42t31 122v1079h999v-1466h-295v1218h-409v-829q0 -154 -39.5 -245t-114.5 -130t-194 -39q-44 0 -95 9t-97 22l45 225q42 -8 69 -8z" />
    <glyph glyph-name="uni041C" unicode="&#x41c;" horiz-adv-x="1784" 
d="M1185 1466h445v-1466h-275v1155l-319 -1155h-284l-323 1155v-1155h-275v1466h443l298 -1038z" />
    <glyph glyph-name="uni041D" unicode="&#x41d;" horiz-adv-x="1477" 
d="M1028 901v565h295v-1466h-295v653h-579v-653h-295v1466h295v-565h579z" />
    <glyph glyph-name="uni041E" unicode="&#x41e;" horiz-adv-x="1608" 
d="M88 725q0 232 87.5 404.5t249.5 267t378 94.5q217 0 379 -94t250 -266t88 -400q0 -222 -86.5 -393.5t-247.5 -267t-379 -95.5t-381 94.5t-250.5 265t-87.5 390.5zM803 1237q-126 0 -218.5 -64.5t-141.5 -178.5t-49 -261t48 -261t141 -178.5t222 -64.5q127 0 219.5 64
t141 179t48.5 265q0 144 -48.5 257.5t-141 178t-221.5 64.5z" />
    <glyph glyph-name="uni041F" unicode="&#x41f;" horiz-adv-x="1477" 
d="M1028 0v1218h-579v-1218h-295v1466h1169v-1466h-295z" />
    <glyph glyph-name="uni0420" unicode="&#x420;" horiz-adv-x="1287" 
d="M1219 1015q0 -237 -134 -350t-413 -113h-223v-552h-295v1466h518q283 0 415 -114t132 -337zM913 1010q0 100 -60 154t-186 54h-218v-418h218q133 0 189.5 53.5t56.5 156.5z" />
    <glyph glyph-name="uni0421" unicode="&#x421;" horiz-adv-x="1485" 
d="M770 1237q-121 0 -206 -64t-128 -176.5t-43 -257.5q0 -155 44 -270t128 -177.5t201 -62.5q82 0 152 36t119.5 103t72.5 158l293 -69q-34 -145 -118.5 -253.5t-214.5 -168.5t-296 -60q-216 0 -370 92t-235 265.5t-81 412.5q0 229 83.5 397.5t238.5 258.5t364 90
q240 0 395 -108.5t217 -321.5l-292 -70q-73 246 -324 246z" />
    <glyph glyph-name="uni0422" unicode="&#x422;" horiz-adv-x="1243" 
d="M769 1218v-1218h-295v1218h-424v248h1143v-248h-424z" />
    <glyph glyph-name="uni0423" unicode="&#x423;" horiz-adv-x="1330" 
d="M361 1466l389 -666l272 666h323l-468 -1005q-88 -188 -169 -293.5t-169.5 -149t-203.5 -43.5q-47 0 -95.5 10t-81.5 25v237q74 -24 124 -24q64 0 107.5 19.5t84 69.5t93.5 150l36 76l-583 928h341z" />
    <glyph glyph-name="uni0424" unicode="&#x424;" horiz-adv-x="1563" 
d="M82 741q0 257 144.5 403.5t414.5 170.5v151h281v-151q269 -24 414 -170.5t145 -403.5q0 -253 -145 -399.5t-414 -170.5v-171h-281v171q-270 24 -414.5 170.5t-144.5 399.5zM641 398v690q-135 -16 -199.5 -98.5t-64.5 -250.5q0 -145 64.5 -234t199.5 -107zM922 1088v-690
q135 18 199.5 107t64.5 234q0 168 -64.5 250.5t-199.5 98.5z" />
    <glyph glyph-name="uni0425" unicode="&#x425;" horiz-adv-x="1374" 
d="M691 975h4q30 73 73 143l212 348h344l-457 -712l502 -754h-356l-244 378q-40 62 -80 148h-4q-38 -82 -81 -149l-243 -377h-356l502 766l-455 700h346l214 -341q41 -66 79 -150z" />
    <glyph glyph-name="uni0426" unicode="&#x426;" horiz-adv-x="1556" 
d="M154 1466h295v-1218h569v1218h295v-1218h211v-654h-285v406h-1085v1466z" />
    <glyph glyph-name="uni0427" unicode="&#x427;" horiz-adv-x="1411" 
d="M599 505q-247 0 -363 118t-116 357v486h295v-467q0 -86 21.5 -138t72 -77t137.5 -25q177 0 316 44v663h295v-1466h-295v562q-163 -57 -363 -57z" />
    <glyph glyph-name="uni0428" unicode="&#x428;" horiz-adv-x="1993" 
d="M154 1466h295v-1218h400v1218h295v-1218h400v1218h295v-1466h-1685v1466z" />
    <glyph glyph-name="uni0429" unicode="&#x429;" horiz-adv-x="2082" 
d="M154 1466h295v-1218h400v1218h295v-1218h400v1218h295v-1218h211v-654h-285v406h-1611v1466z" />
    <glyph glyph-name="uni042A" unicode="&#x42a;" horiz-adv-x="1497" 
d="M0 1218v248h669v-565h203q273 0 410 -111t137 -346q0 -216 -138 -330t-409 -114h-498v1218h-374zM867 248q127 0 186.5 51t59.5 150q0 102 -56 153t-190 51h-198v-405h198z" />
    <glyph glyph-name="uni042B" unicode="&#x42b;" horiz-adv-x="1793" 
d="M449 1466v-565h163q273 0 410 -111t137 -346q0 -216 -138 -330t-409 -114h-458v1466h295zM1344 0v1466h295v-1466h-295zM607 248q127 0 186.5 51t59.5 150q0 102 -56 153t-190 51h-158v-405h158z" />
    <glyph glyph-name="uni042C" unicode="&#x42c;" horiz-adv-x="1277" 
d="M449 1466v-565h203q273 0 410 -111t137 -346q0 -216 -138 -330t-409 -114h-498v1466h295zM647 248q127 0 186.5 51t59.5 150q0 102 -56 153t-190 51h-198v-405h198z" />
    <glyph glyph-name="uni042D" unicode="&#x42d;" horiz-adv-x="1485" 
d="M711 1491q209 0 364 -90t238.5 -258.5t83.5 -397.5q0 -239 -81 -412.5t-235 -265.5t-370 -92q-166 0 -296 60t-214.5 168.5t-118.5 253.5l293 69q23 -91 72.5 -158t119.5 -103t152 -36q155 0 250 106.5t117 294.5h-485v248h480q-28 165 -121.5 262t-244.5 97
q-251 0 -324 -246l-292 70q62 213 217 321.5t395 108.5z" />
    <glyph glyph-name="uni042E" unicode="&#x42e;" horiz-adv-x="2046" 
d="M634 613h-185v-613h-295v1466h295v-605h187q22 194 107 336t224 218t320 76q203 0 355 -94t234 -266t82 -400q0 -222 -81 -393.5t-231.5 -267t-354.5 -95.5q-186 0 -327.5 79.5t-225.5 223.5t-104 335zM1287 1237q-112 0 -194 -64.5t-125.5 -178.5t-43.5 -261t42.5 -261
t125 -178.5t197.5 -64.5q113 0 195 64t125 179t43 265q0 144 -43 257.5t-125.5 178t-196.5 64.5z" />
    <glyph glyph-name="uni042F" unicode="&#x42f;" horiz-adv-x="1380" 
d="M931 0v612h-41q-85 0 -134.5 -9t-82 -30.5t-65.5 -62.5q-50 -62 -124 -217l-140 -293h-324l193 394q43 88 77 138.5t65 76.5t69 40v4q-163 47 -241.5 147t-78.5 255q0 199 134 305t380 106h608v-1466h-295zM645 1219q-121 0 -178.5 -43t-57.5 -139q0 -105 68.5 -148
t202.5 -43h251v373h-286z" />
    <glyph glyph-name="uni0430" unicode="&#x430;" horiz-adv-x="1126" 
d="M1059 0h-277q-21 46 -34 117q-141 -142 -330 -142q-104 0 -183 40t-122 112.5t-43 165.5q0 141 92 224t284 113t270 58v20q0 93 -45.5 127.5t-134.5 34.5q-70 0 -117 -32t-71 -101l-256 39q42 160 156 234.5t305 74.5q155 0 252.5 -39.5t144.5 -125.5t47 -225v-433
q0 -76 11 -127t51 -135zM501 455q-150 -30 -150 -146q0 -65 37 -100t106 -35t127 35q40 24 59.5 50.5t27.5 71.5t8 126v51q-74 -27 -215 -53z" />
    <glyph glyph-name="uni0431" unicode="&#x431;" horiz-adv-x="1212" 
d="M624 1061q158 0 275.5 -68.5t180 -190.5t62.5 -279q0 -163 -63.5 -287t-184.5 -192.5t-288 -68.5q-170 0 -290 73.5t-183 218.5t-63 358q0 436 135.5 638.5t390.5 202.5h213q33 0 46.5 14t15.5 40h229q0 -139 -63.5 -208t-203.5 -69h-216q-99 0 -162.5 -56.5
t-81.5 -188.5l13 -4q40 28 102.5 47.5t135.5 19.5zM603 832q-70 0 -125.5 -36t-87.5 -107t-32 -171q0 -149 66 -231t180 -82q75 0 131.5 36.5t87.5 107t31 171.5q0 146 -66.5 229t-184.5 83z" />
    <glyph glyph-name="uni0432" unicode="&#x432;" horiz-adv-x="1103" 
d="M968 774q0 -69 -33.5 -124.5t-96.5 -94.5q92 -39 139.5 -105t47.5 -154q0 -84 -41.5 -150.5t-134.5 -106t-241 -39.5h-469v1061h419q210 0 310 -69.5t100 -217.5zM687 744q0 49 -33 75.5t-86 26.5h-148v-206h150q57 0 87 26.5t30 77.5zM595 215q69 0 105.5 29t36.5 85
q0 59 -33.5 87.5t-106.5 28.5h-177v-230h175z" />
    <glyph glyph-name="uni0433" unicode="&#x433;" horiz-adv-x="859" 
d="M834 1061v-223h-414v-838h-281v1061h695z" />
    <glyph glyph-name="uni0434" unicode="&#x434;" horiz-adv-x="1276" 
d="M305 1061h765v-838h182v-573h-272v350h-700v-350h-272v573h152q77 200 111 408t34 430zM566 838q-6 -295 -114 -615h337v615h-223z" />
    <glyph glyph-name="uni0435" unicode="&#x435;" horiz-adv-x="1171" 
d="M581 190q89 0 146.5 40.5t79.5 107.5l280 -44q-56 -155 -182 -237t-309 -82q-172 0 -290 68t-177 191.5t-59 289.5q0 153 61.5 281t179.5 204t281 76q155 0 269.5 -65.5t177.5 -192t63 -305.5v-86h-746q10 -118 69 -182t156 -64zM357 641h465q-10 111 -70 170t-159 59
q-94 0 -159 -60.5t-77 -168.5z" />
    <glyph glyph-name="uni0436" unicode="&#x436;" horiz-adv-x="1548" 
d="M499 337l-164 -337h-313l209 395q36 69 74 104t99 48q-49 19 -81 48t-56 82l-43 96q-20 43 -41 58t-63 15h-48v215h99q86 0 135.5 -16t82 -53.5t68.5 -112.5l54 -111q25 -53 54.5 -84.5t72.5 -31.5v409h272v-409q43 0 72.5 31.5t54.5 84.5l54 111q36 75 68.5 112.5
t82 53.5t135.5 16h99v-215h-48q-42 0 -63 -15t-41 -58l-43 -96q-24 -53 -56 -82t-81 -48q61 -13 99 -48t74 -104l209 -395h-313l-164 337q-21 44 -41.5 65.5t-42.5 28t-55 6.5v-437h-272v437q-33 0 -55 -6.5t-42.5 -28t-41.5 -65.5z" />
    <glyph glyph-name="uni0437" unicode="&#x437;" horiz-adv-x="1050" 
d="M523 1086q140 0 235 -37t141 -102t46 -151q0 -87 -46.5 -147t-144.5 -94q108 -31 163 -103t55 -163q0 -95 -50 -165t-151.5 -109t-250.5 -39q-200 0 -314 70t-164 204l276 87q16 -74 63 -110t132 -36q89 0 130 34.5t41 89.5q0 56 -40 92.5t-131 36.5h-71v215h74
q78 0 114.5 28.5t36.5 78.5q0 43 -34 74t-115 31q-57 0 -92.5 -16.5t-57 -47t-40.5 -82.5l-256 101q59 133 170 196.5t281 63.5z" />
    <glyph glyph-name="uni0438" unicode="&#x438;" horiz-adv-x="1208" 
d="M420 480l363 581h286v-1061h-281v581l-363 -581h-286v1061h281v-581z" />
    <glyph glyph-name="uni0439" unicode="&#x439;" horiz-adv-x="1208" 
d="M420 480l363 581h286v-1061h-281v581l-363 -581h-286v1061h281v-581zM604 1335q69 0 104 40t43 116h189q-14 -145 -103.5 -224t-232.5 -79q-146 0 -233.5 76t-102.5 227h189q4 -74 44 -115t103 -41z" />
    <glyph glyph-name="uni043A" unicode="&#x43a;" horiz-adv-x="1083" 
d="M420 652q28 0 46.5 5.5t34.5 19.5q33 30 61 91l54 111q36 75 68.5 112.5t82 53.5t135.5 16h99v-215h-48q-42 0 -63 -15t-41 -58l-43 -96q-24 -53 -56 -82t-81 -48q61 -13 97.5 -47.5t75.5 -104.5l219 -395h-313l-174 337q-32 61 -67.5 80.5t-86.5 19.5v-437h-281v1061
h281v-409z" />
    <glyph glyph-name="uni043B" unicode="&#x43b;" horiz-adv-x="1208" 
d="M1069 0h-281v838h-308v-492q0 -197 -80.5 -283.5t-238.5 -86.5q-40 0 -87.5 7t-89.5 18l47 223q32 -10 52 -10q68 0 92 34t24 105v708h870v-1061z" />
    <glyph glyph-name="uni043C" unicode="&#x43c;" horiz-adv-x="1472" 
d="M915 1061h418v-1061h-262v750l-206 -750h-258l-206 750v-750h-262v1061h418l180 -643z" />
    <glyph glyph-name="uni043D" unicode="&#x43d;" horiz-adv-x="1208" 
d="M788 432h-368v-432h-281v1061h281v-406h368v406h281v-1061h-281v432z" />
    <glyph glyph-name="uni043E" unicode="&#x43e;" horiz-adv-x="1212" 
d="M70 537q0 156 64 281t185 196t285 71q167 0 289 -71.5t185.5 -196t63.5 -282.5q0 -164 -64 -290.5t-185 -198t-287 -71.5t-287 71.5t-185 198.5t-64 292zM603 856q-70 0 -125.5 -39t-87.5 -113t-32 -174q0 -99 30 -172.5t85.5 -113t130.5 -39.5t131.5 39t87.5 113t31 175
q0 97 -30 170t-86.5 113.5t-134.5 40.5z" />
    <glyph glyph-name="uni043F" unicode="&#x43f;" horiz-adv-x="1208" 
d="M1069 0h-281v838h-368v-838h-281v1061h930v-1061z" />
    <glyph glyph-name="uni0440" unicode="&#x440;" horiz-adv-x="1253" 
d="M425 114h-5v-520h-281v1467h262v-156h5q55 92 142.5 136t187.5 44q128 0 229.5 -69.5t159.5 -197.5t58 -298q0 -168 -57 -291.5t-158.5 -188.5t-234.5 -65q-103 0 -171.5 30t-136.5 109zM668 861q-109 0 -179.5 -84.5t-70.5 -269.5q0 -95 29.5 -164.5t83.5 -106.5
t127 -37q116 0 176.5 85.5t60.5 248.5q0 155 -60.5 241.5t-166.5 86.5z" />
    <glyph glyph-name="uni0441" unicode="&#x441;" horiz-adv-x="1127" 
d="M583 861q-109 0 -167 -87.5t-58 -243.5q0 -146 58 -235.5t172 -89.5q79 0 130.5 52.5t67.5 150.5l276 -48q-44 -196 -165.5 -290.5t-322.5 -94.5q-163 0 -276.5 72.5t-170.5 198t-57 285.5q0 165 59 290t174 194.5t278 69.5q182 0 302 -84t164 -258l-275 -50
q-17 82 -65.5 125t-123.5 43z" />
    <glyph glyph-name="uni0442" unicode="&#x442;" horiz-adv-x="859" 
d="M570 838v-838h-281v838h-264v223h809v-223h-264z" />
    <glyph glyph-name="uni0443" unicode="&#x443;" horiz-adv-x="1139" 
d="M569 307h4q31 110 42 143l204 611h291l-408 -1092q-94 -249 -181 -323q-89 -76 -250 -76q-73 0 -193 27l47 215q62 -19 99 -19q51 0 83.5 16t59.5 59.5t57 129.5l-406 1063h299l207 -604q19 -54 45 -150z" />
    <glyph glyph-name="uni0444" unicode="&#x444;" horiz-adv-x="1860" 
d="M496 -25q-126 0 -222.5 66t-150 191.5t-53.5 300.5q0 163 55 288.5t151 194.5t217 69q187 0 296 -160h5v541h272v-541h5q54 82 130 121t166 39q121 0 217 -69t151 -194.5t55 -288.5q0 -175 -53.5 -300.5t-150 -191.5t-222.5 -66q-94 0 -161 34t-132 114h-5v-529h-272v529
h-5q-65 -80 -132 -114t-161 -34zM575 199q102 0 160.5 87t58.5 249q0 113 -31.5 186t-83 106.5t-114.5 33.5q-97 0 -152 -86.5t-55 -241.5q0 -163 55.5 -248.5t161.5 -85.5zM1295 861q-63 0 -114.5 -33.5t-83 -107t-31.5 -187.5q0 -161 58.5 -247.5t160.5 -86.5
q106 0 161.5 85.5t55.5 248.5q0 155 -55 241.5t-152 86.5z" />
    <glyph glyph-name="uni0445" unicode="&#x445;" horiz-adv-x="1126" 
d="M554 755h4q73 129 93 161l94 145h324l-345 -502l378 -559h-339l-129 206q-51 82 -76 139h-4q-25 -58 -80 -144l-127 -201h-323l368 547l-351 514h339l87 -144q35 -58 87 -162z" />
    <glyph glyph-name="uni0446" unicode="&#x446;" horiz-adv-x="1275" 
d="M420 1061v-838h368v838h281v-838h182v-573h-272v350h-840v1061h281z" />
    <glyph glyph-name="uni0447" unicode="&#x447;" horiz-adv-x="1181" 
d="M457 326q-175 0 -268 93.5t-93 262.5v379h281v-339q0 -96 39.5 -138.5t125.5 -42.5q53 0 113.5 15.5t105.5 46.5v458h281v-1061h-281v398q-56 -33 -138 -52.5t-166 -19.5z" />
    <glyph glyph-name="uni0448" unicode="&#x448;" horiz-adv-x="1805" 
d="M1385 1061h281v-1061h-1527v1061h281v-838h342v838h281v-838h342v838z" />
    <glyph glyph-name="uni0449" unicode="&#x449;" horiz-adv-x="1872" 
d="M1385 1061h281v-838h182v-573h-272v350h-1437v1061h281v-838h342v838h281v-838h342v838z" />
    <glyph glyph-name="uni044A" unicode="&#x44a;" horiz-adv-x="1179" 
d="M1125 328q0 -161 -105 -244.5t-312 -83.5h-419v838h-264v223h545v-394h140q207 0 311 -82t104 -257zM693 223q71 0 107.5 27.5t36.5 81.5q0 56 -34.5 84t-109.5 28h-123v-221h123z" />
    <glyph glyph-name="uni044B" unicode="&#x44b;" horiz-adv-x="1519" 
d="M945 328q0 -161 -105 -244.5t-312 -83.5h-389v1061h281v-394h110q207 0 311 -82t104 -257zM1099 0v1061h281v-1061h-281zM513 223q71 0 107.5 27.5t36.5 81.5q0 56 -34.5 84t-109.5 28h-93v-221h93z" />
    <glyph glyph-name="uni044C" unicode="&#x44c;" horiz-adv-x="1029" 
d="M975 328q0 -161 -105 -244.5t-312 -83.5h-419v1061h281v-394h140q207 0 311 -82t104 -257zM543 223q71 0 107.5 27.5t36.5 81.5q0 56 -34.5 84t-109.5 28h-123v-221h123z" />
    <glyph glyph-name="uni044D" unicode="&#x44d;" horiz-adv-x="1127" 
d="M546 1085q163 0 278 -69.5t174 -194.5t59 -290q0 -160 -57 -285.5t-170.5 -198t-276.5 -72.5q-201 0 -322.5 94.5t-165.5 290.5l276 48q16 -99 68 -154.5t130 -55.5q94 0 150 63.5t73 170.5h-323v223h319q-21 99 -75 153t-139 54q-75 0 -123.5 -43.5t-65.5 -125.5
l-275 50q44 174 164 258t302 84z" />
    <glyph glyph-name="uni044E" unicode="&#x44e;" horiz-adv-x="1656" 
d="M581 432h-161v-432h-281v1061h281v-406h164q21 127 84.5 224t167 151.5t239.5 54.5q159 0 274.5 -71.5t176 -196t60.5 -282.5q0 -164 -60.5 -290.5t-175.5 -198t-273 -71.5q-141 0 -246.5 57t-168.5 160t-81 240zM1074 856q-62 0 -111.5 -39t-78 -113t-28.5 -174
q0 -99 27 -172.5t76.5 -113t115.5 -39.5q67 0 117.5 39t78 113t27.5 175q0 97 -26.5 170t-77.5 113.5t-120 40.5z" />
    <glyph glyph-name="uni044F" unicode="&#x44f;" horiz-adv-x="1091" 
d="M508 294l-173 -294h-313l208 337q44 71 105 102q-119 37 -171.5 116t-52.5 183q0 157 107.5 240t314.5 83h419v-1061h-281v394h-38q-30 0 -60 -20.5t-65 -79.5zM548 838q-71 0 -110 -28t-39 -81q0 -56 37.5 -88t111.5 -32h123v229h-123z" />
    <glyph glyph-name="uni0450" unicode="&#x450;" horiz-adv-x="1171" 
d="M581 190q89 0 146.5 40.5t79.5 107.5l280 -44q-56 -155 -182 -237t-309 -82q-172 0 -290 68t-177 191.5t-59 289.5q0 153 61.5 281t179.5 204t281 76q155 0 269.5 -65.5t177.5 -192t63 -305.5v-86h-746q10 -118 69 -182t156 -64zM357 641h465q-10 111 -70 170t-159 59
q-94 0 -159 -60.5t-77 -168.5zM540 1196l-274 295h313l140 -295h-179z" />
    <glyph glyph-name="uni0451" unicode="&#x451;" horiz-adv-x="1171" 
d="M581 190q89 0 146.5 40.5t79.5 107.5l280 -44q-56 -155 -182 -237t-309 -82q-172 0 -290 68t-177 191.5t-59 289.5q0 153 61.5 281t179.5 204t281 76q155 0 269.5 -65.5t177.5 -192t63 -305.5v-86h-746q10 -118 69 -182t156 -64zM357 641h465q-10 111 -70 170t-159 59
q-94 0 -159 -60.5t-77 -168.5zM229 1225v241h242v-241h-242zM661 1225v241h242v-241h-242z" />
    <glyph glyph-name="uni0452" unicode="&#x452;" horiz-adv-x="1219" 
d="M766 -430q-44 0 -98 9t-99 22l45 225q42 -8 74 -8q47 0 72 17t34.5 50t9.5 87v691q0 105 -39 156t-126 51q-32 0 -68.5 -12.5t-65 -36.5t-47 -52t-28.5 -71.5t-10 -109.5v-588h-281v1176h-139v186h139v104h281v-104h294v-186h-294v-232q57 71 137 106t167 35
q175 0 268 -93.5t93 -262.5v-755q0 -150 -36.5 -239t-106.5 -127t-176 -38z" />
    <glyph glyph-name="uni0453" unicode="&#x453;" horiz-adv-x="859" 
d="M834 1061v-223h-414v-838h-281v1061h695zM343 1196l140 295h313l-274 -295h-179z" />
    <glyph glyph-name="uni0454" unicode="&#x454;" horiz-adv-x="1127" 
d="M583 862q-85 0 -139 -54t-75 -153h319v-223h-323q17 -107 73 -170.5t150 -63.5q78 0 130 55.5t68 154.5l276 -48q-44 -196 -165.5 -290.5t-322.5 -94.5q-163 0 -276.5 72.5t-170.5 198t-57 285.5q0 165 59 290t174 194.5t278 69.5q182 0 302 -84t164 -258l-275 -50
q-17 82 -65.5 125.5t-123.5 43.5z" />
    <glyph glyph-name="uni0455" unicode="&#x455;" horiz-adv-x="1049" 
d="M511 885q-67 0 -108 -23.5t-41 -64.5q0 -31 19.5 -52.5t69 -39t138.5 -32.5q202 -34 298 -114.5t96 -226.5q0 -102 -54 -183.5t-155.5 -127.5t-238.5 -46q-209 0 -329 83.5t-145 244.5l263 42q18 -84 68 -126.5t143 -42.5q80 0 128 30t48 83q0 29 -16 49.5t-59 36.5
t-123 28q-221 34 -321 124t-100 240q0 97 51 169t146.5 110.5t226.5 38.5q186 0 300 -74t138 -210l-268 -39q-12 59 -58.5 91t-116.5 32z" />
    <glyph glyph-name="uni0456" unicode="&#x456;" horiz-adv-x="559" 
d="M139 1206v260h281v-260h-281zM139 0v1061h281v-1061h-281z" />
    <glyph glyph-name="uni0457" unicode="&#x457;" horiz-adv-x="559" 
d="M139 0v1061h281v-1061h-281zM-57 1225v241h242v-241h-242zM375 1225v241h242v-241h-242z" />
    <glyph glyph-name="uni0458" unicode="&#x458;" horiz-adv-x="562" 
d="M142 1206v260h281v-260h-281zM104 -430q-44 0 -98 9t-99 22l45 225q42 -8 74 -8q47 0 72 17t34.5 50t9.5 87v1089h281v-1087q0 -150 -36.5 -239t-106.5 -127t-176 -38z" />
    <glyph glyph-name="uni0459" unicode="&#x459;" horiz-adv-x="1619" 
d="M1565 328q0 -161 -105 -244.5t-312 -83.5h-389v838h-279v-492q0 -197 -79.5 -283.5t-239.5 -86.5q-40 0 -87.5 7t-89.5 18l47 223q32 -10 52 -10q68 0 92 34t24 105v708h841v-394h110q207 0 311 -82t104 -257zM1133 223q71 0 107.5 27.5t36.5 81.5q0 56 -34.5 84
t-109.5 28h-93v-221h93z" />
    <glyph glyph-name="uni045A" unicode="&#x45a;" horiz-adv-x="1579" 
d="M1525 328q0 -161 -105 -244.5t-312 -83.5h-389v444h-299v-444h-281v1061h281v-394h299v394h281v-394h110q207 0 311 -82t104 -257zM1093 223q71 0 107.5 27.5t36.5 81.5q0 56 -34.5 84t-109.5 28h-93v-221h93z" />
    <glyph glyph-name="uni045B" unicode="&#x45b;" horiz-adv-x="1219" 
d="M714 1362v-186h-294v-232q57 71 137 106t167 35q175 0 268 -93.5t93 -262.5v-729h-281v663q0 102 -38 154.5t-127 52.5q-32 0 -67.5 -12t-65 -37t-48 -53t-28.5 -71t-10 -109v-588h-281v1176h-139v186h139v104h281v-104h294z" />
    <glyph glyph-name="uni045C" unicode="&#x45c;" horiz-adv-x="1083" 
d="M420 652q28 0 46.5 5.5t34.5 19.5q33 30 61 91l54 111q36 75 68.5 112.5t82 53.5t135.5 16h99v-215h-48q-42 0 -63 -15t-41 -58l-43 -96q-24 -53 -56 -82t-81 -48q61 -13 97.5 -47.5t75.5 -104.5l219 -395h-313l-174 337q-32 61 -67.5 80.5t-86.5 19.5v-437h-281v1061
h281v-409zM445 1196l140 295h313l-274 -295h-179z" />
    <glyph glyph-name="uni045D" unicode="&#x45d;" horiz-adv-x="1208" 
d="M420 480l363 581h286v-1061h-281v581l-363 -581h-286v1061h281v-581zM571 1196l-274 295h313l140 -295h-179z" />
    <glyph glyph-name="uni045E" unicode="&#x45e;" horiz-adv-x="1139" 
d="M569 307h4q31 110 42 143l204 611h291l-408 -1092q-94 -249 -181 -323q-89 -76 -250 -76q-73 0 -193 27l47 215q62 -19 99 -19q51 0 83.5 16t59.5 59.5t57 129.5l-406 1063h299l207 -604q19 -54 45 -150zM569 1335q69 0 104 40t43 116h189q-14 -145 -103.5 -224
t-232.5 -79q-146 0 -233.5 76t-102.5 227h189q4 -74 44 -115t103 -41z" />
    <glyph glyph-name="uni045F" unicode="&#x45f;" horiz-adv-x="1208" 
d="M420 1061v-838h368v838h281v-1061h-329v-350h-272v350h-329v1061h281z" />
    <glyph glyph-name="uni0490" unicode="&#x490;" horiz-adv-x="1104" 
d="M154 0v1466h615v406h285v-654h-605v-1218h-295z" />
    <glyph glyph-name="uni0491" unicode="&#x491;" horiz-adv-x="859" 
d="M824 1466v-628h-404v-838h-281v1061h413v405h272z" />
    <glyph glyph-name="uni0492" unicode="&#x492;" horiz-adv-x="1104" 
d="M154 820v646h900v-248h-605v-398h304v-248h-304v-572h-295v572h-157v248h157z" />
    <glyph glyph-name="uni0493" unicode="&#x493;" horiz-adv-x="859" 
d="M139 594v467h695v-223h-414v-244h224v-223h-224v-371h-281v371h-137v223h137z" />
    <glyph glyph-name="uni0496" unicode="&#x496;" horiz-adv-x="2088" 
d="M563 441l-13 -28l-194 -413h-344l255 505q47 93 84 143t71.5 73t85.5 39v4q-67 16 -112.5 63t-82.5 137l-72 173q-17 43 -42.5 62t-72.5 19h-71v248h140q123 0 198 -58.5t120 -166.5l69 -166q28 -68 58 -103t73.5 -48.5t114.5 -13.5h46v556h285v-556h46q71 0 114.5 13.5
t73.5 48.5t58 103l69 166q45 108 120 166.5t198 58.5h140v-248h-71q-47 0 -72.5 -19t-42.5 -62l-72 -173q-37 -90 -82.5 -137t-112.5 -63v-4q51 -16 85.5 -39t71.5 -73t84 -143l130 -257h168v-654h-285v406h-102l-194 413l-13 28q-34 74 -61.5 117.5t-74 73.5t-116.5 30h-59
v-662h-285v662h-59q-70 0 -116.5 -30t-74 -73.5t-61.5 -117.5z" />
    <glyph glyph-name="uni0497" unicode="&#x497;" horiz-adv-x="1583" 
d="M499 337l-164 -337h-313l209 395q36 69 74 104t99 48q-49 19 -81 48t-56 82l-43 96q-20 43 -41 58t-63 15h-48v215h99q86 0 135.5 -16t82 -53.5t68.5 -112.5l54 -111q25 -53 54.5 -84.5t72.5 -31.5v409h272v-409q43 0 72.5 31.5t54.5 84.5l54 111q36 75 68.5 112.5
t82 53.5t135.5 16h99v-215h-48q-42 0 -63 -15t-41 -58l-43 -96q-24 -53 -56 -82t-81 -48q61 -13 99 -48t74 -104l91 -172h153v-573h-272v350h-76l-164 337q-21 44 -41.5 65.5t-42.5 28t-55 6.5v-437h-272v437q-33 0 -55 -6.5t-42.5 -28t-41.5 -65.5z" />
    <glyph glyph-name="uni049A" unicode="&#x49a;" horiz-adv-x="1398" 
d="M1076 505l130 -257h168v-654h-285v406h-102l-194 413l-13 28q-34 74 -61.5 117.5t-74 73.5t-116.5 30h-79v-662h-295v1466h295v-556h66q71 0 114.5 13.5t73.5 48.5t58 103l69 166q45 108 120 166.5t198 58.5h140v-248h-71q-47 0 -72.5 -19t-42.5 -62l-72 -173
q-37 -90 -82.5 -137t-112.5 -63v-4q51 -16 85.5 -39t71.5 -73t84 -143z" />
    <glyph glyph-name="uni049B" unicode="&#x49b;" horiz-adv-x="1112" 
d="M420 652q28 0 46.5 5.5t34.5 19.5q33 30 61 91l54 111q36 75 68.5 112.5t82 53.5t135.5 16h99v-215h-48q-42 0 -63 -15t-41 -58l-43 -96q-24 -53 -56 -82t-81 -48q61 -13 97.5 -47.5t75.5 -104.5l95 -172h153v-573h-272v350h-70l-174 337q-32 61 -67.5 80.5t-86.5 19.5
v-437h-281v1061h281v-409z" />
    <glyph glyph-name="uni04B0" unicode="&#x4b0;" horiz-adv-x="1340" 
d="M673 862h4q40 86 108 208l220 396h340l-443 -715h299v-205h-384v-546h-295v546h-384v205h300l-443 715h346l224 -395q65 -114 108 -209z" />
    <glyph glyph-name="uni04B1" unicode="&#x4b1;" horiz-adv-x="1124" 
d="M565 346l250 715h289l-340 -875h255v-186h-314v-406h-281v406h-314v186h254l-344 875h295l246 -714z" />
    <glyph glyph-name="uni04B2" unicode="&#x4b2;" horiz-adv-x="1408" 
d="M691 975h4q30 73 73 143l212 348h344l-457 -712l337 -506h180v-654h-285v406h-86l-244 378q-40 62 -80 148h-4q-38 -82 -81 -149l-243 -377h-356l502 766l-455 700h346l214 -341q41 -66 79 -150z" />
    <glyph glyph-name="uni04B3" unicode="&#x4b3;" horiz-adv-x="1138" 
d="M554 755h4l17 31q56 98 76 130l94 145h324l-345 -502l227 -336h165v-573h-272v350h-81l-129 206q-51 82 -76 139h-4q-25 -58 -80 -144l-127 -201h-323l368 547l-351 514h339l87 -144q35 -58 87 -162z" />
    <glyph glyph-name="uni04B6" unicode="&#x4b6;" horiz-adv-x="1500" 
d="M599 505q-247 0 -363 118t-116 357v486h295v-467q0 -86 21.5 -138t72 -77t137.5 -25q177 0 316 44v663h295v-1218h211v-654h-285v406h-221v562q-163 -57 -363 -57z" />
    <glyph glyph-name="uni04B7" unicode="&#x4b7;" horiz-adv-x="1248" 
d="M952 -350v350h-191v398q-56 -33 -138 -52.5t-166 -19.5q-175 0 -268 93.5t-93 262.5v379h281v-339q0 -96 39.5 -138.5t125.5 -42.5q53 0 113.5 15.5t105.5 46.5v458h281v-838h182v-573h-272z" />
    <glyph glyph-name="uni051A" unicode="&#x51a;" horiz-adv-x="1608" 
d="M88 725q0 232 87.5 405.5t249.5 267t378 93.5q217 0 379 -94t250 -266t88 -400q0 -165 -48.5 -303.5t-139.5 -238.5q58 -44 116 -75.5t125 -52.5l-110 -208q-80 24 -168 76t-161 114q-145 -68 -327 -68q-218 0 -381 94.5t-250.5 265t-87.5 390.5zM803 1237
q-126 0 -218.5 -64.5t-141.5 -178.5t-49 -261t48 -261t141 -178.5t222 -64.5q58 0 112 14q-35 23 -85 48.5t-95 42.5l82 180q135 -47 281 -151q56 68 85 163t29 211q0 144 -48.5 257.5t-141 178t-221.5 64.5z" />
    <glyph glyph-name="uni051B" unicode="&#x51b;" horiz-adv-x="1253" 
d="M852 1061h262v-1467h-281v523h-4q-63 -73 -139.5 -107.5t-169.5 -34.5q-131 0 -233 65t-159.5 188.5t-57.5 291.5q0 170 58 298t160 197.5t230 69.5q95 0 179.5 -43.5t149.5 -135.5l1 -1h4v156zM583 862q-68 0 -118.5 -39t-78.5 -113t-28 -177q0 -163 60.5 -253
t175.5 -90q73 0 127.5 38t84 109.5t29.5 169.5q0 123 -33.5 202.5t-90 116t-128.5 36.5z" />
    <glyph glyph-name="uni051C" unicode="&#x51c;" horiz-adv-x="1921" 
d="M527 425h4q14 95 43 205l217 836h352l209 -841q23 -90 44 -217h4q18 120 38 218l172 840h303l-351 -1466h-315l-248 951q-25 93 -38 186h-4q-16 -105 -36 -180l-246 -957h-322l-345 1466h308l175 -835q21 -96 36 -206z" />
    <glyph glyph-name="uni051D" unicode="&#x51d;" horiz-adv-x="1611" 
d="M470 427q14 -61 19 -80h4q25 121 44 198l133 516h272l131 -524q22 -86 40 -190h4q17 83 46 189l143 525h281l-330 -1061h-270l-142 539q-23 86 -38 175h-4q-15 -87 -38 -175l-141 -539h-272l-328 1061h281l137 -518q11 -42 28 -116z" />
    <glyph glyph-name="uni058F" unicode="&#x58f;" horiz-adv-x="1163" 
d="M355 736q-114 43 -175 128t-61 212q0 176 116 288t313 112q212 0 317 -105.5t105 -308.5v-356h155v-223h-155v-483h-281v483h-205v223h205v320q0 121 -35 167t-117 46q-66 0 -105.5 -41t-39.5 -108q0 -46 15 -74t45 -47z" />
    <glyph glyph-name="uni060B" unicode="&#x60b;" horiz-adv-x="1278" 
d="M244 439q336 4 501 57t165 178q0 38 -13 66q-36 -59 -89.5 -88t-121.5 -29q-119 0 -185.5 82t-66.5 195q0 121 96 218t265 97q174 0 286.5 -128.5t112.5 -313.5q0 -296 -235.5 -428.5t-714.5 -137.5v232zM768 -313q-14 108 -41 221.5t-61 223.5l250 73q48 -118 76.5 -246
t33.5 -225zM701.5 862q15.5 -22 50.5 -22q31 0 61 21t45 67q-14 28 -37.5 44t-52.5 16q-35 0 -58.5 -20t-23.5 -52t15.5 -54zM324 1289q47 -47 47 -115q0 -67 -46.5 -114.5t-115.5 -47.5q-68 0 -114 48t-46 114q0 68 46.5 115t113.5 47q68 0 115 -47z" />
    <glyph glyph-name="uni09F2" unicode="&#x9f2;" horiz-adv-x="1058" 
d="M852 234q-191 236 -396 442t-397 351l263 252q205 -183 380 -416t322 -510z" />
    <glyph glyph-name="uni09F3" unicode="&#x9f3;" horiz-adv-x="1663" 
d="M380 1071h129v68q0 55 -24 86t-80 31q-58 0 -89.5 -44.5t-31.5 -133.5h-257q0 177 93.5 274.5t290.5 97.5q183 0 275 -75t92 -240v-64h648v-212h-648v-497q0 -136 63 -210.5t200 -74.5q134 0 198 62t64 182q0 84 -30 123.5t-87 39.5q-38 0 -57.5 -18t-19.5 -43
q0 -24 21 -41t58 -17v-182q-153 0 -226.5 58t-73.5 185q0 114 86.5 187.5t236.5 73.5q162 0 267 -97t105 -271q0 -202 -144.5 -326.5t-391.5 -124.5q-269 0 -403.5 119.5t-134.5 367.5v504h-129v212z" />
    <glyph glyph-name="uni0AF1" unicode="&#xaf1;" horiz-adv-x="1809" 
d="M170 1410q43 19 126.5 38.5t197.5 19.5q196 0 294.5 -83t98.5 -241q0 -108 -42.5 -180.5t-144.5 -124.5q110 -51 159.5 -138.5t49.5 -221.5q0 -156 -92.5 -272t-238.5 -148q45 -54 101 -103t130 -102l-182 -213q-140 91 -246 189.5t-162 191.5q-45 22 -113.5 98.5
t-91.5 140.5l158 150q56 -22 107.5 -60.5t109.5 -99.5q110 0 169.5 59t59.5 173t-64.5 174.5t-184.5 60.5v232q109 0 172 40t63 111q0 72 -43 103.5t-129 31.5q-61 0 -138 -16t-124 -39v229zM1102 87.5q-92 94.5 -92 280.5q0 162 103.5 267.5t264.5 105.5q178 0 274.5 -99
t96.5 -274q0 -178 -97 -276.5t-274 -98.5q-184 0 -276 94.5zM1456.5 489q-30.5 37 -78.5 37q-35 0 -69.5 -38.5t-34.5 -121.5q0 -160 104 -160q52 0 80.5 36.5t28.5 125.5q0 84 -30.5 121z" />
    <glyph glyph-name="uni0BF9" unicode="&#xbf9;" horiz-adv-x="3258" 
d="M2099.5 360.5q-90.5 96.5 -90.5 253.5q0 142 79 246t208 129q-133 150 -355.5 220.5t-564.5 70.5q-531 0 -788.5 -200t-257.5 -613q0 -309 178 -491.5t500 -182.5t484.5 113.5t162.5 339.5q0 98 -22.5 146t-71.5 48q-42 0 -76 -20.5t-55 -52.5v-367h-281v811h-188v-811
h-279v1042h1090v-231h-342v-229q50 50 102 67t113 17q140 0 216 -104.5t76 -303.5q0 -324 -241.5 -500t-687.5 -176q-428 0 -686.5 241t-258.5 634q0 313 155.5 548t452.5 362.5t703 127.5q445 0 755.5 -121.5t481.5 -361.5q226 -32 347.5 -143t121.5 -275q0 -33 -2.5 -50.5
t-5.5 -29.5h162v-223h-492q36 41 58 108t22 127q0 101 -35.5 159.5t-103.5 76.5q0 -14 5 -50.5t5 -80.5q0 -182 -86 -274.5t-260 -92.5q-157 0 -247.5 96.5zM2404 780q-68 -6 -105.5 -49.5t-37.5 -112.5q0 -71 23.5 -106t60.5 -35q44 0 67 39t23 111q0 49 -8.5 89t-22.5 64z
" />
    <glyph glyph-name="uni0E3F" unicode="&#xe3f;" horiz-adv-x="1163" 
d="M116 1446h395v152h136v-154q404 -23 404 -376q0 -112 -60 -186.5t-167 -111.5q135 -39 206 -130t71 -219q0 -215 -131 -309t-323 -109v-210h-136v207h-395v1446zM395 1216v-352h116v352h-116zM647 1210v-341q63 13 97.5 55t34.5 113q0 145 -132 173zM395 634v-404h116
v404h-116zM647 629v-394q164 25 164 192q0 84 -39 136t-125 66z" />
    <glyph glyph-name="uni17DB" unicode="&#x17db;" horiz-adv-x="1185" 
d="M428 791h135v91q-151 7 -233 83t-82 210q0 131 93.5 212t260.5 81q160 0 297.5 -61.5t237.5 -61.5v-217q-162 0 -290.5 63.5t-211.5 63.5q-65 0 -88.5 -43.5t6.5 -94t289 -53.5v-273h188v-213h-188v-578h-291q-260 0 -389 79.5t-129 246.5q0 129 93 205.5t247 76.5v-215
q-37 0 -51.5 -22.5t-14.5 -48.5q0 -62 57.5 -80.5t198.5 -18.5v355h-135v213z" />
    <glyph glyph-name="uni1E62" unicode="&#x1e62;" horiz-adv-x="1323" 
d="M631 1247q-94 0 -157.5 -38t-63.5 -107q0 -46 29 -78.5t99 -59.5t199 -57q194 -45 302.5 -108.5t152 -152t43.5 -219.5q0 -152 -79.5 -253.5t-209.5 -150t-285 -48.5q-249 0 -403 127t-188 365l295 36q26 -144 98.5 -212t205.5 -68q80 0 141.5 22.5t95.5 63.5t34 97
q0 64 -24.5 100t-96 65.5t-223.5 65.5q-179 43 -283 106t-147.5 145t-43.5 192q0 120 61.5 213t179.5 145.5t282 52.5q236 0 375.5 -108.5t173.5 -315.5l-295 -33q-14 114 -79 163.5t-189 49.5zM521 -415v261h281v-261h-281z" />
    <glyph glyph-name="uni1E63" unicode="&#x1e63;" horiz-adv-x="1049" 
d="M511 885q-67 0 -108 -23.5t-41 -64.5q0 -31 19.5 -52.5t69 -39t138.5 -32.5q202 -34 298 -114.5t96 -226.5q0 -102 -54 -183.5t-155.5 -127.5t-238.5 -46q-209 0 -329 83.5t-145 244.5l263 42q18 -84 68 -126.5t143 -42.5q80 0 128 30t48 83q0 29 -16 49.5t-59 36.5
t-123 28q-221 34 -321 124t-100 240q0 97 51 169t146.5 110.5t226.5 38.5q186 0 300 -74t138 -210l-268 -39q-12 59 -58.5 91t-116.5 32zM384 -415v261h281v-261h-281z" />
    <glyph glyph-name="uni1EA0" unicode="&#x1ea0;" horiz-adv-x="1460" 
d="M1133 0l-127 332h-566l-121 -332h-315l571 1466h293l588 -1466h-323zM651 911l-121 -331h381l-123 331q-24 64 -42.5 131t-24.5 109h-8q-18 -120 -62 -240zM589 -415v261h281v-261h-281z" />
    <glyph glyph-name="uni1EA1" unicode="&#x1ea1;" horiz-adv-x="1126" 
d="M1059 0h-277q-21 46 -34 117q-141 -142 -330 -142q-104 0 -183 40t-122 112.5t-43 165.5q0 141 92 224t284 113t270 58v20q0 93 -45.5 127.5t-134.5 34.5q-70 0 -117 -32t-71 -101l-256 39q42 160 156 234.5t305 74.5q155 0 252.5 -39.5t144.5 -125.5t47 -225v-433
q0 -76 11 -127t51 -135zM501 455q-150 -30 -150 -146q0 -65 37 -100t106 -35t127 35q40 24 59.5 50.5t27.5 71.5t8 126v51q-74 -27 -215 -53zM412 -415v261h281v-261h-281z" />
    <glyph glyph-name="uni1EB8" unicode="&#x1eb8;" horiz-adv-x="1253" 
d="M449 1218v-335h616v-248h-616v-387h706v-248h-1001v1466h966v-248h-671zM526 -415v261h281v-261h-281z" />
    <glyph glyph-name="uni1EB9" unicode="&#x1eb9;" horiz-adv-x="1171" 
d="M581 190q89 0 146.5 40.5t79.5 107.5l280 -44q-56 -155 -182 -237t-309 -82q-172 0 -290 68t-177 191.5t-59 289.5q0 153 61.5 281t179.5 204t281 76q155 0 269.5 -65.5t177.5 -192t63 -305.5v-86h-746q10 -118 69 -182t156 -64zM357 641h465q-10 111 -70 170t-159 59
q-94 0 -159 -60.5t-77 -168.5zM445 -415v261h281v-261h-281z" />
    <glyph glyph-name="uni1ECA" unicode="&#x1eca;" horiz-adv-x="603" 
d="M154 0v1466h295v-1466h-295zM161 -415v261h281v-261h-281z" />
    <glyph glyph-name="uni1ECB" unicode="&#x1ecb;" horiz-adv-x="559" 
d="M139 1206v260h281v-260h-281zM139 0v1061h281v-1061h-281zM139 -415v261h281v-261h-281z" />
    <glyph glyph-name="uni1ECC" unicode="&#x1ecc;" horiz-adv-x="1608" 
d="M88 725q0 232 87.5 404.5t249.5 267t378 94.5q217 0 379 -94t250 -266t88 -400q0 -222 -86.5 -393.5t-247.5 -267t-379 -95.5t-381 94.5t-250.5 265t-87.5 390.5zM803 1237q-126 0 -218.5 -64.5t-141.5 -178.5t-49 -261t48 -261t141 -178.5t222 -64.5q127 0 219.5 64
t141 179t48.5 265q0 144 -48.5 257.5t-141 178t-221.5 64.5zM663 -415v261h281v-261h-281z" />
    <glyph glyph-name="uni1ECD" unicode="&#x1ecd;" horiz-adv-x="1212" 
d="M70 537q0 156 64 281t185 196t285 71q167 0 289 -71.5t185.5 -196t63.5 -282.5q0 -164 -64 -290.5t-185 -198t-287 -71.5t-287 71.5t-185 198.5t-64 292zM603 856q-70 0 -125.5 -39t-87.5 -113t-32 -174q0 -99 30 -172.5t85.5 -113t130.5 -39.5t131.5 39t87.5 113t31 175
q0 97 -30 170t-86.5 113.5t-134.5 40.5zM465 -415v261h281v-261h-281z" />
    <glyph glyph-name="uni1EE4" unicode="&#x1ee4;" horiz-adv-x="1462" 
d="M739 229q113 0 173.5 37t84.5 115.5t24 215.5v869h295v-862q0 -224 -54 -361t-178 -202.5t-338 -65.5q-225 0 -356.5 69t-187.5 205.5t-56 352.5v864h295v-873q0 -131 30.5 -210.5t95.5 -116.5t172 -37zM590 -415v261h281v-261h-281z" />
    <glyph glyph-name="uni1EE5" unicode="&#x1ee5;" horiz-adv-x="1219" 
d="M581 190q52 0 101.5 24.5t83 87.5t33.5 169v590h281v-1061h-262v139q-56 -79 -139.5 -121.5t-182.5 -42.5q-177 0 -269.5 94t-92.5 264v728h281v-663q0 -106 40 -157t126 -51zM469 -415v261h281v-261h-281z" />
    <glyph glyph-name="endash" unicode="&#x2013;" horiz-adv-x="1024" 
d="M-10 426v209h1044v-209h-1044z" />
    <glyph glyph-name="emdash" unicode="&#x2014;" horiz-adv-x="2048" 
d="M-10 426v209h2068v-209h-2068z" />
    <glyph glyph-name="uni2015" unicode="&#x2015;" horiz-adv-x="2048" 
d="M300 426v209h1448v-209h-1448z" />
    <glyph glyph-name="quoteleft" unicode="&#x2018;" horiz-adv-x="568" 
d="M393 1481l57 -122q-85 -28 -121.5 -76.5t-39.5 -129.5h139v-288h-288v219q0 112 21.5 184t76 123t155.5 90z" />
    <glyph glyph-name="quoteright" unicode="&#x2019;" horiz-adv-x="568" 
d="M175 850l-57 122q85 27 121.5 75t39.5 131h-139v288h288v-219q0 -112 -21.5 -184t-76 -123t-155.5 -90z" />
    <glyph glyph-name="quotesinglbase" unicode="&#x201a;" horiz-adv-x="568" 
d="M175 -328l-57 122q85 27 121.5 76t39.5 130h-139v288h288v-219q0 -112 -21.5 -184t-76 -123t-155.5 -90z" />
    <glyph glyph-name="quotedblleft" unicode="&#x201c;" horiz-adv-x="1018" 
d="M393 1481l57 -122q-85 -28 -121.5 -76.5t-39.5 -129.5h139v-288h-288v219q0 112 21.5 184t76 123t155.5 90zM843 1481l57 -122q-85 -28 -121.5 -76.5t-39.5 -129.5h139v-288h-288v219q0 112 21.5 184t76 123t155.5 90z" />
    <glyph glyph-name="quotedblright" unicode="&#x201d;" horiz-adv-x="1018" 
d="M175 850l-57 122q85 27 121.5 75.5t39.5 130.5h-139v288h288v-219q0 -112 -21.5 -184t-76 -123t-155.5 -90zM625 850l-57 122q85 27 121.5 75.5t39.5 130.5h-139v288h288v-219q0 -112 -21.5 -184t-76 -123t-155.5 -90z" />
    <glyph glyph-name="quotedblbase" unicode="&#x201e;" horiz-adv-x="1018" 
d="M175 -328l-57 122q85 27 121.5 76t39.5 130h-139v288h288v-219q0 -112 -21.5 -184t-76 -123t-155.5 -90zM625 -328l-57 122q85 27 121.5 76t39.5 130h-139v288h288v-219q0 -112 -21.5 -184t-76 -123t-155.5 -90z" />
    <glyph glyph-name="dagger" unicode="&#x2020;" horiz-adv-x="1139" 
d="M1065 1059v-234h-361v-1177h-264v1177h-366v234h366v407h264v-407h361z" />
    <glyph glyph-name="daggerdbl" unicode="&#x2021;" horiz-adv-x="1139" 
d="M1065 1124v-234h-361v-656h361v-234h-361v-352h-264v352h-366v234h366v656h-366v234h366v342h264v-342h361z" />
    <glyph glyph-name="bullet" unicode="&#x2022;" horiz-adv-x="717" 
d="M63 723q0 80 40.5 148.5t108.5 108.5t145 40q80 0 148 -40.5t108.5 -108.5t40.5 -148q0 -79 -40.5 -147t-109 -108t-147.5 -40q-78 0 -145.5 40.5t-108 108.5t-40.5 146z" />
    <glyph glyph-name="ellipsis" unicode="&#x2026;" horiz-adv-x="2048" 
d="M197 0v288h288v-288h-288zM880 0v288h288v-288h-288zM1563 0v288h288v-288h-288z" />
    <glyph glyph-name="perthousand" unicode="&#x2030;" horiz-adv-x="2582" 
d="M68 1080q0 197 88.5 304t256.5 107q171 0 257.5 -103.5t86.5 -301.5q0 -200 -86.5 -302t-253.5 -102q-172 0 -260.5 101.5t-88.5 296.5zM402 -25l792 1516h191l-784 -1516h-199zM412 1309q-60 0 -84 -56t-24 -166q0 -115 24.5 -168.5t84.5 -53.5t84 52.5t24 169.5
q0 113 -24 167.5t-85 54.5zM1025 373q0 197 88.5 304t256.5 107q171 0 257.5 -103.5t86.5 -301.5q0 -200 -86.5 -302t-253.5 -102q-172 0 -260.5 101.5t-88.5 296.5zM1825 373q0 197 88.5 304t256.5 107q171 0 257.5 -103.5t86.5 -301.5q0 -200 -86.5 -302t-253.5 -102
q-172 0 -260.5 101.5t-88.5 296.5zM1369 602q-60 0 -84 -56t-24 -166q0 -115 24.5 -168.5t84.5 -53.5t84 52.5t24 169.5q0 113 -24 167.5t-85 54.5zM2169 602q-60 0 -84 -56t-24 -166q0 -115 24.5 -168.5t84.5 -53.5t84 52.5t24 169.5q0 113 -24 167.5t-85 54.5z" />
    <glyph glyph-name="guilsinglleft" unicode="&#x2039;" 
d="M622 70h-221l-315 462l315 451h221l-260 -451z" />
    <glyph glyph-name="guilsinglright" unicode="&#x203a;" 
d="M281 70h-221l260 450l-260 463h221l315 -463z" />
    <glyph glyph-name="uni20A0" unicode="&#x20a0;" horiz-adv-x="1496" 
d="M980 818v-173h371v-223h-371v-199h461v-223h-742v388q-54 -9 -115 -9q-164 0 -279.5 66.5t-175 189t-59.5 289.5q0 162 63 284.5t181 190t276 67.5q165 0 271.5 -64.5t163.5 -198.5l-259 -98q-26 69 -70.5 102.5t-110.5 33.5q-109 0 -168 -86t-59 -238q0 -151 64 -232
t187 -81q46 0 90 8v429h707v-223h-426z" />
    <glyph glyph-name="colonmonetary" unicode="&#x20a1;" horiz-adv-x="1163" 
d="M818 1123l-91 -895q46 30 81.5 84.5t56.5 127.5l274 -99q-53 -159 -163.5 -252t-273.5 -110l-24 -240l-110 10l23 227q-57 3 -108 15l-25 -252l-110 10l28 279q-161 77 -246 257.5t-85 449.5q0 208 57.5 364.5t165 249.5t254.5 115l18 180l110 -10l-17 -163
q57 -1 108 -12l19 185l110 -10l-21 -206q99 -40 168.5 -115t108.5 -179l-276 -87q-12 38 -32 76zM613 194l104 1033q-47 24 -106 25l-104 -1031q47 -26 106 -27zM406 323l91 900q-86 -52 -128.5 -183.5t-42.5 -310.5q0 -269 80 -406z" />
    <glyph glyph-name="uni20A2" unicode="&#x20a2;" horiz-adv-x="1163" 
d="M928 671q-93 0 -140.5 -86t-47.5 -244v-101q83 57 125 200l274 -99q-59 -176 -188.5 -271t-321.5 -95q-187 0 -318 89.5t-198.5 260t-67.5 410.5q0 229 70 395t201 253.5t311 87.5q185 0 312.5 -89.5t186.5 -247.5l-276 -87q-62 195 -228 195q-95 0 -160 -67t-97 -183
t-32 -263q0 -168 37 -290.5t109 -183.5v626h240v-150h4q50 93 106 133.5t135 40.5q46 0 86.5 -12.5t79.5 -34.5l-90 -230q-18 15 -52 29t-60 14z" />
    <glyph glyph-name="franc" unicode="&#x20a3;" horiz-adv-x="1163" 
d="M496 0h-294v236h-160v204h160v1006h885v-248h-591v-353h495v-247h-495v-158h296v-204h-296v-236z" />
    <glyph glyph-name="lira" unicode="&#x20a4;" horiz-adv-x="1163" 
d="M209 771l-6 19h-195v155h155q-12 72 -12 119q0 109 53.5 202.5t157 150t247.5 56.5q205 0 325 -99.5t147 -287.5l-271 -39q-18 100 -66.5 146t-127.5 46q-54 0 -96 -23.5t-65 -64.5t-23 -91q0 -37 17 -115h327v-155h-286q2 -7 14 -50.5t18 -84.5h254v-155h-251
q-1 -3 -1 -6.5t-1 -6.5q-27 -121 -149 -229l4 -4q47 29 137 29q25 0 62.5 -7t102.5 -22q112 -25 143 -25q80 0 204 56l110 -237q-68 -35 -141 -54t-137 -19q-92 0 -237 43t-225 43q-63 0 -123 -20.5t-125 -65.5l-107 242l2 1q85 62 134.5 124t63.5 136q1 5 1 11t1 11h-236
v155h230q-7 36 -29 116z" />
    <glyph glyph-name="uni20A5" unicode="&#x20a5;" horiz-adv-x="1800" 
d="M762 671q0 94 -31 146.5t-107 52.5q-204 0 -204 -290v-580h-281v1061h262v-135h2q61 80 138 119.5t180 39.5q200 0 291 -167q18 23 37 43l232 480l114 -52l-151 -313q41 9 83 9q166 0 252.5 -94.5t86.5 -299.5v-691h-281v686q0 88 -35 136t-107 48q-71 0 -122 -49
l-78 -162v-659h-281v76l-225 -467l-114 52l339 703v307z" />
    <glyph glyph-name="uni20A6" unicode="&#x20a6;" horiz-adv-x="1163" 
d="M0 810v155h115v481h287l205 -481h179v481h265v-481h112v-155h-112v-135h112v-155h-112v-520h-297l-223 520h-151v-520h-265v520h-115v155h115v135h-115zM380 876v-201h85zM673 810l113 -264v264h-113z" />
    <glyph glyph-name="peseta" unicode="&#x20a7;" horiz-adv-x="2510" 
d="M1601 992v-202h-198v-469q0 -46 6.5 -69.5t23 -33t49.5 -9.5q52 0 111 16l35 -217q-46 -15 -102 -24t-113 -9q-112 0 -172.5 31t-85.5 101t-25 195v488h-126q-51 -123 -176.5 -180.5t-333.5 -57.5h-92v-552h-288v1446h380q284 0 415.5 -111.5t131.5 -333.5v-9h89v193
l273 169v-362h198zM746 996q0 101 -60.5 158.5t-185.5 57.5h-98v-426h98q133 0 189.5 53.5t56.5 156.5zM2035 821q-42 0 -63.5 -18t-21.5 -45q0 -35 45.5 -66.5t147.5 -70.5q146 -55 223.5 -132t77.5 -204q0 -145 -96 -227.5t-293 -82.5q-125 0 -208.5 32t-134 102.5
t-72.5 187.5l270 40q9 -83 49 -122t96 -39q121 0 121 82q0 29 -18.5 51t-48.5 38.5t-89 42.5l-21 9q-119 54 -186.5 103.5t-96.5 106t-29 133.5q0 71 41 134t121 102t190 39q153 0 247 -66t124 -209l-263 -40q-22 119 -112 119z" />
    <glyph glyph-name="uni20A8" unicode="&#x20a8;" horiz-adv-x="1955" 
d="M1056 1039q0 -305 -317 -385q38 -11 68.5 -31.5t67.5 -75t80 -155.5l165 -392h-322l-144 351q-49 118 -81 172t-63 71t-84 17h-24v-611h-288v1446h453q254 0 371.5 -103t117.5 -304zM768 1026q0 102 -64.5 144t-194.5 42h-107v-384h84q148 0 215 47.5t67 150.5zM1480 821
q-42 0 -63.5 -18t-21.5 -45q0 -35 45.5 -66.5t147.5 -70.5q146 -55 223.5 -132t77.5 -204q0 -145 -96 -227.5t-293 -82.5q-125 0 -208.5 32t-134 102.5t-72.5 187.5l270 40q9 -83 49 -122t96 -39q121 0 121 82q0 29 -18.5 51t-48.5 38.5t-89 42.5l-21 9
q-119 54 -186.5 103.5t-96.5 106t-29 133.5q0 71 41 134t121 102t190 39q153 0 247 -66t124 -209l-263 -40q-22 119 -112 119z" />
    <glyph glyph-name="uni20A9" unicode="&#x20a9;" horiz-adv-x="1666" 
d="M1503 675h163v-155h-191l-96 -520h-307l-112 520h-261l-114 -520h-309l-92 520h-184v155h156l-24 135h-132v155h105l-85 481h285l66 -481h196l102 481h329l99 -481h197l71 481h281l-89 -481h109v-155h-138zM831 1123l-35 -158h69zM534 810h-142l19 -135h94zM898 810h-136
l-29 -135h194zM1272 810h-143l28 -135h95zM432 520l16 -116l24 116h-40zM1189 520l24 -114l16 114h-40z" />
    <glyph glyph-name="uni20AA" unicode="&#x20aa;" horiz-adv-x="1847" 
d="M139 0v1061h708q213 0 324 -106.5t111 -332.5v-253h-281v253q0 99 -48.5 154.5t-145.5 55.5h-387v-832h-281zM1432 424v637h281v-618q0 -229 -111 -336t-324 -107h-708v692h281v-463h394q96 0 141.5 46.5t45.5 148.5z" />
    <glyph glyph-name="dong" unicode="&#x20ab;" horiz-adv-x="1253" 
d="M1253 1342v-186h-139v-1156h-262v129h-4q-60 -80 -138.5 -117t-179.5 -37q-133 0 -237.5 68t-163.5 195t-59 298q0 162 57 284t161 188.5t240 66.5q94 0 172.5 -37t132.5 -104v222h-294v186h294v104h281v-104h139zM598 851q-114 0 -177 -87t-63 -242t62.5 -239t170.5 -84
q120 0 182 84t62 244q0 98 -30 171t-83.5 113t-123.5 40zM120 -350v187h994v-187h-994z" />
    <glyph glyph-name="Euro" unicode="&#x20ac;" horiz-adv-x="1163" 
d="M812 1229q-142 0 -227.5 -72t-117.5 -207h549l-33 -155h-537q-2 -26 -2 -61q0 -42 2 -72v-2h510l-32 -155h-455q29 -134 118 -210t219 -76q153 0 304 85v-255q-62 -33 -155.5 -53.5t-198.5 -20.5q-237 0 -383 130.5t-203 399.5h-150l33 155h98q-2 26 -2 68q0 45 2 67
h-131l33 155h119q23 147 104 266t211 188t296 69q108 0 185.5 -17.5t146.5 -51.5l-56 -244q-51 31 -115.5 50t-131.5 19z" />
    <glyph glyph-name="uni20AD" unicode="&#x20ad;" horiz-adv-x="1163" 
d="M823 1446h328l-386 -566h327v-204h-328l402 -676h-328l-389 676h-7v-676h-288v676h-144v204h144v566h288v-566h8z" />
    <glyph glyph-name="uni20AE" unicode="&#x20ae;" horiz-adv-x="1163" 
d="M437 0v352l-268 -143v172l268 143v143l-268 -142v172l268 142v373h-390v234h1068v-234h-390v-229l268 143v-172l-268 -143v-144l268 143v-172l-268 -143v-495h-288z" />
    <glyph glyph-name="uni20AF" unicode="&#x20af;" horiz-adv-x="2253" 
d="M548 1463q44 77 106 146.5t128 111.5l141 -154q-43 -30 -111 -118q146 -34 253 -121t163 -209t56 -259q0 -277 -115.5 -470.5t-324 -291.5t-484.5 -98h-391l48 195q94 42 155 111.5t107.5 198.5t90.5 352q57 283 88 377q-87 -14 -148.5 -88t-97.5 -192l-224 60
q55 214 194.5 328t365.5 121zM730 1224q-15 -42 -27 -98.5t-34 -167.5q-14 -76 -27 -138q-46 -222 -95 -353t-120 -238h9q149 0 276.5 67.5t205.5 209.5t78 354q0 99 -34.5 178t-95 127t-136.5 59zM1804 963q115 0 201.5 -46.5t134.5 -134t48 -206.5q0 -169 -65 -305.5
t-181 -214.5t-263 -78q-49 0 -96.5 8.5t-80.5 24.5q-12 -58 -44 -202l-46 -215h-251l183 855q41 190 106 303.5t152 162t202 48.5zM1789 734q-65 0 -111.5 -74.5t-80.5 -238.5l-36 -178q16 -17 50 -26.5t71 -9.5q62 0 116 47t86 130.5t32 188.5q0 161 -127 161z" />
    <glyph glyph-name="uni20B0" unicode="&#x20b0;" horiz-adv-x="1163" 
d="M322 1134q0 94 41 170.5t123 121.5t199 45q110 0 194 -37.5t130.5 -111t46.5 -179.5q0 -95 -37 -178.5t-139 -198.5q70 -63 114 -115.5t68 -113.5t24 -137q0 -100 -47.5 -196t-150 -160t-258.5 -64q-125 0 -199.5 17t-132.5 52l124 220q69 -55 204 -55q65 0 110 22.5
t66.5 59.5t21.5 82q0 43 -23 93t-94 119l-271 -262l-143 174l-125 -148l-170 171l285 333l163 -205l86 88q-85 78 -131 143t-62.5 123.5t-16.5 126.5zM703 923q56 66 80.5 115t24.5 95q0 59 -29.5 98.5t-88.5 39.5q-56 0 -85.5 -37.5t-29.5 -86.5q0 -47 24.5 -95.5
t103.5 -128.5z" />
    <glyph glyph-name="uni20B1" unicode="&#x20b1;" horiz-adv-x="1163" 
d="M1039 943q0 -30 -4 -80h128v-153h-157q-105 -316 -524 -316h-53v-394h-288v710h-141v153h141v114h-141v153h141v316h331q446 0 542 -316h149v-153h-125zM487 1232h-58v-102h268q-66 102 -210 102zM742 977h-313v-114h309q5 40 5 76q0 25 -1 38zM688 710h-259v-102h56
q138 0 203 102z" />
    <glyph glyph-name="uni20B2" unicode="&#x20b2;" horiz-adv-x="1163" 
d="M60 735q0 208 54.5 364t156.5 249t244 116v133h146v-129q152 -14 258 -102t157 -232l-276 -87q-42 148 -139 181v-1021q76 8 142 46v286h-114v248h402v-624q-92 -84 -201 -131t-229 -55v-182h-146v187q-224 31 -339.5 220t-115.5 533zM515 220v998q-78 -37 -119 -156
t-41 -333q0 -231 38.5 -352.5t121.5 -156.5z" />
    <glyph glyph-name="uni20B3" unicode="&#x20b3;" horiz-adv-x="1163" 
d="M1006 468h147v-155h-105l86 -313h-302l-74 313h-352l-74 -313h-295l88 313h-115v155h158l38 135h-196v155h240l194 688h295l188 -688h226v-155h-184zM583 1058l-71 -300h141zM690 603h-215l-32 -135h279z" />
    <glyph glyph-name="uni20B4" unicode="&#x20b4;" horiz-adv-x="1163" 
d="M838 733q-42 -25 -123 -58h448v-155h-770q-27 -30 -37 -64t-10 -78q0 -71 58 -117.5t183 -46.5q88 0 138.5 36.5t70 82.5t32.5 107l261 -28q-32 -204 -147.5 -318t-348.5 -114q-181 0 -295 63.5t-164 159.5t-50 197q0 70 14 120h-98v155h196q44 40 127 83q62 31 115 52
h-438v155h748q23 27 31 55.5t8 59.5q0 67 -47.5 112t-150.5 45q-113 0 -155.5 -43.5t-52.5 -108.5l-254 33q30 159 136 254t324 95q161 0 264.5 -56t150.5 -147t47 -198q0 -54 -12 -101h126v-155h-220q-43 -42 -105 -77z" />
    <glyph glyph-name="uni20B5" unicode="&#x20b5;" horiz-adv-x="1163" 
d="M75 735q0 211 55.5 368t160 249.5t249.5 112.5v132h146v-130q148 -16 251 -103.5t153 -229.5l-276 -87q-39 140 -128 177v-999q48 23 85 78t58 137l274 -99q-50 -161 -155.5 -254t-261.5 -109v-183h-146v186q-150 20 -254 115t-157.5 257t-53.5 382zM540 225v995
q-82 -38 -126 -162.5t-44 -328.5q0 -221 45 -344.5t125 -159.5z" />
    <glyph glyph-name="uni20B6" unicode="&#x20b6;" horiz-adv-x="1163" 
d="M931 1454v-393h198v-223h-198v-517q0 -70 16 -91t63 -21q28 0 53 3.5t58 12.5l35 -217q-45 -15 -101 -24t-114 -9q-162 0 -226.5 69t-64.5 258v536h-189v-838h-281v838h-150v223h150v194l281 199v-393h189v194z" />
    <glyph glyph-name="uni20B7" unicode="&#x20b7;" horiz-adv-x="1714" 
d="M754 1378q125 113 341 113q212 0 336 -109.5t154 -314.5l-295 -33q-11 116 -61.5 164.5t-142.5 48.5q-75 0 -122 -39.5t-47 -105.5q0 -76 69 -117t212.5 -78.5t240.5 -102t142 -156t45 -221.5q0 -169 -100.5 -274.5t-300.5 -142.5v-190h-226v162l-23 -2l-58 -4
q-14 0 -23 -1v-155h-223v145q-29 0 -58.5 1t-48.5 3v-149h-223v160q-157 10 -239.5 76t-82.5 196q0 90 83 166t210 76q64 0 112.5 -17t100.5 -67q32 37 81.5 60.5t103.5 23.5q38 0 79 -23.5t62 -60.5q23 32 82.5 58t112.5 26q85 0 131.5 -52t46.5 -149v-80q57 26 81.5 70
t24.5 111q0 94 -66.5 146.5t-251.5 104t-284.5 153.5t-99.5 282q0 185 125 298zM895 170q15 0 30.5 1t30.5 3l26 2q12 0 19 2v76q0 32 -8.5 50t-31.5 18q-15 0 -36 -7t-30 -16v-129zM565 174q9 0 23 -1l86 -3v74q0 42 -11 60t-32 18q-20 0 -40 -7.5t-26 -13.5v-127zM342 182
v86q0 20 -10.5 37t-40.5 17q-28 0 -39.5 -17.5t-11.5 -36.5q0 -34 23 -54.5t79 -31.5z" />
    <glyph glyph-name="uni20B8" unicode="&#x20b8;" horiz-adv-x="1163" 
d="M1122 1100v-248h-391v-852h-295v852h-395v248h1081zM41 1218v248h1081v-248h-1081z" />
    <glyph glyph-name="uni20B9" unicode="&#x20b9;" horiz-adv-x="1163" 
d="M292 1291h-187v155h953v-155h-288q49 -68 62 -162h226v-155h-224q-18 -126 -92.5 -206.5t-229.5 -108.5v-5q37 -10 68 -31.5t69.5 -76t83.5 -154.5l175 -392h-322l-154 351q-52 118 -84.5 171.5t-64.5 71t-84 17.5h-94v201h164q123 0 189.5 40t84.5 122h-438v155h438
q-19 86 -81.5 124t-169.5 38z" />
    <glyph glyph-name="uni20BA" unicode="&#x20ba;" horiz-adv-x="1163" 
d="M763 998v-172l-284 -152v-440h26q108 0 171.5 49.5t92.5 161.5t29 304h295q0 -392 -151.5 -570.5t-434.5 -178.5h-316v529l-165 -88v172l165 88v143l-161 -87v172l161 87v430h288v-285l284 153v-172l-284 -153v-143z" />
    <glyph glyph-name="uni20BB" unicode="&#x20bb;" horiz-adv-x="1648" 
d="M256 311l171 137q-11 57 -17 126.5t-6 138.5v176h-50q-145 0 -236 85.5t-91 225.5q0 130 75.5 206.5t206.5 76.5q150 0 235.5 -93t85.5 -257v-7h527q220 0 335.5 -103.5t115.5 -291.5q0 -161 -70 -255t-192 -94q-109 0 -185 85l-41 46l-139 -128l-144 154l-162 -130
q50 -101 132.5 -142.5t226.5 -41.5q63 0 129 9t146 32v-248q-68 -20 -139.5 -27t-169.5 -7q-182 0 -310.5 70.5t-196.5 207.5l-126 -101zM630 709q0 -73 3 -99l223 180l137 -148l148 148l101 -142q19 -30 52.5 -54.5t66.5 -24.5q41 0 63.5 34.5t22.5 98.5q0 90 -68.5 138.5
t-212.5 48.5h-536v-180zM402 1201q0 65 -29.5 101t-78.5 36q-38 0 -64.5 -26.5t-26.5 -75.5q0 -45 28.5 -77.5t87.5 -32.5h83v75z" />
    <glyph glyph-name="uni20BC" unicode="&#x20bc;" horiz-adv-x="1163" 
d="M326 281v-281h-281v387q0 292 46.5 473.5t135 266.5t219.5 92v227h271v-228q146 -8 233 -89t127.5 -260t40.5 -485v-384h-281v279q0 262 -13.5 416.5t-40 221.5t-66.5 71v-688h-271v688q-54 -5 -87 -162.5t-33 -544.5z" />
    <glyph glyph-name="uni20BD" unicode="&#x20bd;" horiz-adv-x="1163" 
d="M20 561v228h161v657h371q283 0 415 -114t132 -337q0 -207 -130.5 -320.5t-405.5 -113.5h-94v-125h414v-228h-414v-208h-288v208h-161v228h161v125h-161zM803 1005q0 96 -61 154.5t-185 58.5h-88v-429h92q117 0 179.5 48.5t62.5 167.5z" />
    <glyph glyph-name="uni20BE" unicode="&#x20be;" horiz-adv-x="1163" 
d="M1081 236v-236h-1002v236h320q-148 91 -229 241.5t-81 347.5q0 241 112.5 402t311.5 212v230h135v-209l28 2h67l38 -2v209h136v-227q91 -18 173 -54l-56 -219q-32 11 -60.5 20t-56.5 16v-359h-136v380q-12 0 -24 1h-25q-45 0 -84 -9v-372h-135v312q-70 -54 -108 -144
t-38 -213q0 -255 141.5 -410t378.5 -155h194z" />
    <glyph glyph-name="uni2116" unicode="&#x2116;" horiz-adv-x="2111" 
d="M840 1466h265v-1466h-297l-399 896v-896h-265v1466h287l409 -919v919zM1259 708q0 125 47.5 219.5t136 146t208.5 51.5q118 0 207.5 -52t138.5 -146.5t49 -218.5q0 -126 -47.5 -221t-137 -146.5t-210.5 -51.5q-120 0 -208.5 51.5t-136 146t-47.5 221.5zM1649 927
q-63 0 -99 -60t-36 -164q0 -103 35.5 -159.5t100.5 -56.5q67 0 104 58.5t37 159.5q0 107 -36 164.5t-106 57.5zM1305 0v187h695v-187h-695z" />
    <glyph glyph-name="trademark" unicode="&#x2122;" horiz-adv-x="1765" 
d="M467 1293v-646h-196v646h-231v173h658v-173h-231zM1208 991l147 475h290v-819h-188v593h-4l-174 -593h-149l-172 593h-4v-593h-188v819h290l147 -475h5z" />
    <glyph glyph-name="uni2133" unicode="&#x2133;" horiz-adv-x="2531" 
d="M1118 999h-8q-72 -426 -156.5 -633t-207 -298t-318.5 -91q-183 0 -296.5 108.5t-121.5 287.5l254 49q13 -106 52 -158.5t108 -52.5q122 0 201.5 116t139 336t114.5 564q-20 2 -36 5t-46 3q-107 0 -161 -79.5t-54 -235.5q0 -52 9 -114.5t25 -123.5h-272
q-20 53 -31.5 122.5t-11.5 141.5q0 249 141.5 385.5t405.5 136.5q117 0 244 -27.5t229 -74.5l139 -940l467 985h475q-70 -175 -120 -470t-50 -505q0 -120 26.5 -172.5t92.5 -52.5q43 0 94.5 15.5t75.5 29.5v-233q-59 -26 -116.5 -36t-118.5 -10q-173 0 -253.5 102t-80.5 320
q0 187 21 345.5t48 273.5l-8 6l-487 -1024h-258z" />
    <glyph glyph-name="glyph221" horiz-adv-x="1196" 
d="M86 592v258h1024v-258h-1024z" />
    <glyph glyph-name="glyph225" 
d="M655 986v-146h-105v-135h-184v135h-346v141l371 485h159v-480h105zM366 1213l-178 -227h178v227z" />
    <glyph glyph-name="glyph313" 
d="M203 1219q-58 58 -58 137q0 82 57 139q58 57 140 57q81 0 138 -58q57 -57 57 -138q0 -79 -58 -137q-57 -58 -137 -58q-81 0 -139 58zM341 1446q-36 0 -62.5 -27t-26.5 -63q0 -37 26.5 -62.5t63.5 -25.5q36 0 62 26t26 62q0 37 -26 63.5t-63 26.5z" />
    <glyph glyph-name="glyph497" horiz-adv-x="342" 
d="M-342 -25l868 1498h158l-868 -1498h-158z" />
    <glyph glyph-name="glyph525" 
d="M200 -415v261h281v-261h-281z" />
    <glyph glyph-name="glyph526" 
d="M51 1567l130 295h313l-265 -295h-178zM432 1567l130 295h313l-264 -295h-179z" />
    <glyph glyph-name="glyph527" 
d="M485 1588q-41 0 -80 11.5t-86 32.5q-38 17 -63.5 25t-46.5 8q-31 0 -46 -20.5t-15 -65.5v-2h-154v5q0 131 51.5 203t151.5 72q39 0 73 -10.5t74 -30.5q41 -19 68 -27.5t58 -8.5q28 0 46 22t18 65h154q0 -138 -51.5 -208.5t-151.5 -70.5z" />
    <glyph glyph-name="glyph528" 
d="M145 1727q0 57 26.5 101.5t71.5 69.5t99 25q53 0 98 -25t71 -69.5t26 -101.5q0 -54 -26.5 -99t-71.5 -70.5t-97 -25.5q-53 0 -98 25.5t-72 70.5t-27 99zM341 1817q-40 0 -64.5 -25.5t-24.5 -64.5t24.5 -63.5t65.5 -24.5q39 0 63.5 24t24.5 64q0 38 -24.5 64t-64.5 26z
" />
    <glyph glyph-name="glyph529" 
d="M341 1731q70 0 105 34t45 97h176q-14 -146 -98.5 -224.5t-227.5 -78.5q-144 0 -227.5 74.5t-98.5 228.5h176q8 -65 47.5 -98t102.5 -33z" />
    <glyph glyph-name="glyph530" 
d="M18 1616v197h646v-197h-646z" />
    <glyph glyph-name="glyph531" 
d="M455 1567l-114 140l-114 -140h-235l220 295h258l220 -295h-235z" />
    <glyph glyph-name="glyph532" 
d="M186 1567l125 295h328l-259 -295h-194z" />
    <glyph glyph-name="glyph533" 
d="M227 1862l114 -140l114 140h235l-220 -295h-258l-220 295h235z" />
    <glyph glyph-name="glyph534" 
d="M304 1567l-259 295h328l125 -295h-194z" />
    <glyph glyph-name="glyph535" 
d="M195 1596v271h291v-271h-291z" />
    <glyph glyph-name="glyph536" 
d="M346 1354h139v-188h-288v147q0 88 29 137t88 71.5t156 29.5l15 -111q-55 -4 -86 -15t-42 -28t-11 -43z" />
    <glyph glyph-name="glyph537" horiz-adv-x="268" 
d="M33 934l-53 114q79 21 113 58.5t37 102.5h-130v257h268v-193q0 -96 -20 -157.5t-70.5 -104.5t-144.5 -77z" />
    <glyph glyph-name="glyph538" 
d="M336 -253h-139v178h288v-132q0 -89 -29 -139.5t-88 -72.5t-156 -26l-15 111q77 1 108 22t31 59z" />
    <glyph glyph-name="glyph539" 
d="M0 1596v251h252v-251h-252zM430 1596v251h252v-251h-252z" />
    <glyph glyph-name="glyph540" horiz-adv-x="1412" 
d="M1342 535q0 -145 -59.5 -265t-172.5 -196t-268 -89v-391h-272v391q-155 13 -268 88.5t-172.5 196.5t-59.5 267q0 137 60.5 254t174 192.5t265.5 90.5v392h272v-391q155 -14 268.5 -89.5t172.5 -193.5t59 -257zM842 849v-638q65 12 115 57t77 113.5t27 150.5
q0 79 -26.5 146.5t-76 113t-116.5 57.5zM570 210v636q-62 -13 -112 -57.5t-78.5 -112t-28.5 -146.5q0 -81 26.5 -150t76.5 -113.5t116 -56.5z" />
    <glyph glyph-name="glyph541" 
d="M341 1335q69 0 104 40t43 116h189q-14 -145 -103.5 -224t-232.5 -79q-146 0 -233.5 76t-102.5 227h189q4 -74 44 -115t103 -41z" />
    <glyph glyph-name="glyph542" 
d="M340 1706q74 0 112 39.5t47 116.5h200q-15 -144 -110 -223.5t-249 -79.5q-155 0 -248.5 75.5t-108.5 227.5h200q5 -74 47.5 -115t109.5 -41z" />
    <glyph glyph-name="glyph622" horiz-adv-x="1163" 
d="M461 1466v147h101v-147h72q7 0 15 -1v148h101v-156q171 -27 253 -121t82 -253q0 -103 -54.5 -181.5t-152.5 -121.5q121 -35 179.5 -121.5t58.5 -232.5q0 -180 -92.5 -285.5t-273.5 -131.5v-170h-101v161h-87v-161h-101v161h-347v1466h347zM619 248q109 0 150 48.5
t41 138.5q0 106 -48 153t-145 47h-208v-387h210zM634 883q80 0 121.5 41t41.5 126q0 82 -38.5 125t-127.5 43h-222v-335h225z" />
    </font>
</defs>
</svg>
